**ABCDEFGHIJKLMNOPQRSTUVWXYZabcdefghijklmnopqrstuvwxyz**************************
**PARASOLID !"#$%&'()*+,-./:;<=>?@[\]^_`{|}~0123456789**************************
**PART1;
MC=AMD64;
MC_MODEL=Intel64 Family 6 Model 26 Stepping 5, GenuineIntel;
MC_ID=unknown;
OS=Windows_NT;
OS_RELEASE=unknown;
FRU=Parasolid Version 28.0, build 224,  7-29-2016;
APPL=SOLIDWORKS 2016-2016286;
SITE=;
USER=unknown;
FORMAT=text;
GUISE=transmit;
KEY=8699-16-319 rA.02 Shooter Totter;
FILE=8699-16-319 rA.02 Shooter Totter.x_t;
DATE=Thu Feb 02 10:20:45 2017;
**PART2;
SCH=SCH_2800224_28002;
USFLD_SIZE=0;
**PART3;
**END_OF_HEADER*****************************************************************
T51 : TRANSMIT FILE created by modeller version 280022423 SCH_2800224_28002_1300
6200 0 12 30 CCCCCCCCCCCCCDI5 owner1040 0 CCCCCCCCCA13 boundary_mesh1006 0 A16 i
ndex_map_offset0 0 1 dA9 index_map82 0 A17 node_id_index_map82 0 A20 schema_embe
dding_map82 0 A5 child12 0 A14 lowest_node_id0 0 1 dZ1 3359 0 2 3 0 0 0 1e3 1e-8
 0 4 0 1 0 1 1 5 6 7 8 9 10 11 0 0 0 0 0 0 0 70 11 CI9 list_type0 0 1 uI10 notra
nsmit0 0 1 lCCCDCCDI12 finger_index0 0 1 dI12 finger_block1012 0 CZ2 0 4 T1 0 0
 2 20 1 12 12 51 255 3 1688 0 1 13 0 0 +-.0485 0 3469446951953615e-33 1 0 0 .060
5402625992995 0 0 -1 13 255 5 203 0 1 0 14 0 0 15 0 51 6 3027 0 16 17 0 18 +.016
63 .076349548905352 .01326488341739976 0 -.579433386409178 -.815019601429556 .00
6 0 .815019601429556 -.579433386409178 31 255 7 3060 0 10 19 0 0 --.0465 0 34694
46951953615e-33 -1 0 0 0 0 1 .0605402625992995 29 255 8 3057 0 11 20 0 -.0465 .0
493415006941217 -.035079049372013 19 8 CCCCCCCA5 owner12 0 Z9 233 0 1 15 0 21 V0
 16 255 10 3058 0 ?22 0 23 7 0 0 1 18 255 11 3055 0 24 0 25 8 ?1 17 255 24 0 26
 27 28 11 29 30 0 22 +18 25 2895 0 31 11 32 20 ?1 17 31 0 33 34 35 25 36 37 0 38
 +18 32 2887 0 36 25 39 40 ?1 29 20 2897 0 25 40 8 .01663 .0868481789106825 .017
67710629317215 29 40 2889 0 32 41 20 .02263 .0813736248462829 .02033164979119255
 29 41 2876 0 39 42 40 .02263 .0782901073977642 .0159944348138733 18 39 2874 0 4
3 32 44 41 ?1 29 42 2873 0 44 45 41 .01663 .0838542578457938 .01346591582632874
 18 44 2871 0 46 39 47 42 ?1 29 45 2865 0 47 48 42 .0416129263336067 .0253419473
874861 .003141391369217675 18 47 2863 0 49 44 50 45 ?1 29 48 2852 0 50 51 45 .04
 .009 .0154617650335823 18 50 2850 0 52 47 53 48 ?1 29 51 2834 0 53 54 48 .047 .
015 -.0028272199692405 18 53 2832 0 55 50 56 51 ?1 29 54 2831 0 56 57 51 .047 .0
09 .0154617650335823 18 56 2829 0 58 53 59 54 ?1 29 57 2828 0 59 60 54 .047 .019
98658526980815 -.002827219969240485 18 59 2825 0 61 56 62 57 ?1 29 60 2819 0 62
 63 57 .04 .015 .00946176503358231 18 62 2817 0 64 59 65 60 ?1 29 63 2816 0 65 6
6 60 .0416129263336067 .015 .003141391369217675 18 65 2814 0 67 62 68 63 ?1 29 6
6 2813 0 68 69 63 .047 .015 .00946176503358229 18 68 2811 0 70 65 71 66 ?1 29 69
 2760 0 71 72 66 .02263 .0310620014298934 .0105061827661557 18 71 2758 0 73 68 7
4 69 ?1 29 72 2757 0 74 75 69 .02263 .0397344599466369 .0105061827661557 18 74 2
755 0 76 71 77 72 ?1 29 75 2749 0 77 78 72 .0280170736663933 .0235522360972175 .
00453757142769753 18 77 2747 0 79 74 80 75 ?1 29 78 2746 0 80 81 75 .02801707366
63933 .03043167753085385 .00453757142769752 18 80 2744 0 82 77 83 78 ?1 29 81 25
19 0 83 84 78 .04 .015 .003307025378198165 18 83 2517 0 85 80 86 81 ?1 29 84 131
0 0 86 87 81 -.0245 .0641776691257911 .0122901228236404 18 86 1308 0 88 83 89 84
 ?1 29 87 1307 0 89 90 84 -.0175 .0530137993319803 .01284516015683732 18 89 1305
 0 91 86 92 87 ?1 29 90 1296 0 92 93 87 -.0175 .0191369367211869 -.0405925425902
426 18 92 1294 0 94 89 95 90 ?1 29 93 1293 0 95 96 90 -.0245 .02215208471265935
 -.0405925425902426 18 95 1291 0 97 92 98 93 ?1 29 96 1272 0 98 99 93 -.0175 -.0
154617650335823 -.0533446772569245 18 98 1270 0 100 95 101 96 ?1 29 99 1269 0 10
1 102 96 -.0245 -.0154617650335823 -.0533446772569245 18 101 1267 0 103 98 104 9
9 ?1 29 102 1266 0 104 105 99 -.0245 .0233173593825072 -.0504085461110133 18 104
 1264 0 106 101 107 102 ?1 29 105 1080 0 107 108 102 -.04417380550747045 .049341
5006941217 -.035079049372013 18 107 1078 0 109 104 110 105 ?1 29 108 1077 0 110
 111 105 -.0418462433269482 .045382006209857 -.04006990027390435 18 110 1075 0 1
12 107 113 108 ?1 29 111 1062 0 113 114 108 -.00565497213832477 .082386233331449
3 .01140102142667292 18 113 1060 0 115 110 116 111 ?1 29 114 1055 0 116 117 111
 -.00592289215506641 .0854476103917865 .01570709416957095 18 116 1053 0 34 113 1
18 114 ?1 29 117 1048 0 118 119 114 -.003053577461013825 .02292786357111525 -.05
60306743459013 18 118 1045 0 120 116 121 117 ?1 29 119 1027 0 121 122 117 .047 .
0171843211085144 -.0580501722963425 18 121 1025 0 123 118 124 119 ?1 29 122 190
 0 124 125 119 -.00641376215184458 .0165653736586871 -.0405925425902426 18 124 1
88 0 126 121 127 122 ?1 29 125 173 0 127 128 122 -.00581450194406302 .0215017419
808994 -.04006990027390435 18 127 171 0 129 124 130 125 ?1 29 128 400 0 130 131
 125 .047 .01419209472571306 -.03158707825667675 18 130 330 0 132 127 133 128 ?1
 29 131 847 0 133 134 128 -.0429042574480787 .0379073377548264 -.040592542590242
6 18 133 682 0 135 130 136 131 ?1 29 134 848 0 136 137 131 -.0043271633687383 .0
1762727817455365 -.0526687747508528 18 136 683 0 138 133 139 134 ?1 29 137 861 0
 139 140 134 .047 -.0154617650335823 -.058532531276534 18 139 684 0 141 136 142
 137 ?1 29 140 1601 0 142 143 137 -.0175 .02037138832744055 -.0516694039757743 1
8 142 1448 0 144 139 145 140 ?1 29 143 1608 0 146 147 140 -.0175 -.0154617650335
823 630972711058537e-32 18 146 1454 0 148 149 150 143 ?1 29 147 1609 0 150 151 1
43 -.0175 .000767768726872985 .01544269112349735 18 150 1463 0 152 146 153 147 ?
1 29 151 1615 0 145 154 147 -.0245 -.0154617650335823 630972711058537e-32 18 145
 1455 0 155 142 149 151 ?1 29 154 1616 0 149 156 151 -.0245 .000767768726872985
 .01544269112349735 18 149 1457 0 157 145 146 154 ?1 29 156 1965 0 153 158 154 .
04 .01014160335644272 -.03313777791403625 18 153 1859 0 159 150 160 156 ?1 29 15
8 1966 0 160 161 156 .04 .0124699743440907 -.0541222736907538 18 160 1860 0 162
 153 163 158 ?1 29 161 1968 0 163 164 158 .04 -.0154617650335823 -.0533446772569
245 18 163 1857 0 165 160 166 161 ?1 29 164 1974 0 167 168 161 .047 -.0154617650
335823 2593383824097855e-33 18 167 1865 0 169 170 171 164 ?1 29 168 1975 0 171 1
72 164 .047 18935201057545e-31 .0154617650335823 18 171 1861 0 173 167 174 168 ?
1 29 172 1980 0 166 175 168 .04 -.0154617650335823 2593383824097855e-33 18 166 1
864 0 176 163 170 172 ?1 29 175 1981 0 170 177 172 .04 18935201057545e-31 .01546
17650335823 18 170 1856 0 178 166 167 175 ?1 29 177 2705 0 174 179 175 .04 .0194
9218082016265 .003307025378198215 18 174 2622 0 180 171 181 177 ?1 29 179 3132 0
 181 182 177 -.0465 .068209502342279 -.00853968946672433 18 181 3105 0 28 174 18
3 179 ?1 29 182 3133 0 183 184 179 -.0465 .0429137936707288 -.0352580073513133 1
8 183 3106 0 185 181 186 182 ?1 29 184 3134 0 186 187 182 -.0465 -.0154617650335
823 -.0533446772569245 18 186 3107 0 188 183 189 184 ?1 29 187 3136 0 189 0 184
 -.0465 -.0154617650335823 -.058532531276534 18 189 3108 0 27 186 0 187 ?1 17 27
 0 26 188 24 189 22 10 0 190 -15 255 26 3114 0 28 191 0 17 188 0 26 185 27 186 1
90 192 0 193 -17 22 0 194 195 196 11 27 10 0 197 +17 190 0 198 141 199 189 188 1
92 0 196 +15 198 1751 0 199 200 0 17 141 0 198 169 190 139 196 201 0 202 +17 199
 0 198 190 203 186 103 204 0 0 -16 192 3100 0 ?190 205 0 206 0 0 1 17 196 0 194
 22 202 189 141 201 0 0 -15 194 1989 0 196 207 0 17 202 0 194 196 208 139 123 20
9 0 210 -16 201 3053 0 ?141 211 204 212 0 0 1 16 211 625 0 ?213 214 201 215 0 0
 1 16 204 3066 0 ?103 201 216 217 216 216 1 30 255 212 819 0 201 218 217 0 +-.04
85 -.0154617650335823 -.058532531276534 1 0 0 30 218 826 0 219 220 212 0 +.047 -
.0154617650335823 -.058532531276534 0 3343817056956005e-31 -1 30 217 818 0 204 2
12 215 0 +-.0485 -.0154617650335823 -.0533446772569245 1 0 0 38 255 215 810 0 21
1 217 221 0 +222 223 224 225 226 38 221 809 0 227 215 228 0 +229 223 230 231 232
 67 255 222 369 0 233 234 235 236 +237 -.978254211939102 .135392609074463 -.1571
22685285788 .00845457844572648 51 223 793 0 238 239 240 241 --.0485 0 3469446951
953615e-33 1 0 0 .0555402625992995 0 0 -1 40 255 2 224 0 1 2 .000359193323284553
 .01372084879056454 ??-.0043271633687383 .01762727817455365 -.0526687747508528 .
047 .01165345226977282 -.0543039392659065 41 3 CI8 term_use0 0 1 cCZ1 225 L?-.00
43271633687383 .01762727817455365 -.0526687747508528 41 1 226 L?.047 .0116534522
6977282 -.0543039392659065 14 255 238 1748 242 ?243 233 244 5 223 +245 245 243 2
33 21 50 255 239 794 0 200 246 223 0 +-.0485 -.0154617650335823 -.05853253127653
4 0 -1 -3343817056956005e-31 0 3343817056956005e-31 -1 51 240 789 0 207 223 234
 0 +-.0485 0 3469446951953615e-33 1 0 0 .0605402625992995 0 0 -1 141 255 241 228
 247 248 223 38 228 808 0 249 221 250 0 +251 223 252 253 254 141 247 221 248 241
 223 141 248 215 241 247 223 16 249 628 0 ?255 256 227 228 0 0 1 32 255 250 392
 0 1 228 257 258 -.047 .0628934295831743 -.0274498829080101 1 0 0 0 .65277923701
4283 -.757548194983692 .049592426393785 .048514 53 255 251 104 0 259 229 260 261
 +0 .0693983365376622 -.03499880640693775 .053514 0 -1197396013614936e-31 1 -698
296267768627e-29 -1 -1197396013614936e-31 40 2 252 0 1 2 .002287864132725695 .36
8182858676917 ??-.04290407417531645 .0379071235864903 -.0405927425902426 -.04768
09043508081 .0452665448751311 -.0321816824399671 41 1 253 L?-.04290407417531645
 .0379071235864903 -.0405927425902426 41 1 254 L?-.0476809043508081 .04526654487
51311 -.0321816824399671 14 259 3087 262 ?245 14 263 5 251 +0 0 245 14 21 52 255
 229 103 0 264 265 251 266 +0 .0693983365376622 -.0405925425902426 0 -1197396013
614936e-31 1 .0532208447087378 .1045284632676456 .994521895368274 0 -1 -11973960
13614936e-31 51 260 2794 0 267 251 268 269 +.02863 .0878470837551172 .0105061827
661557 0 1 0 .006 0 0 1 141 261 228 261 261 251 14 267 2782 270 ?271 272 273 5 2
60 -0 0 271 272 21 51 268 2985 0 271 260 17 0 +0 .009 .00946176503358229 -1 0 0
 .006 0 0 1 141 269 274 275 275 260 38 274 2774 0 276 277 278 0 +235 260 279 280
 281 141 275 278 269 269 260 38 278 2775 0 282 274 283 0 +284 260 285 286 287 16
 282 2770 0 ?288 289 276 278 0 0 1 30 283 2822 0 289 278 290 0 +.047 .015 .00946
176503358229 1 0 0 51 284 366 0 291 235 292 293 +.1802578949070975 .044450233682
71475 -.00604661366797136 -.978254211939102 .135392609074463 -.157122685285788 .
048514 -.158582912410205 0 .987345663833845 40 5 285 0 1 5 .001186416158323126 .
3639245204113305 ??.02263 .0397344599466369 .0105061827661557 .02363205606787845
 .0347337470411048 .00718646042063199 .0250287079288477 .03256561880736015 .0057
0715209129481 .02674643396175195 .0310864228191953 .00480950136558931 .028017073
6663933 .03043167753085385 .00453757142769753 41 1 286 L?.02263 .039734459946636
9 .0105061827661557 41 1 287 L?.0280170736663933 .03043167753085385 .00453757142
769753 14 291 2569 294 ?295 207 296 5 284 -0 0 295 207 21 51 235 368 0 295 222 2
84 297 -.1802578949070975 .04445023368271475 -.00604661366797136 -.9782542119391
02 .135392609074463 -.157122685285788 .053514 -.158582912410205 0 .9873456638338
45 50 292 365 0 298 284 299 300 +.047 0 0 1 0 0 0 0 -1 141 293 278 301 302 284 1
41 301 303 302 293 284 141 302 304 293 301 284 38 304 2879 0 305 306 303 0 +6 28
4 307 308 309 16 305 2877 0 ?43 310 311 304 0 0 1 30 306 2868 0 311 312 304 0 -.
0416129263336067 .0878470837551172 .003141391369217675 0 -1 0 38 303 2884 0 310
 304 313 0 +17 284 314 315 316 40 6 307 0 1 6 .0003293049771606285 .339221410176
5475 ??.01663 .0838542578457938 .01346591582632874 .01855055911982485 .083665090
2825096 .01374465080317874 .02027166832712355 .0828851349089051 .014228180340323
42 .0215937930456102 .081603855372528 .01483847296201016 .02240024439041345 .079
9425849199876 .0154807125190751 .02263 .0782901073977642 .0159944348138733 41 1
 308 L?.01663 .0838542578457938 .01346591582632874 41 1 309 L?.02263 .0782901073
977642 .0159944348138733 16 310 2882 0 ?61 317 305 303 0 0 1 30 313 2892 0 317 3
03 318 0 +.02263 .0822888078816918 .0216189282432965 0 .579433386409178 .8150196
01429556 51 17 3006 0 319 268 6 320 +.041 0 -.0028272199692405 0 -1 0 .006 0 0 -
1 40 5 314 0 1 5 .00063932401298649 .393476585765168 ??.0416129263336067 .025341
9473874861 .003141391369217675 .0435532341295589 .0244013255457202 .002602420486
595925 .0450976265010833 .0232228642614628 .001555639492072415 .0464010493178996
 .0216936593142428 -.000214048282263838 .047 .01998658526980815 -.00282721996924
0485 41 1 315 L?.0416129263336067 .0253419473874861 .003141391369217675 41 1 316
 L?.047 .01998658526980815 -.002827219969240485 14 319 2994 321 ?16 271 322 5 17
 +0 0 16 271 21 141 320 303 320 320 17 81 255 1 321 3326 323 319 324 0 294 325 3
26 14 16 3015 325 ?191 319 327 5 6 +0 0 191 319 21 14 271 2973 328 ?319 267 329
 5 268 +0 0 319 267 21 15 322 2995 0 330 319 0 13 21 234 0 0 0 0 0 0 9 14 14 14
 3091 331 ?259 0 332 5 333 -0 0 259 0 21 81 1 331 3329 323 14 334 0 328 335 336
 15 332 3090 0 29 14 0 50 333 1164 0 14 337 246 0 +.304954095258434 .04934150069
41217 -.035079049372013 0 -.815019601429556 .579433386409178 0 -.579433386409178
 -.815019601429556 50 337 1538 0 338 339 333 0 +-.0245 .07773968184394 .01161585
632726498 0 .0496559561735302 .998766382101687 0 -.998766382101687 .049655956173
5302 51 246 1163 0 1 333 239 340 -.304954095258434 0 3469446951953615e-33 -1 0 0
 .0605402625992995 0 0 1 141 340 341 342 343 246 38 341 1172 0 344 345 346 0 +23
4 246 347 348 349 141 342 350 343 340 246 141 343 346 340 342 246 38 346 1171 0
 351 341 350 0 +265 246 352 353 354 16 351 1104 0 ?120 355 344 346 0 0 1 38 350
 1169 0 355 346 356 0 +299 246 357 358 359 52 265 101 0 360 299 229 361 -0 .0693
983365376622 -.0699055571349526 0 -1197396013614936e-31 1 .0451123813338671 .104
528463267646 .994521895368274 0 -1 -1197396013614936e-31 40 5 352 0 1 5 .0026366
3241345154 .3497633310225785 ??-.0418463846084517 .0453822048719099 -.0400696752
7390435 -.03361338602255605 .0360520741698823 -.0486350834649376 -.0218424944899
8745 .0279883573402965 -.0536821688178115 -.00811038499662584 .02351334972290215
 -.0557875055940005 2250000003150665e-22 .02283176907053775 -.0560699002736921 4
1 1 353 L?-.0418463846084517 .0453822048719099 -.04006967527390435 41 1 354 L?22
50000003150665e-22 .02283176907053775 -.0560699002736921 14 360 512 335 ?362 243
 363 5 265 +0 0 362 243 21 53 299 100 0 362 292 265 364 -0 .0693983365376622 -.0
3499880640693775 .048514 0 -1197396013614936e-31 1 698296267768627e-29 1 1197396
013614936e-31 141 361 346 361 361 265 14 362 201 365 ?264 360 366 5 299 +0 0 264
 360 21 141 364 350 364 364 299 81 1 365 3331 323 362 367 0 335 368 369 14 264 1
93 368 ?370 362 371 5 229 +243 243 370 362 21 15 366 1711 0 372 362 0 17 372 0 3
66 373 115 127 374 375 0 376 +17 373 0 366 109 372 110 129 377 0 378 -17 115 0 3
66 372 109 113 379 380 0 374 -17 374 0 296 381 376 113 372 375 0 382 -16 375 106
1 0 ?372 383 384 385 0 0 1 17 376 0 296 374 386 127 387 256 0 388 +15 296 2568 0
 389 291 0 17 386 0 296 376 61 130 390 391 0 0 -17 387 0 392 393 388 130 376 256
 0 386 -16 256 289 0 ?376 394 249 395 0 0 1 17 388 0 392 387 396 127 397 383 0 0
 -15 392 357 0 393 370 0 17 396 0 392 388 393 118 208 344 0 397 +17 397 0 363 11
2 129 118 388 383 0 0 +16 383 209 0 ?397 398 375 399 0 0 1 16 398 493 0 ?400 377
 383 401 0 0 1 133 255 399 280 0 383 402 403 0 +403 -.00581450194406302 .0215017
419808994 -.04006990027390435 -.003053577461013825 .02292786357111525 -.05603067
43459013 2.304928919781845 2.345187361539685 31 402 108 0 404 405 399 0 +0 .0693
983365376622 -.0405925425902426 0 -1197396013614936e-31 1 0 -1 -1197396013614936
e-31 .0532208447087378 32 403 281 0 1 399 406 407 +-.0566410881206068 .077237592
0275664 .3244067127519475 .978254211939102 -.135392609074463 .157122685285788 -.
15563910780478 .02154080669680005 .987579091399055 .550883347995005 .06497939092
3556 32 406 287 0 1 403 401 408 --.0624786904746277 .0780455294775707 .361448135
759616 .978254211939102 -.135392609074463 .157122685285788 -.15563910780478 .021
54080669680005 .987579091399055 .607659056862024 .0716763640574503 141 407 399 4
07 407 403 133 401 494 0 398 406 409 0 +406 -.0043271633687383 .0176272781745536
5 -.0526687747508528 -.00641376215184458 .0165653736586871 -.0405925425902426 2.
33237760720971 2.30492891978184 141 408 401 408 408 406 31 409 542 0 410 401 411
 0 -0 .0561133386248163 -.0255539153692533 0 .815019601429556 -.579433386409178
 0 .579433386409178 .815019601429556 .0509710806216814 16 410 540 0 ?412 413 404
 409 0 0 1 31 411 1311 0 413 409 414 0 -0 .0717307441092159 .01191460441706056 0
 .0496559561735302 .998766382101687 0 -.998766382101687 .0496559561735302 .02564
05919545341 16 413 1309 0 ?415 416 410 411 0 0 1 133 414 1761 0 391 411 417 0 +2
50 .047 .01419209472571306 -.03158707825667675 .047 .01998658526980815 -.0028272
19969240485 4.096294335444455 3.4871088675873 16 391 314 0 ?390 384 418 414 0 0
 1 31 417 2280 0 419 414 420 0 --.019 0 .008 -1 0 0 0 0 1 .0018415 16 419 2315 0
 ?421 422 423 417 0 0 1 30 420 2520 0 416 417 424 0 +.04 .015 .3410530669129705
 0 0 -1 16 416 2818 0 ?85 425 413 420 0 0 1 30 424 2523 0 425 420 426 0 +.04 .06
28934295831743 .003307025378198215 0 -1 0 16 425 2521 0 ?427 428 416 424 0 0 1 3
0 426 2752 0 428 424 277 0 +.0280170736663933 .0255076009808195 .004537571427697
53 0 -1 0 16 428 2750 0 ?429 430 425 426 0 0 1 30 277 2763 0 430 426 274 0 -.022
63 .0326459665566154 .0105061827661557 0 -1 0 16 430 2761 0 ?76 276 428 277 0 0
 1 17 76 0 431 432 73 74 433 430 0 434 +16 276 2766 0 ?435 282 430 274 0 0 1 17
 435 0 33 35 436 71 79 276 0 433 +15 33 2561 0 35 295 0 17 35 0 33 31 435 32 73
 437 0 0 -17 436 0 33 435 438 77 180 439 0 0 -17 79 0 273 440 433 77 435 276 0 4
29 -17 433 0 273 79 441 71 76 430 0 0 -15 273 2783 0 441 267 0 17 441 0 273 433
 440 74 288 282 0 0 -17 440 0 273 441 79 80 429 428 0 0 -17 288 0 296 389 434 80
 441 282 0 440 +17 389 0 296 61 288 47 82 442 0 330 -17 434 0 296 288 43 74 432
 443 0 441 -17 43 0 296 434 381 39 444 305 0 432 +17 432 0 431 445 76 39 434 443
 0 446 +16 443 2756 0 ?432 447 437 448 0 0 1 16 447 2322 0 ?449 423 443 450 0 0
 1 16 437 2888 0 ?73 443 442 451 0 0 1 32 448 2683 0 443 451 452 0 -.02263 .0662
662930402141 -.03136408004990085 1 0 0 0 .652779237014283 -.757548194983692 .049
592426393785 .048514 32 451 2684 0 437 453 448 0 +.02263 .0662662930402141 -.031
36408004990085 1 0 0 0 .652779237014283 -.757548194983692 .0547035722891746 .053
514 31 452 2392 0 423 448 450 0 +-.019 246519032881566e-49 3691491556878645e-33
 -1 0 0 0 0 1 .0112 16 423 2312 0 ?454 419 447 452 0 0 1 31 450 2391 0 447 452 4
55 0 +-.0175 246519032881566e-49 3691491556878645e-33 -1 0 0 0 0 1 .0112 31 455
 2385 0 422 450 456 0 --.019 .008 1301042606982604e-33 -1 0 0 0 0 1 .0018415 16
 422 2311 0 ?457 458 419 455 0 0 1 31 456 2384 0 458 455 459 0 --.019 -189016590
942494e-48 -.008 -1 0 0 0 0 1 .0018415 16 458 2316 0 ?460 461 422 456 0 0 1 31 4
59 2383 0 461 456 462 0 --.019 -517689969051289e-49 300315328161105e-32 -1 0 0 0
 0 1 .0046 16 461 2310 0 ?463 464 458 459 0 0 1 31 462 2382 0 464 459 465 0 --.0
19 -.008 596311194867027e-32 -1 0 0 0 0 1 .0018415 16 464 2317 0 ?466 467 461 46
2 0 0 1 31 465 2237 0 468 462 469 0 +-.0245 .008 1301042606982604e-33 -1 0 0 0 0
 1 .0018415 16 468 2140 0 ?470 471 467 465 0 0 1 31 469 2235 0 467 465 472 0 +-.
0245 0 .008 -1 0 0 0 0 1 .0018415 16 467 2116 0 ?473 468 464 469 0 0 1 31 472 22
33 0 474 469 475 0 +-.0245 -517689969051289e-49 300315328161105e-32 -1 0 0 0 0 1
 .0046 16 474 2188 0 ?476 477 471 472 0 0 1 31 475 2231 0 471 472 478 0 +-.0245
 -189016590942494e-48 -.008 -1 0 0 0 0 1 .0018415 16 471 2164 0 ?479 474 468 475
 0 0 1 31 478 2064 0 477 475 480 0 +-.0245 -.008 596311194867027e-32 -1 0 0 0 0
 1 .0018415 16 477 2039 0 ?481 482 474 478 0 0 1 31 480 1964 0 483 478 484 0 +.0
4 0 3469446951953615e-33 1 0 0 0 0 -1 .003175 16 483 1795 0 ?485 486 482 480 0 0
 1 31 484 1963 0 482 480 487 0 +.047 0 3469446951953615e-33 1 0 0 0 0 -1 .003175
 16 482 1852 0 ?488 483 477 484 0 0 1 30 487 1959 0 489 484 490 0 +.04 .03811111
89551136 .0154617650335823 0 -1 1365525487210116e-31 16 489 2851 0 ?178 491 492
 487 0 0 1 31 490 1958 0 491 487 493 0 +.04 0 3469446951953615e-33 1 0 0 0 0 -1
 .0154617650335823 16 491 1818 0 ?494 495 489 490 0 0 1 30 493 1957 0 495 490 49
6 0 +.04 -.0154617650335823 2593383824097855e-33 0 592738239110553e-31 -1 16 495
 1814 0 ?497 498 491 493 0 0 1 30 496 1953 0 486 493 499 0 +.047 .03811111895511
36 .0154617650335823 0 -1 1365525487210116e-31 16 486 2830 0 ?173 492 483 496 0
 0 1 31 499 1952 0 492 496 500 0 +.047 0 3469446951953615e-33 1 0 0 0 0 -1 .0154
617650335823 16 492 1803 0 ?501 489 486 499 0 0 1 30 500 1949 0 502 499 503 0 +.
04 -.0154617650335823 2593383824097855e-33 1 0 0 16 502 1821 0 ?504 505 498 500
 0 0 1 30 503 1948 0 498 500 506 0 +.04 18935201057545e-31 .0154617650335823 1 0
 0 16 498 1790 0 ?507 502 495 503 0 0 1 31 506 1941 0 505 503 508 0 +.04 0 34694
46951953615e-33 1 0 0 0 0 -1 .0555402625992995 16 505 1834 0 ?509 510 502 506 0
 0 1 38 508 1940 0 510 506 511 0 +222 512 513 514 515 16 510 1799 0 ?162 516 505
 508 0 0 1 32 511 1939 0 516 508 517 0 +.04 .0638622455125661 -.0285741906631695
 1 0 0 0 .652779237014283 -.757548194983692 .0547035722891746 .053514 50 512 193
5 0 518 519 520 521 +.04 .0628934295831743 .3410530669129705 1 0 0 0 0 -1 40 2 5
13 0 1 2 .000127143750968607 .01101796790294824 ??.04 .01014160335644272 -.03313
777791403625 .04 .01263754222021644 -.0555587987529184 41 1 514 L?.04 .010141603
35644272 -.03313777791403625 41 1 515 L?.04 .01263754222021644 -.055558798752918
4 14 518 2524 522 ?233 298 523 5 512 -0 0 233 298 21 51 519 1936 0 524 525 512 0
 +.04 0 3469446951953615e-33 1 0 0 .003175 0 0 -1 51 520 1932 0 526 512 527 0 +.
04 0 3469446951953615e-33 1 0 0 .0154617650335823 0 0 -1 141 521 508 521 521 512
 14 526 1899 528 ?524 529 530 5 520 +0 0 524 529 21 50 527 1931 0 529 520 531 0
 +.04 .0381111189551136 .0154617650335823 0 1365525487210118e-31 1 0 -1 13655254
87210118e-31 14 529 1875 532 ?526 533 534 5 527 +0 0 526 533 21 50 531 1543 0 53
5 527 536 537 +-.0245 .02805329144874 -.0466471199413265 1 0 0 0 0 -1 14 535 152
7 538 ?338 539 540 5 531 -0 0 338 539 21 50 536 1542 0 539 531 339 541 +-.0175 .
02805329144874 -.0466471199413265 1 0 0 0 0 -1 141 537 542 537 537 531 38 542 15
50 0 543 544 545 0 +229 531 546 547 548 16 543 1365 0 ?97 549 550 542 0 0 1 31 5
44 1551 0 550 551 542 0 +-.0245 0 3469446951953615e-33 1 0 0 0 0 -1 .05554026259
92995 31 545 1549 0 549 542 345 0 --.0245 .0693983365376622 -.03499880640693775
 1 0 0 0 0 -1 .0475762356224197 40 2 546 0 1 2 753020710854837e-20 .000981706265
359734 ??-.0245 .0239291470537743 -.0555404625992995 -.0245 .0221520580737088 -.
0405923175902426 41 1 547 L?-.0245 .0239291470537743 -.0555404625992995 41 1 548
 L?-.0245 .0221520580737088 -.0405923175902426 16 549 1366 0 ?88 552 543 545 0 0
 1 30 345 1176 0 552 545 341 0 +.304954095258434 .0493415006941217 -.03507904937
2013 -1 0 0 16 552 1116 0 ?197 344 549 345 0 0 1 17 197 0 332 29 379 11 195 552
 0 0 +16 344 1102 0 ?396 351 552 341 0 0 1 17 29 0 332 553 197 181 24 30 0 412 -
17 379 0 332 197 382 107 115 380 0 195 +17 195 0 194 378 22 107 197 552 0 0 -17
 378 0 194 120 195 110 109 355 0 0 +17 120 0 194 208 378 118 112 351 0 396 +17 1
09 0 366 115 373 107 378 355 0 379 -16 355 1103 0 ?378 554 351 350 0 0 1 16 554
 2896 0 ?34 555 355 356 0 0 1 17 34 0 33 556 31 116 38 554 0 553 +16 555 1090 0
 ?381 380 554 557 0 0 1 32 356 1168 0 554 350 557 0 +.0791785928161384 .05843983
91109332 -.02228150555753835 0 -.815019601429556 .579433386409178 -.998716732750
351 -.0293452419599345 -.04127643999641795 .265723540393748 .053514 32 557 1167
 0 555 356 558 0 -.0791785928161384 .0584398391109332 -.02228150555753835 0 -.81
5019601429556 .579433386409178 -.998716732750351 -.0293452419599345 -.0412764399
9641795 .2408960615663615 .048514 31 558 1165 0 380 557 220 0 +0 .05611333862481
63 -.0255539153692533 0 -.815019601429556 .579433386409178 0 -.579433386409178 -
.815019601429556 .0456936654224844 16 380 1115 0 ?379 219 555 558 0 0 1 31 220 8
27 0 209 558 218 0 +.047 0 3469446951953615e-33 1 0 0 0 0 -1 .0605402625992995 1
6 209 608 0 ?123 216 219 220 0 0 1 17 123 0 559 132 210 121 202 209 0 393 +16 21
6 1271 0 ?560 204 209 217 204 204 1 16 219 607 0 ?210 209 380 218 0 0 1 17 210 0
 559 123 501 139 169 219 0 0 +15 559 2451 0 561 298 0 17 501 0 559 210 173 167 5
62 492 0 0 +17 169 0 198 176 141 167 210 219 0 504 -17 176 0 198 497 169 166 504
 502 0 494 -17 504 0 530 562 494 167 176 502 0 501 +15 530 1902 0 562 526 0 17 5
62 0 530 563 504 171 501 492 0 0 -17 494 0 530 504 563 166 564 491 0 565 +17 563
 0 530 494 562 170 507 498 0 564 -17 564 0 566 567 565 170 494 491 0 0 -17 565 0
 566 564 165 166 497 495 0 0 -15 566 2522 0 567 518 0 17 165 0 566 565 162 163 5
09 505 0 497 -17 497 0 198 568 176 163 565 495 0 560 +17 568 0 198 148 497 98 56
0 216 0 569 -17 560 0 244 509 100 163 568 216 0 0 +15 244 1274 0 560 238 0 17 50
9 0 244 138 560 160 165 505 0 213 +17 100 0 244 560 144 98 570 571 0 568 -17 144
 0 244 100 138 142 572 227 0 573 +17 570 0 574 575 569 142 100 571 0 0 +16 571 1
435 0 ?570 576 577 578 0 0 1 16 576 1422 0 ?575 579 571 580 0 0 1 16 577 1410 0
 ?581 571 582 583 0 0 1 31 578 1556 0 571 584 580 0 +-.0175 0 3469446951953615e-
33 1 0 0 0 0 -1 .0555402625992995 30 584 1580 0 582 583 578 0 +-.0245 .000767768
726872985 .01544269112349735 1 0 0 38 580 1555 0 576 578 551 0 +229 536 585 586
 587 31 551 1554 0 579 580 544 0 --.0175 .0693983365376622 -.03499880640693775 1
 0 0 0 0 -1 .0505717133979066 40 2 585 0 1 2 316476318933918e-20 .00041385645353
55825 ??-.0175 .0208036126232113 -.0555404625992995 -.0175 .01913691168028845 -.
0405923175902426 41 1 586 L?-.0175 .0208036126232113 -.0555404625992995 41 1 587
 L?-.0175 .01913691168028845 -.0405923175902426 16 579 1423 0 ?588 550 576 551 0
 0 1 17 588 0 574 152 575 89 94 579 0 589 +16 550 1367 0 ?106 543 579 544 0 0 1
 17 106 0 590 135 103 104 591 550 0 592 +15 590 754 0 255 245 0 17 135 0 590 255
 106 133 592 214 0 593 +17 103 0 590 106 193 101 199 204 0 591 +17 591 0 594 595
 596 101 106 550 0 203 -17 592 0 597 97 598 104 135 214 0 596 -15 597 525 0 592
 243 0 17 97 0 597 598 592 95 596 543 0 599 +17 598 0 597 592 97 133 599 404 0 0
 -16 214 1265 0 ?135 227 211 221 227 227 1 17 596 0 594 591 600 104 97 543 0 0 -
15 594 1529 0 600 535 0 17 600 0 594 596 601 95 88 549 0 0 -17 601 0 594 600 602
 86 157 603 0 0 -17 88 0 263 91 599 86 600 549 0 415 +15 263 1072 0 412 259 0 17
 91 0 263 94 88 89 415 413 0 588 -17 599 0 263 88 593 95 598 404 0 600 +17 415 0
 604 157 589 86 91 413 0 601 +15 604 1518 0 589 338 0 17 157 0 604 605 415 149 6
01 603 0 606 +17 589 0 604 415 605 89 152 607 0 0 -17 605 0 604 589 157 150 606
 582 0 608 +17 152 0 574 609 588 150 589 607 0 605 +16 607 1424 0 ?152 610 516 6
11 0 0 1 16 610 1427 0 ?609 612 607 613 0 0 1 16 516 2515 0 ?159 607 510 511 0 0
 1 30 611 1585 0 607 614 613 0 +-.0175 .07773968184394 .01161585632726498 0 -.99
8766382101687 .0496559561735302 30 614 1587 0 615 616 611 0 +-.0245 -.0154617650
335823 -.0533446772569245 0 975574451948697e-31 -1 31 613 1584 0 610 611 617 0 +
-.0175 0 3469446951953615e-33 1 0 0 0 0 -1 .0154617650335823 30 617 1583 0 612 6
13 583 0 +-.0175 -.0154617650335823 -.0533446772569245 0 3343817056956005e-31 -1
 16 612 1430 0 ?569 603 610 617 0 0 1 30 583 1581 0 577 617 584 0 +-.0245 -.0154
617650335823 630972711058537e-32 1 0 0 17 569 0 574 570 609 98 148 612 0 0 +16 6
03 1412 0 ?157 618 612 517 0 0 1 16 618 1407 0 ?619 615 603 616 0 0 1 30 517 158
9 0 603 511 616 0 +-.0245 .07773968184394 .01161585632726498 0 -.998766382101687
 .0496559561735302 31 616 1588 0 618 517 614 0 +-.0245 0 3469446951953615e-33 1
 0 0 0 0 -1 .0154617650335823 17 619 0 620 581 606 145 602 618 0 0 +16 615 1401
 0 ?203 582 618 614 0 0 1 17 203 0 198 199 155 101 595 615 0 0 +16 582 1415 0 ?6
05 577 615 584 0 0 1 17 155 0 198 203 148 145 581 577 0 595 -17 595 0 594 602 59
1 145 203 615 0 619 -17 602 0 594 601 595 149 619 618 0 0 -17 148 0 198 155 568
 146 569 612 0 581 -17 581 0 620 608 619 146 155 577 0 609 +15 620 1514 0 608 53
3 0 17 608 0 620 606 581 150 609 610 0 0 -17 609 0 574 569 152 146 608 610 0 0 +
15 574 1532 0 575 539 0 17 575 0 574 588 570 92 573 576 0 0 +14 539 1530 621 ?53
5 370 622 5 536 +0 0 535 370 21 81 1 621 3337 323 539 623 0 538 624 625 14 370 3
54 624 ?539 264 392 5 234 -0 0 539 264 21 15 622 2304 0 449 539 574 17 449 0 622
 449 449 0 626 447 0 0 +17 626 0 627 626 626 0 449 447 0 0 -15 627 2370 0 626 62
8 0 14 628 2366 629 ?630 631 632 5 633 +0 0 630 631 21 81 1 629 3339 323 628 634
 0 624 635 636 14 630 2637 635 ?637 628 431 5 638 +0 0 637 628 21 14 631 2326 63
9 ?628 640 641 5 642 -0 0 628 640 21 15 632 2369 0 454 628 627 51 633 2379 0 628
 642 643 0 --.019 246519032881566e-49 3691491556878645e-33 1 0 0 .0112 0 0 -1 50
 642 2381 0 631 644 633 0 +-.019 246519032881566e-49 3691491556878645e-33 -1 0 0
 0 0 1 51 643 2224 0 645 633 646 0 +-.017 .008 1301042606982604e-33 -1 0 0 .0018
415 0 0 1 14 645 2148 647 ?640 648 649 5 643 -0 0 640 648 21 51 646 2221 0 640 6
43 650 0 +-.017 0 .008 -1 0 0 .0018415 0 0 1 14 640 2124 651 ?631 645 652 5 646
 -0 0 631 645 21 51 650 2218 0 653 646 654 0 +-.017 -517689969051289e-49 3003153
28161105e-32 -1 0 0 .0046 0 0 1 14 653 2196 655 ?648 656 657 5 650 -0 0 648 656
 21 51 654 2215 0 648 650 525 0 +-.017 -189016590942494e-48 -.008 -1 0 0 .001841
5 0 0 1 14 648 2172 658 ?645 653 659 5 654 -0 0 645 653 21 51 525 2060 0 656 654
 519 0 +-.017 -.008 596311194867027e-32 -1 0 0 .0018415 0 0 1 14 656 2047 660 ?6
53 524 661 5 525 -0 0 653 524 21 81 1 660 3346 323 656 662 0 658 663 664 14 524
 1921 663 ?656 526 665 5 519 -0 0 656 526 21 15 661 2299 0 466 656 666 17 466 0
 661 466 466 0 667 464 0 0 +15 666 2051 0 481 656 0 17 481 0 666 481 481 0 668 4
77 0 0 +17 668 0 669 668 668 0 481 477 0 0 -15 669 2024 0 668 535 594 17 667 0 6
70 667 667 0 466 464 0 0 -15 670 2333 0 667 631 0 81 1 663 3347 323 524 671 0 66
0 672 673 15 665 1924 0 674 524 675 17 674 0 665 674 674 0 485 483 0 0 -15 675 1
925 0 488 524 0 17 488 0 675 488 488 0 676 482 0 0 +17 676 0 677 676 676 0 488 4
82 0 0 -15 677 1889 0 676 298 559 14 298 2553 672 ?518 295 677 5 292 +0 0 518 29
5 21 81 1 672 3348 323 298 678 0 663 679 680 14 295 2562 679 ?298 291 33 5 235 -
0 0 298 291 21 81 1 679 3349 323 295 681 0 672 682 683 80 255 1 323 684 685 9000
 1 1 1 1 1 1 1 1 0 FFFFTFTFFFFFFF1 81 1 681 3205 686 295 0 679 687 678 688 81 1
 682 3350 323 207 689 0 679 690 691 82 255 1 683 255656931 14 207 3061 682 ?291
 200 194 5 240 +0 0 291 200 21 81 1 689 3203 686 207 0 682 692 687 693 81 1 690
 3351 323 200 692 0 682 694 695 82 1 691 318374886 14 200 3070 690 ?207 245 198
 5 239 +0 0 207 245 21 81 1 692 3202 686 200 0 690 696 689 697 81 1 694 3352 323
 245 696 0 690 698 699 82 1 695 321389542 14 245 3080 694 ?200 259 590 5 223 +23
8 238 200 259 21 81 1 696 3201 686 245 0 694 700 692 701 81 1 698 3353 323 272 7
02 0 694 703 704 82 1 699 322307046 14 272 2672 698 ?267 637 705 5 706 -0 0 267
 637 21 81 1 702 3231 686 272 0 698 707 708 709 81 1 703 3354 323 637 707 0 698
 710 711 82 1 704 240059363 14 637 2641 703 ?272 630 712 5 644 +0 0 272 630 21 8
1 1 707 3230 686 637 0 703 713 702 714 81 1 710 3355 323 233 715 0 703 716 717 8
2 1 711 250479587 14 233 1777 710 ?238 518 718 5 222 -0 0 238 518 21 81 1 715 32
08 686 233 0 710 719 720 721 81 1 716 3356 323 243 722 0 710 723 724 82 1 717 10
0991963 14 243 1303 716 ?360 238 597 5 229 +264 264 360 238 21 81 1 722 3210 686
 243 0 716 720 725 726 81 1 723 3357 323 338 727 0 716 728 729 82 1 724 -7076904
 14 338 1515 723 ?533 535 604 5 337 +0 0 533 535 21 81 1 727 3217 686 338 0 723
 730 731 732 81 1 728 3358 323 533 731 0 723 733 734 82 1 729 -29228072 14 533 1
511 728 ?529 338 620 5 339 +0 0 529 338 21 81 1 731 3218 686 533 0 728 727 735 7
36 81 1 733 3359 323 191 737 0 728 0 738 82 1 734 -29359144 14 191 3112 733 ?0 1
6 26 5 739 +0 0 0 16 21 81 1 737 3236 686 191 0 733 740 0 741 82 1 738 320668646
 80 1 686 0 742 8001 0 0 0 0 3 5 0 0 0 FFFFTFTFFFFFFF2 81 1 740 3235 686 16 0 32
5 324 737 743 83 255 3 741 .752941176470588 1 .752941176470588 81 1 325 3327 323
 16 740 0 321 328 744 81 1 324 3234 686 319 0 321 745 740 746 83 3 743 .75294117
6470588 1 .752941176470588 81 1 745 3233 686 271 0 328 708 324 747 83 3 746 .752
941176470588 1 .752941176470588 81 1 328 3328 323 271 745 0 325 331 748 81 1 708
 3232 686 267 0 270 702 745 749 83 3 747 .752941176470588 1 .752941176470588 81
 1 270 3324 323 267 708 0 262 294 750 83 3 749 .752941176470588 1 .7529411764705
88 81 1 262 3323 323 259 700 0 242 270 751 81 1 294 3325 323 291 687 0 270 321 7
52 82 1 750 260506594 81 1 687 3204 686 291 0 294 689 681 753 82 1 752 256377827
 83 3 753 .752941176470588 1 .752941176470588 81 1 700 3200 686 259 0 262 334 69
6 754 81 1 242 3322 323 238 720 0 0 262 755 82 1 751 323027942 81 1 720 3209 686
 238 0 242 715 722 756 82 1 755 97780699 83 3 756 .752941176470588 1 .7529411764
70588 81 1 334 3199 686 14 0 331 0 700 757 83 3 754 .752941176470588 1 .75294117
6470588 83 3 757 .752941176470588 1 .752941176470588 82 1 748 269812707 82 1 744
 273744867 79 255 15 742 SDL/TYSA_COLOUR50 739 3123 0 191 0 706 0 +-.0465 0 0 -1
 0 0 0 0 1 50 706 2681 0 272 739 638 0 +0 .015 0 0 -1 0 0 0 -1 50 638 2678 0 630
 706 644 0 +.02263 .0878470837551172 .00509077871897084 1 0 0 0 0 -1 50 644 2677
 0 637 638 642 0 +.02263 .0878470837551172 .00509077871897084 .1021543889344506
 0 .994768556409695 .994768556409695 0 -.1021543889344506 81 1 735 3219 686 529
 0 532 731 758 759 83 3 736 .752941176470588 1 .752941176470588 81 1 532 3335 32
3 529 735 0 528 538 760 81 1 758 3220 686 526 0 528 735 671 761 83 3 759 .752941
176470588 1 .752941176470588 81 1 528 3334 323 526 758 0 522 532 762 81 1 671 32
21 686 524 0 663 758 662 763 83 3 761 .752941176470588 1 .752941176470588 81 1 6
62 3222 686 656 0 660 671 764 765 83 3 763 .752941176470588 1 .752941176470588 8
1 1 764 3223 686 653 0 655 662 766 767 83 3 765 .752941176470588 1 .752941176470
588 81 1 655 3344 323 653 764 0 651 658 768 81 1 766 3224 686 648 0 658 764 769
 770 83 3 767 .752941176470588 1 .752941176470588 81 1 658 3345 323 648 766 0 65
5 660 771 81 1 769 3225 686 645 0 647 766 772 773 83 3 770 .752941176470588 1 .7
52941176470588 81 1 647 3342 323 645 769 0 639 651 774 81 1 772 3226 686 640 0 6
51 769 775 776 83 3 773 .752941176470588 1 .752941176470588 81 1 651 3343 323 64
0 772 0 647 655 777 81 1 775 3227 686 631 0 639 772 634 778 83 3 776 .7529411764
70588 1 .752941176470588 81 1 639 3341 323 631 775 0 635 647 779 81 1 634 3228 6
86 628 0 629 775 713 780 83 3 778 .752941176470588 1 .752941176470588 81 1 713 3
229 686 630 0 635 634 707 781 83 3 780 .752941176470588 1 .752941176470588 81 1
 635 3340 323 630 713 0 629 639 782 83 3 781 .752941176470588 1 .752941176470588
 82 1 782 253625315 82 1 779 197657567 82 1 777 154862559 82 1 774 150930399 82
 1 771 146998239 82 1 768 143066079 81 1 522 3333 323 518 719 0 368 528 783 82 1
 762 81003483 81 1 719 3207 686 518 0 522 678 715 784 81 1 368 3332 323 264 785
 0 365 522 786 82 1 783 246023139 81 1 785 3213 686 264 0 368 367 787 788 82 1 7
86 1121584088 81 1 367 3212 686 362 0 365 725 785 789 81 1 787 3214 686 370 0 62
4 785 623 790 83 3 788 .752941176470588 1 .752941176470588 81 1 624 3338 323 370
 787 0 621 629 791 81 1 623 3215 686 539 0 621 787 730 792 83 3 790 .75294117647
0588 1 .752941176470588 81 1 730 3216 686 535 0 538 623 727 793 83 3 792 .752941
176470588 1 .752941176470588 81 1 538 3336 323 535 730 0 532 621 794 83 3 793 .7
52941176470588 1 .752941176470588 82 1 794 -41942051 82 1 791 1183908805 81 1 72
5 3211 686 360 0 335 722 367 795 83 3 789 .752941176470588 1 .752941176470588 81
 1 335 3330 323 360 725 0 331 365 796 83 3 795 .752941176470588 1 .7529411764705
88 82 1 796 -1567554599 81 1 678 3206 686 298 0 672 681 719 797 83 3 784 .752941
176470588 1 .752941176470588 83 3 797 .752941176470588 1 .752941176470588 82 1 7
60 100205539 51 339 1539 0 533 536 337 0 +-.0245 0 3469446951953615e-33 1 0 0 .0
154617650335823 0 0 -1 83 3 732 .752941176470588 1 .752941176470588 83 3 726 .75
2941176470588 1 .752941176470588 83 3 721 .752941176470588 1 .752941176470588 15
 718 1776 0 798 233 0 17 798 0 718 126 213 153 162 510 0 799 -17 126 0 718 800 7
98 124 799 394 0 801 +17 213 0 718 798 800 160 138 211 0 0 +17 162 0 566 165 159
 160 798 510 0 509 +17 799 0 33 438 556 153 126 394 0 0 -17 438 0 33 436 799 174
 159 516 0 0 -17 556 0 33 799 34 124 802 384 0 0 -16 394 1773 0 ?126 418 256 803
 0 0 1 16 418 1026 0 ?132 391 394 257 0 0 1 30 803 388 0 394 257 395 0 +.1738441
32755253 -.0083827291962604 -.01164034985127622 -.978254211939102 .1353926090744
63 -.157122685285788 38 257 391 0 418 250 803 0 +234 292 804 805 806 30 395 387
 0 256 803 807 0 +.1744433929630345 -.003446360874048175 -.011117707534938 -.978
254211939102 .135392609074463 -.157122685285788 32 807 386 0 1 395 237 808 +.123
6168067864906 .0522894891726189 .353358905490914 -.978254211939102 .135392609074
463 -.157122685285788 -.15563910780478 .0215408066968 .987579091399055 .55088334
7995005 .064979390923556 32 237 385 0 1 807 809 810 +.1177792044324698 .05309742
66226233 .390400328498582 .978254211939102 -.135392609074463 .157122685285788 -.
15563910780478 .02154080669680005 .987579091399055 .607659056862024 .07167636405
74503 141 808 234 811 811 807 67 234 371 0 370 240 222 812 +807 -.97825421193910
2 .135392609074463 -.157122685285788 .00766463764091593 141 811 13 808 808 807 6
7 13 950 0 1 813 3 0 -807 -.978254211939102 .135392609074463 -.157122685285788 .
00766463764091593 50 813 951 0 1 0 13 0 +.047 0 0 1 0 0 0 0 -1 141 812 257 814 8
14 234 141 814 341 812 812 234 31 809 240 0 384 237 385 0 -154308304346805e-32 .
0693983365376622 -.03499880640693775 .978254211939102 -.135392609074463 .1571226
85285788 .158582912410205 0 -.987345663833846 .053514 141 810 222 810 810 237 16
 384 207 0 ?802 375 391 809 0 0 1 31 385 239 0 375 809 405 0 +154308304346805e-3
2 .0693983365376622 -.03499880640693775 .978254211939102 -.135392609074463 .1571
22685285788 .158582912410205 0 -.987345663833846 .048514 31 405 105 0 377 385 40
2 0 +0 .0693983365376622 -.04006990027390435 0 -1197396013614936e-31 1 0 -1 -119
7396013614936e-31 .0482482352318965 16 377 1076 0 ?129 815 398 405 0 0 1 17 129
 0 363 397 112 127 373 377 0 372 +16 815 1295 0 ?801 404 377 402 404 404 1 17 80
1 0 263 802 94 124 816 815 0 400 +16 404 522 0 ?599 410 815 402 815 815 1 17 802
 0 263 412 801 116 556 384 0 0 +17 94 0 263 801 91 92 588 579 0 816 -17 816 0 37
1 573 400 92 801 815 0 575 -17 400 0 371 816 572 124 800 398 0 556 +15 371 1298
 0 573 264 0 17 572 0 371 400 573 136 144 227 0 800 -17 800 0 718 213 126 136 40
0 398 0 0 -17 573 0 371 572 816 142 575 576 0 570 -16 227 627 0 ?144 249 214 221
 214 214 1 17 412 0 263 817 802 181 553 410 0 0 +17 817 0 263 593 412 183 28 818
 0 255 +17 553 0 332 38 29 116 412 410 0 802 -17 38 0 332 46 553 25 34 554 0 819
 -17 46 0 332 382 38 44 819 820 0 381 +17 819 0 327 36 444 25 46 820 0 0 -15 327
 3016 0 444 16 0 17 36 0 327 446 819 32 31 37 0 445 -17 444 0 327 819 446 44 43
 305 0 0 -16 820 2903 0 ?46 23 37 821 0 0 1 16 23 2908 0 ?67 10 820 19 0 0 1 16
 37 2898 0 ?31 820 317 318 0 0 1 30 821 2905 0 820 318 19 0 -.01663 .08420269740
21122 .01395602405097352 0 .579433386409178 .815019601429556 38 318 2900 0 37 31
3 821 0 +6 235 822 823 824 31 19 2958 0 23 821 7 0 +.041 .015 -.0028272199692405
 0 -1 0 0 0 -1 .006 40 6 822 0 1 6 .000364379289115576 .350330244248373 ??.02263
 .0813736248462828 .02033164979119255 .0222975163249259 .0833047224926206 .01964
87396253571 .0213074050955867 .0849800907798467 .0189189442177292 .0198154164008
0005 .086161050316317 .0182904298571262 .0180090339319862 .0867739694192159 .017
8499403187047 .01663 .0868481789106825 .01767710629317215 41 1 823 L?.02263 .081
3736248462828 .02033164979119255 41 1 824 L?.01663 .0868481789106825 .0176771062
9317215 16 317 2890 0 ?445 37 310 313 0 0 1 17 445 0 431 73 432 32 446 317 0 35
 +15 431 2640 0 432 630 0 17 73 0 431 76 445 71 35 437 0 435 +17 446 0 327 444 3
6 39 445 317 0 0 -17 67 0 705 825 55 65 826 23 0 827 +15 705 2674 0 828 272 0 17
 825 0 705 828 67 83 827 829 0 427 +17 55 0 705 67 830 53 561 831 0 826 +17 826
 0 322 832 833 53 67 23 0 834 -17 827 0 712 49 427 65 825 829 0 833 -15 712 2644
 0 827 637 0 17 49 0 712 82 827 47 833 311 0 389 +17 427 0 712 827 180 83 835 42
5 0 0 +16 829 2815 0 ?825 831 30 836 0 0 1 17 833 0 322 826 330 65 49 311 0 0 -1
7 330 0 322 833 832 47 61 310 0 0 -16 311 2866 0 ?49 305 837 306 0 0 1 16 837 28
58 0 ?64 311 838 312 0 0 1 17 64 0 566 85 567 62 839 837 0 828 +16 838 2853 0 ?5
2 837 840 841 0 0 1 31 312 2860 0 837 841 306 0 -.04 .009 .00946176503358229 1 0
 0 0 0 -1 .006 30 841 2855 0 838 842 312 0 -.04 .009 .0154617650335823 1 0 0 31
 842 2845 0 840 290 841 0 +.047 .009 .00946176503358229 1 0 0 0 0 -1 .006 16 840
 2843 0 ?58 838 843 842 0 0 1 30 290 2838 0 843 283 842 0 +.047 0 -.002827219969
2405 0 -1 0 16 843 2836 0 ?834 840 289 290 0 0 1 17 834 0 559 561 390 53 832 843
 0 0 +16 289 2820 0 ?830 843 282 283 0 0 1 17 830 0 705 55 828 68 844 289 0 561
 +17 828 0 705 830 825 62 85 416 0 844 -17 844 0 329 839 70 62 830 289 0 0 -17 5
61 0 559 58 834 68 55 831 0 0 -17 58 0 559 173 561 56 70 840 0 845 +16 831 2812
 0 ?55 439 829 846 0 0 1 16 439 2748 0 ?180 442 831 847 0 0 1 30 846 2688 0 831
 836 847 0 +.047 .015 0 0 0 -1 30 836 2697 0 829 848 846 0 +.02263 .015 .0050907
7871897084 -.994768556409695 0 .1021543889344506 32 847 2687 0 439 846 453 0 +.1
610800133793505 .0471044961278677 -.00912687665785347 .1021543889344506 0 .99476
8556409695 -.984961898968834 .1400688249728678 .101147327450746 .208848432777392
 .053514 32 453 2685 0 442 847 451 0 -.1610800133793505 .0471044961278677 -.0091
2687665785347 .1021543889344506 0 .994768556409695 -.984961898968834 .1400688249
728678 .101147327450746 .1893349939784425 .048514 16 442 2864 0 ?82 437 439 453
 0 0 1 17 82 0 712 429 49 80 389 442 0 288 +17 429 0 712 180 82 77 440 428 0 436
 +17 180 0 712 427 429 174 436 439 0 835 +17 835 0 566 159 85 174 427 425 0 438
 -17 159 0 566 162 835 153 438 516 0 798 +17 85 0 566 835 64 83 828 416 0 825 +3
0 848 3124 0 30 849 836 0 +-.0465 .0493415006941217 -.035079049372013 0 -.579433
386409178 -.815019601429556 16 30 3094 0 ?24 829 818 848 0 0 1 31 849 3125 0 818
 850 848 0 --.0465 .0693983365376622 -.03499880640693775 -1 0 0 0 0 1 .026485811
22034965 16 818 3098 0 ?817 30 205 849 0 0 1 31 850 3126 0 205 206 849 0 +-.0465
 0 3469446951953615e-33 -1 0 0 0 0 1 .0555402625992995 16 205 3099 0 ?193 818 19
2 850 0 0 1 30 206 3127 0 192 0 850 0 +-.0465 -.0154617650335823 -.0585325312765
34 0 3343817056956005e-31 -1 17 193 0 590 103 255 186 185 205 0 199 +17 255 0 59
0 193 135 183 593 249 0 0 +17 185 0 26 28 188 183 193 205 0 817 -17 28 0 26 24 1
85 181 817 818 0 29 -17 593 0 263 599 817 133 255 249 0 598 -17 173 0 559 501 58
 171 845 486 0 507 +17 70 0 329 844 851 68 58 840 0 830 -17 845 0 534 52 507 56
 173 486 0 851 -15 534 2530 0 845 529 0 17 52 0 534 178 845 50 851 838 0 567 +17
 507 0 534 845 178 171 563 498 0 562 +17 851 0 329 70 839 56 52 838 0 0 -15 329
 2974 0 839 271 0 17 839 0 329 851 844 50 64 837 0 0 -17 178 0 534 507 52 170 56
7 489 0 563 +17 567 0 566 64 564 50 178 489 0 839 -17 390 0 559 834 132 59 386 3
91 0 832 +17 832 0 322 330 826 59 834 843 0 0 -17 132 0 559 390 123 130 393 418
 0 387 +17 393 0 392 396 387 121 132 418 0 208 -17 208 0 194 202 120 121 396 344
 0 0 -17 61 0 296 386 389 59 330 310 0 390 +17 382 0 332 379 46 113 381 555 0 0
 -17 381 0 296 43 374 44 382 555 0 444 +15 363 1335 0 397 360 0 17 112 0 363 129
 397 110 120 351 0 373 -40 3 804 -.079998111913419 1.00049630768221 3 .006797344
04286556 .0828355168969838 ??.047 .03008131237819765 -.141248014356435 .047 .017
69744900010155 -.0622544062283706 .047 .01419209472571306 -.03158707825667675 41
 1 805 L?.047 .03008131237819765 -.141248014356435 41 1 806 L?.047 .014192094725
71306 -.03158707825667675 17 138 0 244 144 509 136 213 211 0 572 -83 3 714 .7529
41176470588 1 .752941176470588 83 3 709 .752941176470588 1 .752941176470588 83 3
 701 .752941176470588 1 .752941176470588 83 3 697 .752941176470588 1 .7529411764
70588 83 3 693 .752941176470588 1 .752941176470588 83 3 688 .752941176470588 1 .
752941176470588 79 14 685 SWEntUnchanged82 1 680 254804963 17 485 0 523 485 485
 0 674 483 0 0 +15 523 1885 0 485 518 566 82 1 673 86770651 82 1 664 139068383 1
5 659 2289 0 460 648 852 17 460 0 659 460 460 0 853 458 0 0 +15 852 2176 0 479 6
48 0 17 479 0 852 479 479 0 854 471 0 0 +17 854 0 855 854 854 0 479 471 0 0 -15
 855 2074 0 854 535 856 15 856 2068 0 857 535 669 17 857 0 856 857 857 0 476 474
 0 0 -17 476 0 858 476 476 0 857 474 0 0 +15 858 2200 0 476 653 0 17 853 0 859 8
53 853 0 460 458 0 0 -15 859 2332 0 853 631 670 15 657 2294 0 463 653 858 17 463
 0 657 463 463 0 860 461 0 0 +17 860 0 641 860 860 0 463 461 0 0 -15 641 2328 0
 860 631 861 15 861 2329 0 862 631 863 17 862 0 861 862 862 0 457 422 0 0 -15 86
3 2330 0 864 631 865 17 864 0 863 864 864 0 454 423 0 0 -15 865 2331 0 866 631 8
59 17 866 0 865 866 866 0 421 419 0 0 -17 421 0 652 421 421 0 866 419 0 0 +15 65
2 2278 0 421 640 867 15 867 2128 0 473 640 0 17 473 0 867 473 473 0 868 467 0 0
 +17 868 0 540 868 868 0 473 467 0 0 -15 540 2086 0 868 535 869 15 869 2080 0 87
0 535 855 17 870 0 869 870 870 0 470 468 0 0 -17 470 0 871 470 470 0 870 468 0 0
 +15 871 2152 0 470 645 0 17 454 0 632 454 454 0 864 423 0 0 +17 457 0 649 457 4
57 0 862 422 0 0 +15 649 2284 0 457 645 871 82 1 636 190383071 82 1 625 -3145628
9 17 606 0 620 619 608 149 605 582 0 602 -141 541 580 541 541 536 82 1 369 11223
70521 40 2 357 0 1 2 .000707538049476969 .2064623736464915 ??-.04417387042970145
 .0493416428823338 -.035078849372013 -.04184611774076885 .045381829619699 -.0400
7010027390435 41 1 358 L?-.04417387042970145 .0493416428823338 -.035078849372013
 41 1 359 L?-.04184611774076885 .045381829619699 -.04007010027390435 40 2 347 0
 1 2 .000393933779092733 .01397707242701738 ??.0519435429544422 .016616214790219
6 -.0582153313280741 -.00305357746101387 .0229278635711153 -.0560306743459014 41
 1 348 L?.0519435429544422 .0166162147902196 -.0582153313280741 41 1 349 L?-.003
05357746101387 .0229278635711153 -.0560306743459014 82 1 336 323421158 82 1 326
 271778787 141 300 257 300 300 292 141 297 274 872 872 235 141 872 318 297 297 2
35 40 5 279 0 1 5 .000602183734602087 .3564063884495795 ??.0280170736663933 .023
55223609721745 .00453757142769753 .0261500833467036 .0244864590643794 .005042666
18864784 .02441101885262275 .02604146462115995 .00624001374957005 .0230318956130
0555 .02852383101158695 .00834719520891652 .02263 .0310620014298934 .01050618276
61557 41 1 280 L?.0280170736663933 .02355223609721745 .00453757142769753 41 1 28
1 L?.02263 .0310620014298934 .0105061827661557 141 266 221 873 874 229 141 873 5
42 874 266 229 141 874 580 266 873 229 141 258 414 258 258 250 141 236 508 875 8
75 222 141 875 215 236 236 222 40 4 230 0 1 4 .003222006270663265 .3757996311778
755 ??2250000003497415e-22 .01745285678600545 -.0527268295994205 -.0166991254391
423 .02010444249703555 -.0517738559649804 -.03152798221950825 .02752323446303825
 -.0482409818960163 -.0429044636252174 .03790757869149685 -.0405923175902426 41
 1 231 L?2250000003497415e-22 .01745285678600545 -.0527268295994205 41 1 232 L?-
.0429044636252174 .03790757869149685 -.0405923175902426 19 15 40 0 1 0 9 5 S0 14
1 18 304 876 876 6 141 876 318 18 18 6 74 4 CI16 index_map_offset0 0 1 dCCZ20 12
 2 0 0 733 737 0 0 0 0 0 0 0 0 0 0 0 0 0 0 0 0 0 0 1 0 
