**ABCDEFGHIJKLMNOPQRSTUVWXYZabcdefghijklmnopqrstuvwxyz**************************
**PARASOLID !"#$%&'()*+,-./:;<=>?@[\]^_`{|}~0123456789**************************
**PART1;
MC=AMD64;
MC_MODEL=Intel64 Family 6 Model 26 Stepping 5, GenuineIntel;
MC_ID=unknown;
OS=Windows_NT;
OS_RELEASE=unknown;
FRU=Parasolid Version 28.0, build 224,  7-29-2016;
APPL=SOLIDWORKS 2016-2016286;
SITE=;
USER=unknown;
FORMAT=text;
GUISE=transmit;
KEY=8699-16-319 rA.01 Shooter Totter;
FILE=8699-16-319 rA.01 Shooter Totter.x_t;
DATE=Wed Feb 01 00:42:11 2017;
**PART2;
SCH=SCH_2800224_28002;
USFLD_SIZE=0;
**PART3;
**END_OF_HEADER*****************************************************************
T51 : TRANSMIT FILE created by modeller version 280022423 SCH_2800224_28002_1300
6200 0 12 30 CCCCCCCCCCCCCDI5 owner1040 0 CCCCCCCCCA13 boundary_mesh1006 0 A16 i
ndex_map_offset0 0 1 dA9 index_map82 0 A17 node_id_index_map82 0 A20 schema_embe
dding_map82 0 A5 child12 0 A14 lowest_node_id0 0 1 dZ1 3274 0 2 3 0 0 0 1e3 1e-8
 0 4 0 1 0 1 1 5 6 7 8 9 10 11 0 0 0 0 0 0 0 70 11 CI9 list_type0 0 1 uI10 notra
nsmit0 0 1 lCCCDCCDI12 finger_index0 0 1 dI12 finger_block1012 0 CZ2 0 4 T1 0 0
 2 20 1 12 12 51 255 3 1647 0 1 13 0 0 +-.0485 0 3469446951953615e-33 1 0 0 .060
5402625992995 0 0 -1 13 255 5 203 0 1 0 14 0 0 15 0 51 6 2991 0 16 17 0 18 +.016
63 .0767537742144406 .0138334587843506 0 -.579433386409178 -.815019601429556 .00
6 0 .815019601429556 -.579433386409178 31 255 7 2922 0 10 19 0 0 +.041 .015 -.00
28272199692405 0 -1 0 0 0 -1 .006 29 255 8 2861 0 11 20 0 .01663 .08804084407559
62 .01935468564939585 19 8 CCCCCCCA5 owner12 0 Z9 233 0 1 15 0 21 V0 16 255 10 2
872 0 ?22 0 23 7 0 0 1 18 255 11 2859 0 24 0 25 8 ?1 17 255 24 0 26 27 28 11 29
 30 0 31 +18 25 2851 0 29 11 32 20 ?1 17 29 0 33 34 35 25 24 30 0 36 -18 32 2838
 0 37 25 38 39 ?1 29 20 2853 0 25 39 8 .02263 .0825970269829693 .022052463167186
3 29 39 2840 0 32 40 20 .02263 .0782901073977643 .0159944348138733 29 40 2837 0
 38 41 39 .01663 .0838542578457938 .01346591582632874 18 38 2835 0 42 32 43 40 ?
1 29 41 2829 0 43 44 40 .0416129263336067 .0253419473874861 .00314139136921767 1
8 43 2827 0 45 38 46 41 ?1 29 44 2816 0 46 47 41 .04 .009 .01425302889239906 18
 46 2814 0 48 43 49 44 ?1 29 47 2798 0 49 50 44 .047 .015 -.0028272199692405 18
 49 2796 0 51 46 52 47 ?1 29 50 2795 0 52 53 47 .047 .009 .01425302889239906 18
 52 2793 0 54 49 55 50 ?1 29 53 2792 0 55 56 50 .047 .01998658526980815 -.002827
219969240495 18 55 2789 0 57 52 58 53 ?1 29 56 2783 0 58 59 53 .04 .015 .0082530
2889239904 18 58 2781 0 60 55 61 56 ?1 29 59 2780 0 61 62 56 .0416129263336067 .
015 .003141391369217675 18 61 2778 0 22 58 63 59 ?1 29 62 2777 0 63 64 59 .047 .
015 .00825302889239906 18 63 2775 0 65 61 66 62 ?1 29 64 2723 0 66 67 62 .02263
 .0279636484054911 .0105061827661557 18 66 2721 0 68 63 69 64 ?1 29 67 2720 0 69
 70 64 .02263 .0397344599466369 .0105061827661557 18 69 2718 0 71 66 72 67 ?1 29
 70 2712 0 72 73 67 .0280170736663933 .02093991245212325 .00453757142769753 18 7
2 2710 0 74 69 75 70 ?1 29 73 2709 0 75 76 70 .02801707366639335 .03043167753085
38 .00453757142769752 18 75 2707 0 77 72 78 73 ?1 29 76 2482 0 78 79 73 .04 .015
 .003307025378198165 18 78 2480 0 80 75 81 76 ?1 29 79 1260 0 81 82 76 -.0245 .0
563160786762981 .01306790478957308 18 81 1258 0 83 78 84 79 ?1 29 82 1257 0 84 8
5 79 -.0175 .0482161311862402 .0132388176271105 18 84 1255 0 86 81 87 82 ?1 29 8
5 1254 0 87 88 82 -.0175 .01703535545250635 -.0408015995167779 18 87 1252 0 89 8
4 90 85 ?1 29 88 1251 0 90 91 85 -.0245 .01992226365263635 -.0408015995167779 18
 90 1249 0 92 87 93 88 ?1 29 91 1230 0 93 94 88 -.0175 -.01425302889239926 -.051
6082443665194 18 93 1228 0 95 90 96 91 ?1 29 94 1227 0 96 97 91 -.0245 -.0142530
2889239926 -.0516082443665194 18 96 1225 0 98 93 99 94 ?1 29 97 1224 0 99 100 94
 -.0245 .0209191728775166 -.0492843578158681 18 99 1222 0 101 96 102 97 ?1 29 10
0 1044 0 102 103 97 -.04417380550747045 .0493415006941217 -.035079049372013 18 1
02 1042 0 104 99 105 100 ?1 29 103 1041 0 105 106 100 -.0418462433269482 .045382
006209857 -.04006990027390435 18 105 1039 0 107 102 108 103 ?1 29 106 1034 0 108
 109 103 -.0517640907677497 .0493415006941217 -.035079049372013 18 108 1032 0 11
0 105 111 106 ?1 29 109 1027 0 111 112 106 -.0493900119824342 .04472530461008185
 -.0408015995167779 18 111 1025 0 113 108 114 109 ?1 29 112 1020 0 114 115 109 -
.00565497213832477 .0823862333314493 .01140102142667292 18 114 1018 0 116 111 11
7 112 ?1 29 115 1013 0 117 118 112 -.0060292607488786 .0866630267574513 .0174166
749171593 18 117 1011 0 27 114 119 115 ?1 29 118 1006 0 119 120 115 -.0030535774
61013655 .02292786357111535 -.056030674345902 18 119 1003 0 121 117 122 118 ?1 2
9 120 985 0 122 123 118 .047 .0171843211085144 -.0580501722963425 18 122 983 0 1
24 119 125 120 ?1 29 123 190 0 125 126 120 -.0066534662349572 .01459082632980206
 -.0408015995167779 18 125 188 0 127 122 128 123 ?1 29 126 173 0 128 129 123 -.0
0581450194406302 .0215017419808994 -.04006990027390435 18 128 171 0 130 125 131
 126 ?1 29 129 400 0 131 132 126 .047 .01419209472571304 -.03158707825667655 18
 131 330 0 133 128 134 129 ?1 29 132 813 0 134 135 129 -.0485 .0430187651210426
 -.0408015995167659 18 134 678 0 136 131 137 132 ?1 29 135 819 0 137 138 132 -.0
485 .04334273493375545 -.04226737186121645 18 137 679 0 139 134 140 135 ?1 29 13
8 823 0 140 141 135 -.04291683044854645 .0346668313532463 -.0408015995167779 18
 140 668 0 142 137 143 138 ?1 29 141 824 0 143 144 138 -.00484949953014101 .0155
0397649247965 -.0512463309137601 18 143 669 0 145 140 146 141 ?1 29 144 827 0 14
6 147 141 -.0485 .04249794281866115 -.032565082149194 18 146 658 0 148 143 149 1
44 ?1 29 147 831 0 149 150 144 -.0485 -.01425302889239906 -.0588385465743723 18
 149 667 0 151 146 152 147 ?1 29 150 832 0 152 153 147 -.0485 -.0142530288923992
6 -.0516082443665194 18 152 670 0 154 149 155 150 ?1 29 153 837 0 155 156 150 .0
47 -.01425302889239906 -.0588385465743723 18 155 671 0 157 152 158 153 ?1 29 156
 1559 0 158 159 153 -.0175 .01809885695113775 -.0503884023984111 18 158 1406 0 1
60 155 161 156 ?1 29 159 1566 0 162 163 156 -.0175 -.01425302889239906 608768588
36383e-31 18 162 1412 0 164 165 166 159 ?1 29 163 1567 0 166 167 159 -.0175 .000
3006789240290095 .01424985700953546 18 166 1421 0 168 162 169 163 ?1 29 167 1573
 0 161 170 163 -.0245 -.01425302889239906 60876858836383e-31 18 161 1413 0 171 1
58 165 167 ?1 29 170 1574 0 165 172 167 -.0245 .0003006789240290095 .01424985700
953546 18 165 1415 0 173 161 162 170 ?1 29 172 1925 0 169 174 170 .04 .008133880
43697765 -.03330833467491625 18 169 1819 0 175 166 176 172 ?1 29 174 1926 0 176
 177 172 .04 .0102569140524829 -.0525486006790088 18 176 1820 0 178 169 179 174
 ?1 29 177 1928 0 179 180 174 .04 -.01425302889239906 -.0516082443665194 18 179
 1817 0 181 176 182 177 ?1 29 180 1934 0 183 184 177 .047 -.01425302889239906 25
98768396671015e-33 18 183 1825 0 185 186 187 180 ?1 29 184 1935 0 187 188 180 .0
47 1745492621123125e-33 .01425302889239906 18 187 1821 0 189 183 190 184 ?1 29 1
88 1940 0 182 191 184 .04 -.01425302889239906 2598768396671015e-33 18 182 1824 0
 192 179 186 188 ?1 29 191 1941 0 186 193 188 .04 1745492621123125e-33 .01425302
889239906 18 186 1816 0 194 182 183 191 ?1 29 193 2668 0 190 0 191 .04 .01701945
282083235 .003307025378198215 18 190 2585 0 195 187 0 193 ?1 17 195 0 196 197 19
8 190 199 200 0 201 +15 255 196 2607 0 202 203 0 17 197 0 196 202 195 78 201 204
 0 0 +17 198 0 196 195 77 72 205 206 0 199 +17 199 0 26 207 208 72 195 200 0 0 -
16 200 2711 0 ?195 209 210 211 0 0 1 17 201 0 212 175 80 190 197 204 0 208 -15 2
12 2485 0 213 214 0 17 175 0 212 178 201 169 208 215 0 216 +17 80 0 212 201 60 7
8 217 218 0 219 +16 204 2484 0 ?197 206 218 220 0 0 1 17 208 0 26 199 221 190 17
5 215 0 0 -15 26 2524 0 28 222 0 17 221 0 26 208 223 169 127 224 0 0 -16 215 247
8 0 ?175 225 226 227 0 0 1 16 225 1382 0 ?168 228 215 229 0 0 1 16 226 1759 0 ?1
78 215 230 231 0 0 1 32 255 227 1899 0 215 231 232 0 +.04 .0638622455125661 -.02
85741906631695 1 0 0 0 .652779237014283 -.757548194983692 .0567480306473304 .055
514 38 255 231 1900 0 226 233 227 0 +234 235 236 237 238 30 255 232 1547 0 239 2
27 240 0 +-.0245 .07773968184394 .01261585632726496 0 -.999777459030811 .0210957
913787263 16 239 1370 0 ?173 241 242 232 0 0 1 31 240 1546 0 241 232 243 0 +-.02
45 0 3469446951953615e-33 1 0 0 0 0 -1 .01425302889239906 16 241 1365 0 ?244 245
 239 240 0 0 1 30 243 1545 0 245 240 229 0 +-.0245 -.01425302889239926 -.0516082
443665194 0 -383191636702238e-29 -1 16 245 1359 0 ?246 247 241 243 0 0 1 30 229
 1543 0 225 243 248 0 +-.0175 .07773968184394 .01261585632726496 0 -.99977745903
0811 .0210957913787263 31 248 1542 0 228 229 249 0 +-.0175 0 3469446951953615e-3
3 1 0 0 0 0 -1 .01425302889239906 16 228 1385 0 ?250 242 225 248 0 0 1 30 249 15
41 0 242 248 251 0 +-.0175 -.01425302889239926 -.0516082443665194 0 283110393287
4885e-29 -1 16 242 1388 0 ?252 239 228 249 0 0 1 30 251 1539 0 253 249 254 0 +-.
0245 -.01425302889239906 60876858836383e-31 1 0 0 16 253 1368 0 ?255 256 247 251
 0 0 1 30 254 1538 0 247 251 257 0 +-.0245 .0003006789240290095 .014249857009535
46 1 0 0 16 247 1373 0 ?258 253 245 254 0 0 1 31 257 1514 0 256 254 259 0 +-.017
5 0 3469446951953615e-33 1 0 0 0 0 -1 .0535402625992995 16 256 1393 0 ?260 261 2
53 257 0 0 1 38 259 1513 0 261 257 262 0 +263 264 265 266 267 16 261 1380 0 ?268
 269 256 259 0 0 1 31 262 1512 0 269 259 270 0 --.0175 .0693983365376622 -.03499
880640693775 1 0 0 0 0 -1 .0526835286973073 52 255 263 103 0 271 272 273 274 +0
 .0693983365376622 -.0408015995167779 0 -1197396013614936e-31 1 .055209888499474
4 .1045284632676466 .994521895368274 0 -1 -1197396013614936e-31 50 255 264 1500
 0 275 276 277 278 +-.0175 .02805329144874 -.0466471199413265 1 0 0 0 0 -1 40 25
5 2 265 0 1 2 200718879226708e-20 .000308977558531473 ??-.0175 .0184490235869433
5 -.0535404625992995 -.0175 .01703533051831825 -.0408013745167779 41 3 CI8 term_
use0 0 1 cCZ1 266 L?-.0175 .01844902358694335 -.0535404625992995 41 1 267 L?-.01
75 .01703533051831825 -.0408013745167779 14 255 275 1488 279 ?280 281 282 5 264
 +0 0 280 281 21 50 276 1501 0 280 283 264 284 +-.0245 .02805329144874 -.0466471
199413265 1 0 0 0 0 -1 51 277 1497 0 285 264 286 0 +-.0245 0 3469446951953615e-3
3 1 0 0 .01425302889239906 0 0 -1 141 255 278 259 278 278 264 14 285 1469 287 ?2
88 289 290 5 277 +0 0 288 289 21 50 286 1496 0 289 277 291 0 +-.0245 .0777396818
4394 .01261585632726496 0 .02109579137872625 .999777459030811 0 -.99977745903081
1 .02109579137872625 14 289 1473 292 ?285 280 293 5 286 +0 0 285 280 21 50 291 1
124 0 294 286 295 0 +.255308358535732 .0493415006941217 -.035079049372013 0 -.81
5019601429556 .579433386409178 0 -.579433386409178 -.815019601429556 14 294 2505
 296 ?214 297 298 5 291 -0 0 214 297 21 51 295 1123 0 1 291 299 300 -.2553083585
35732 0 3469446951953615e-33 -1 0 0 .0605402625992995 0 0 1 50 299 774 0 301 295
 302 303 +-.0485 0 3469446951953615e-33 1 0 0 0 0 -1 141 300 304 305 306 295 38
 304 1133 0 307 308 309 0 +310 295 311 312 313 141 305 314 315 300 295 141 306 3
09 300 316 295 38 309 1132 0 317 304 318 0 +272 295 319 320 321 141 316 318 306
 315 295 38 318 1131 0 322 309 323 0 +324 295 325 326 327 141 315 323 316 305 29
5 38 323 1130 0 328 318 314 0 +263 295 329 330 331 16 328 1066 0 ?332 333 322 32
3 0 0 1 38 314 1129 0 333 323 334 0 +273 295 335 336 337 40 5 329 0 1 5 .0030909
0077301884 .35543733890894 ??225000000363631e-21 .01603578953628245 -.0583778797
965479 -.01737331919506995 .01884900800420285 -.0575311940850321 -.0327988303800
8245 .02676395225123855 -.0543029856958673 -.04421327989772555 .0375239738172776
 -.047508681149369 -.0493901409555654 .0447255098700257 -.0408013745167779 41 1
 330 L?225000000363631e-21 .01603578953628245 -.0583778797965479 41 1 331 L?-.04
93901409555654 .0447255098700257 -.0408013745167779 16 333 1067 0 ?338 339 328 3
14 0 0 1 32 334 1128 0 339 314 340 0 +.0791785928161384 .0584398391109332 -.0222
8150555753835 0 -.815019601429556 .579433386409178 -.998716732750351 -.029345241
9599345 -.04127643999641795 .2756545319247025 .055514 53 255 273 104 0 341 263 3
42 343 +0 .0693983365376622 -.03499880640693775 .055514 0 -1197396013614936e-31
 1 -698296267768627e-29 -1 -1197396013614936e-31 40 2 335 0 1 2 .000830004065793
443 .2126436235351725 ??-.0493898973373824 .04472512215505735 -.0408017995167779
 -.0517641461702987 .0493416428823338 -.035078849372013 41 1 336 L?-.04938989733
73824 .04472512215505735 -.0408017995167779 41 1 337 L?-.0517641461702987 .04934
16428823338 -.035078849372013 14 341 1264 344 ?345 346 347 5 273 +0 0 345 346 21
 51 342 2757 0 348 273 349 350 +.02863 .0890510559890882 .0105061827661557 0 1 0
 .006 0 0 1 141 343 351 352 352 273 38 351 786 0 353 354 355 0 +273 356 357 358
 359 141 352 314 343 343 273 16 353 618 0 ?148 360 361 351 0 0 1 38 354 787 0 36
1 362 351 0 +263 356 363 364 365 31 355 778 0 360 351 366 0 --.0485 .06939833653
76622 -.03499880640693775 1 0 0 0 0 -1 .027010260939132 51 356 772 0 367 302 368
 369 --.0485 0 3469446951953615e-33 1 0 0 .0535402625992995 0 0 -1 40 2 357 0 1
 2 .002447076994948215 .3760448472104005 ??-.04291661290635285 .0346665959591450
5 -.0408017995167779 -.0485002 .04249835169244345 -.03256454855555865 41 1 358 L
?-.04291661290635285 .03466659595914505 -.0408017995167779 41 1 359 L?-.0485002
 .04249835169244345 -.03256454855555865 14 367 1708 370 ?346 371 372 5 356 +345
 345 346 371 21 50 302 773 0 373 299 356 0 +-.0485 -.01425302889239906 -.0588385
465743723 0 -1 -2831103932874885e-29 0 2831103932874885e-29 -1 51 368 768 0 281
 356 310 0 +-.0485 0 3469446951953615e-33 1 0 0 .0605402625992995 0 0 -1 141 369
 351 374 375 356 141 374 354 375 369 356 141 375 362 369 374 356 38 362 788 0 37
6 377 354 0 +234 356 378 379 380 16 376 612 0 ?381 382 383 362 0 0 1 30 377 796
 0 384 385 362 0 +-.0485 -.01425302889239926 -.0516082443665194 1 0 0 67 255 234
 369 0 371 310 386 387 +388 -.978254211939102 .135392609074463 -.157122685285788
 .00877055476765072 40 2 378 0 1 2 .000374757114498622 .0141958660385596 ??-.004
84949953014101 .01550397649247965 -.0512463309137601 .047 .00943546230545045 -.0
527022937857962 41 1 379 L?-.00484949953014101 .01550397649247965 -.051246330913
7601 41 1 380 L?.047 .00943546230545045 -.0527022937857962 14 371 1737 389 ?367
 214 390 5 234 -0 0 367 214 21 67 310 371 0 391 368 234 392 +393 -.9782542119391
02 .135392609074463 -.157122685285788 .00766463764091593 51 386 368 0 222 234 39
4 395 -.18448653577527 .04386498016374865 -.00536742885056128 -.978254211939102
 .135392609074463 -.157122685285788 .055514 -.158582912410205 0 .987345663833845
 141 387 231 396 396 234 32 388 385 0 1 393 397 398 +.119672804359032 .052835348
0836592 .405896082519073 .978254211939102 -.135392609074463 .157122685285788 -.1
5563910780478 .0215408066968 .987579091399055 .630369340408846 .0743551533110089
 32 393 386 0 1 399 388 400 +.1278454476546632 .0517042356536528 .35403809030832
4 -.978254211939102 .135392609074463 -.157122685285788 -.15563910780478 .0215408
066968 .987579091399055 .550883347995005 .064979390923556 31 397 240 0 401 388 4
02 0 -154308304346805e-32 .0693983365376622 -.03499880640693775 .978254211939102
 -.135392609074463 .157122685285788 .158582912410205 0 -.987345663833846 .055514
 141 398 234 398 398 388 16 401 207 0 ?403 404 405 397 0 0 1 31 402 239 0 404 39
7 406 0 +154308304346805e-32 .0693983365376622 -.03499880640693775 .978254211939
102 -.135392609074463 .157122685285788 .158582912410205 0 -.987345663833846 .048
514 16 404 1019 0 ?407 408 401 402 0 0 1 31 406 105 0 409 402 410 0 +0 .06939833
65376622 -.04006990027390435 0 -1197396013614936e-31 1 0 -1 -1197396013614936e-3
1 .0482482352318965 16 409 1040 0 ?130 411 412 406 0 0 1 31 410 108 0 413 406 41
4 0 +0 .0693983365376622 -.0408015995167779 0 -1197396013614936e-31 1 0 -1 -1197
396013614936e-31 .0552098884994744 16 413 1026 0 ?136 415 416 410 411 416 1 133
 255 414 280 0 408 410 417 0 +417 -.00581450194406302 .0215017419808994 -.040069
90027390435 -.003053577461013655 .02292786357111535 -.056030674345902 2.30492891
9781845 2.345187361539685 16 408 209 0 ?418 412 404 414 0 0 1 32 417 281 0 1 414
 419 420 +-.0566410881206068 .0772375920275664 .3244067127519475 .97825421193910
2 -.135392609074463 .157122685285788 -.15563910780478 .02154080669680005 .987579
091399055 .550883347995005 .064979390923556 32 419 287 0 1 417 421 422 --.064813
7314162381 .0783687044575728 .3762647049626965 .978254211939102 -.13539260907446
3 .157122685285788 -.15563910780478 .02154080669680005 .987579091399055 .6303693
40408846 .0743551533110089 141 420 414 420 420 417 133 421 494 0 412 419 423 0 +
419 -.00484949953014101 .01550397649247965 -.0512463309137601 -.0066534662349572
 .01459082632980206 -.0408015995167779 2.32776497802146 2.30492891978185 141 422
 421 422 422 419 16 412 493 0 ?424 409 408 421 0 0 1 38 423 527 0 415 421 425 0
 +263 299 426 427 428 16 415 525 0 ?429 430 413 423 0 0 1 31 425 1261 0 430 423
 431 0 -0 .0704062941628053 .0127705943794416 0 .02109579137872625 .999777459030
811 0 -.999777459030811 .02109579137872625 .0282643338137692 40 4 426 0 1 4 .005
66159878582218 .281604760002516 ??-.0485 .0611600454637202 -.0980322050624077 -.
0485 .0502602302768821 -.0700153389554791 -.0485 .0454441217930381 -.05142792941
01446 -.0485 .02730194155489585 .04493485349724795 41 1 427 L?-.0485 .0611600454
637202 -.0980322050624077 41 1 428 L?-.0485 .02730194155489585 .0449348534972479
5 16 430 1259 0 ?432 218 415 425 0 0 1 133 431 1721 0 405 425 433 0 +366 .047 .0
1419209472571304 -.03158707825667655 .047 .01998658526980815 -.00282721996924049
5 4.096294335444455 3.487108867587305 16 405 314 0 ?434 401 435 431 0 0 1 31 433
 2241 0 436 431 437 0 --.019 0 .008 -1 0 0 0 0 1 .0018415 32 366 392 0 1 355 438
 439 -.047 .0628934295831743 -.0274498829080101 1 0 0 0 .652779237014283 -.75754
8194983692 .049592426393785 .048514 38 438 391 0 435 366 440 0 +310 441 442 443
 444 141 439 431 439 439 366 16 435 984 0 ?133 405 224 438 0 0 1 30 440 388 0 22
4 438 399 0 +.177833069540313 -.01094253004411154 -.0111702219604014 -.978254211
939102 .135392609074463 -.157122685285788 50 441 365 0 297 394 324 445 +.047 0 0
 1 0 0 0 0 -1 40 3 442 -.0784295625060927 1.000468352616728 3 .00678689506739784
 .0815929905012027 ??.047 .0297718874919025 -.1397117906252602 .047 .01769744900
010155 -.0622544062283706 .047 .01419209472571304 -.03158707825667655 41 1 443 L
?.047 .0297718874919025 -.1397117906252602 41 1 444 L?.047 .01419209472571304 -.
03158707825667655 14 297 2516 446 ?294 222 447 5 441 +0 0 294 222 21 51 394 366
 0 14 386 441 448 +.18448653577527 .04386498016374865 -.00536742885056128 -.9782
54211939102 .135392609074463 -.157122685285788 .048514 -.158582912410205 0 .9873
45663833845 53 324 100 0 449 441 272 450 -0 .0693983365376622 -.0349988064069377
5 .048514 0 -1197396013614936e-31 1 698296267768627e-29 1 1197396013614936e-31 1
41 445 438 445 445 441 14 449 201 451 ?271 452 453 5 324 +0 0 271 452 21 52 272
 101 0 452 324 263 454 -0 .0693983365376622 -.0699055571349526 0 -11973960136149
36e-31 1 .0451123813338671 .104528463267646 .994521895368274 0 -1 -1197396013614
936e-31 141 450 318 450 450 324 14 452 512 455 ?449 456 457 5 272 +0 0 449 456 2
1 141 454 309 454 454 272 81 255 1 455 3245 458 452 459 0 451 460 461 14 456 530
 460 ?452 345 462 5 263 +271 346 452 345 21 15 457 1285 0 418 452 0 13 21 234 0
 0 0 0 0 0 9 14 14 14 2532 463 ?222 0 464 5 394 -0 0 222 0 21 81 1 463 3247 458
 14 465 0 460 466 467 14 222 2525 466 ?297 14 26 5 386 -0 0 297 14 21 15 464 253
1 0 468 14 0 17 468 0 464 57 469 43 77 209 0 470 -17 57 0 464 471 468 55 470 472
 0 434 +17 469 0 464 468 473 75 474 475 0 205 +17 77 0 196 198 45 75 468 209 0 4
69 +16 209 2828 0 ?77 476 200 477 0 0 1 17 470 0 478 479 480 43 57 472 0 0 -15 4
78 2959 0 470 481 0 17 479 0 478 482 470 61 45 483 0 0 -17 480 0 478 470 482 55
 484 485 0 0 -16 472 2846 0 ?57 486 487 488 0 0 1 16 486 2854 0 ?36 30 472 489 0
 0 1 16 487 2841 0 ?37 472 483 490 0 0 1 38 488 2848 0 472 490 489 0 +17 394 491
 492 493 38 490 2843 0 487 494 488 0 +6 394 495 496 497 30 489 2856 0 486 488 49
8 0 +.02263 .0834753582566465 .02328790665626755 0 .579433386409178 .81501960142
9556 51 17 2970 0 481 349 6 499 +.041 0 -.0028272199692405 0 -1 0 .006 0 0 -1 40
 5 491 0 1 5 .000639324012986498 .3934765857651715 ??.0416129263336067 .02534194
73874861 .003141391369217675 .0435532341295589 .0244013255457202 .00260242048659
5925 .0450976265010833 .0232228642614628 .00155563949207243 .0464010493178996 .0
216936593142428 -.0002140482822638205 .047 .01998658526980815 -.0028272199692404
95 41 1 492 L?.0416129263336067 .0253419473874861 .003141391369217675 41 1 493 L
?.047 .01998658526980815 -.002827219969240495 14 481 2958 500 ?16 501 478 5 17 +
0 0 16 501 21 51 349 2949 0 501 342 17 0 +0 .009 .00825302889239906 -1 0 0 .006
 0 0 1 141 499 488 499 499 17 14 501 2937 502 ?481 348 503 5 349 +0 0 481 348 21
 81 1 502 3250 458 501 504 0 500 505 506 14 348 2745 505 ?501 507 508 5 342 -0 0
 501 507 21 15 503 2938 0 509 501 0 17 509 0 503 510 511 46 60 512 0 0 -17 510 0
 503 65 509 52 48 513 0 0 -17 511 0 503 509 65 58 514 515 0 0 -17 60 0 212 80 21
3 58 509 512 0 217 +16 512 2822 0 ?60 483 513 516 0 0 1 16 483 2830 0 ?45 487 51
2 494 0 0 1 16 513 2817 0 ?48 512 517 518 0 0 1 31 516 2824 0 512 518 494 0 -.04
 .009 .00825302889239906 1 0 0 0 0 -1 .006 30 518 2819 0 513 519 516 0 -.04 .009
 .01425302889239906 1 0 0 30 494 2832 0 483 516 490 0 -.0416129263336067 .089051
0559890882 .003141391369217675 0 -1 0 31 519 2809 0 517 520 518 0 +.047 .009 .00
825302889239906 1 0 0 0 0 -1 .006 16 517 2807 0 ?54 513 485 519 0 0 1 30 520 280
2 0 485 521 519 0 +.047 0 -.0028272199692405 0 -1 0 16 485 2800 0 ?484 517 515 5
20 0 0 1 30 521 2786 0 515 522 520 0 +.047 .015 .00825302889239906 1 0 0 16 515
 2784 0 ?514 485 475 521 0 0 1 38 522 2738 0 475 523 521 0 +394 342 524 525 526
 16 475 2733 0 ?469 515 527 522 0 0 1 38 523 2737 0 527 528 522 0 +386 342 529 5
30 531 40 5 524 0 1 5 .001186416158323132 .363924520411333 ??.02263 .03973445994
66369 .0105061827661557 .02363205606787845 .03473374704110475 .00718646042063197
 .02502870792884775 .03256561880736015 .00570715209129479 .026746433961752 .0310
8642281919525 .0048095013655893 .0280170736663933 .0304316775308538 .00453757142
769752 41 1 525 L?.02263 .0397344599466369 .0105061827661557 41 1 526 L?.0280170
736663933 .0304316775308538 .00453757142769752 16 527 2729 0 ?207 475 532 523 0
 0 1 30 528 2726 0 532 533 523 0 -.02263 .03264596655661535 .0105061827661557 0
 -1 0 40 5 529 0 1 5 .00060088619559828 .3549347620277055 ??.0280170736663933 .0
2093991245212325 .00453757142769753 .026136549000881 .0218407314403668 .00504882
973423698 .02465629706879065 .0230375706549101 .0060106644407011 .02320124546025
065 .0251929800382129 .00795106551891428 .02263 .0279636484054911 .0105061827661
557 41 1 530 L?.0280170736663933 .02093991245212325 .00453757142769753 41 1 531
 L?.02263 .0279636484054911 .0105061827661557 16 532 2724 0 ?71 527 206 528 0 0
 1 30 533 2715 0 206 220 528 0 +.0280170736663933 .0228192399501113 .00453757142
769753 0 -1 0 16 206 2713 0 ?198 532 204 533 0 0 1 30 220 2486 0 204 437 533 0 +
.04 .0628934295831743 .003307025378198215 0 -1 0 30 437 2483 0 218 433 220 0 +.0
4 .015 .3410530669129705 0 0 -1 16 218 2782 0 ?80 204 430 437 0 0 1 17 71 0 534
 535 68 69 536 532 0 473 +15 534 2603 0 535 537 0 17 535 0 534 36 71 32 473 538
 0 34 +17 68 0 534 71 36 66 28 476 0 207 +17 536 0 508 74 474 66 71 532 0 0 -17
 473 0 464 469 37 69 535 538 0 474 -17 37 0 464 473 539 32 540 487 0 535 +16 538
 2719 0 ?535 541 476 542 0 0 1 17 474 0 508 536 205 69 469 475 0 0 -15 508 2746
 0 474 348 0 17 205 0 508 474 74 75 198 206 0 0 -17 74 0 508 205 536 72 207 527
 0 198 -17 207 0 26 28 199 66 74 527 0 536 +17 28 0 26 24 207 25 68 476 0 0 -16
 476 2852 0 ?68 538 209 543 0 0 1 32 543 2647 0 476 477 542 0 +.02263 .066266293
0402141 -.03136408004990085 1 0 0 0 .652779237014283 -.757548194983692 .05674803
06473304 .055514 32 477 2648 0 209 211 543 0 -.1610800133793505 .047104496127867
7 -.00912687665785347 .1021543889344506 0 .994768556409695 -.984961898968834 .14
00688249728678 .101147327450746 .1893349939784425 .048514 32 542 2646 0 538 543
 544 0 -.02263 .0662662930402141 -.03136408004990085 1 0 0 0 .652779237014283 -.
757548194983692 .049592426393785 .048514 31 544 2353 0 545 542 546 0 +-.019 2465
19032881566e-49 3691491556878645e-33 -1 0 0 0 0 1 .0112 16 545 2273 0 ?547 436 5
41 544 0 0 1 31 546 2352 0 541 544 548 0 +-.0175 246519032881566e-49 36914915568
78645e-33 -1 0 0 0 0 1 .0112 16 541 2283 0 ?549 545 538 546 0 0 1 31 548 2346 0
 550 546 551 0 --.019 .008 1301042606982604e-33 -1 0 0 0 0 1 .0018415 16 550 227
2 0 ?552 553 436 548 0 0 1 31 551 2345 0 553 548 554 0 --.019 -189016590942494e-
48 -.008 -1 0 0 0 0 1 .0018415 16 553 2277 0 ?555 556 550 551 0 0 1 31 554 2344
 0 556 551 557 0 --.019 -517689969051289e-49 300315328161105e-32 -1 0 0 0 0 1 .0
046 16 556 2271 0 ?558 559 553 554 0 0 1 31 557 2343 0 559 554 560 0 --.019 -.00
8 596311194867027e-32 -1 0 0 0 0 1 .0018415 16 559 2278 0 ?561 562 556 557 0 0 1
 31 560 2198 0 563 557 564 0 +-.0245 .008 1301042606982604e-33 -1 0 0 0 0 1 .001
8415 16 563 2101 0 ?565 566 562 560 0 0 1 31 564 2196 0 562 560 567 0 +-.0245 0
 .008 -1 0 0 0 0 1 .0018415 16 562 2077 0 ?568 563 559 564 0 0 1 31 567 2194 0 5
69 564 570 0 +-.0245 -517689969051289e-49 300315328161105e-32 -1 0 0 0 0 1 .0046
 16 569 2149 0 ?571 572 566 567 0 0 1 31 570 2192 0 566 567 573 0 +-.0245 -18901
6590942494e-48 -.008 -1 0 0 0 0 1 .0018415 16 566 2125 0 ?574 569 563 570 0 0 1
 31 573 2025 0 572 570 575 0 +-.0245 -.008 596311194867027e-32 -1 0 0 0 0 1 .001
8415 16 572 2000 0 ?576 577 569 573 0 0 1 31 575 1924 0 578 573 579 0 +.04 0 346
9446951953615e-33 1 0 0 0 0 -1 .003175 16 578 1755 0 ?580 581 577 575 0 0 1 31 5
79 1923 0 577 575 582 0 +.047 0 3469446951953615e-33 1 0 0 0 0 -1 .003175 16 577
 1812 0 ?583 578 572 579 0 0 1 30 582 1919 0 584 579 585 0 +.04 .036095632316405
 .01425302889239906 0 -1 -1922363859173505e-31 16 584 2815 0 ?194 586 587 582 0
 0 1 31 585 1918 0 586 582 588 0 +.04 0 3469446951953615e-33 1 0 0 0 0 -1 .01425
302889239906 16 586 1778 0 ?589 590 584 585 0 0 1 30 588 1917 0 590 585 591 0 +.
04 -.01425302889239906 2598768396671015e-33 0 589655447652537e-31 -1 16 590 1774
 0 ?592 593 586 588 0 0 1 30 591 1913 0 581 588 594 0 +.047 .036095632316405 .01
425302889239906 0 -1 -1922363859173505e-31 16 581 2794 0 ?189 587 578 591 0 0 1
 31 594 1912 0 587 591 595 0 +.047 0 3469446951953615e-33 1 0 0 0 0 -1 .01425302
889239906 16 587 1763 0 ?596 584 581 594 0 0 1 30 595 1909 0 597 594 598 0 +.04
 -.01425302889239906 2598768396671015e-33 1 0 0 16 597 1781 0 ?599 230 593 595 0
 0 1 30 598 1908 0 593 595 233 0 +.04 1745492621123125e-33 .01425302889239906 1
 0 0 16 593 1750 0 ?600 597 590 598 0 0 1 31 233 1901 0 230 598 231 0 +.04 0 346
9446951953615e-33 1 0 0 0 0 -1 .0535402625992995 16 230 1794 0 ?601 226 597 233
 0 0 1 17 601 0 372 145 602 176 181 230 0 381 +15 372 1232 0 602 367 0 17 145 0
 372 160 601 143 381 376 0 603 -17 602 0 372 601 95 179 604 605 0 0 +17 181 0 21
2 606 178 179 601 230 0 592 -17 381 0 390 216 607 176 145 376 0 0 +15 390 1736 0
 216 371 0 17 216 0 390 127 381 169 178 226 0 221 -17 607 0 390 381 127 143 424
 412 0 0 -17 127 0 390 607 216 125 221 224 0 608 +17 424 0 462 609 603 125 607 4
12 0 223 +15 462 1293 0 610 456 0 17 609 0 462 610 424 87 608 411 0 268 -17 603
 0 462 424 610 143 160 361 0 607 -17 223 0 26 221 27 125 403 401 0 0 -17 27 0 26
 223 24 117 31 339 0 403 +17 403 0 347 110 608 117 223 401 0 611 +15 347 1036 0
 612 341 0 17 110 0 347 113 403 108 611 613 0 338 -17 608 0 347 403 89 125 609 4
11 0 424 +17 611 0 298 31 614 117 110 613 0 0 +15 298 2503 0 31 294 0 17 31 0 29
8 42 611 11 27 339 0 35 -17 614 0 298 611 615 108 616 617 0 0 +16 613 1081 0 ?61
1 618 619 620 0 0 1 16 618 1079 0 ?615 621 613 622 0 0 1 16 619 1054 0 ?539 613
 339 340 0 0 1 31 620 1126 0 613 340 622 0 -0 .0561133386248163 -.02555391536925
33 0 -.815019601429556 .579433386409178 0 -.579433386409178 -.815019601429556 .0
530670053775597 32 340 1127 0 619 334 620 0 -.0791785928161384 .0584398391109332
 -.02228150555753835 0 -.815019601429556 .579433386409178 -.998716732750351 -.02
93452419599345 -.04127643999641795 .2408960615663615 .048514 31 622 1125 0 618 6
20 623 0 +0 .0561133386248163 -.0255539153692533 0 -.815019601429556 .5794333864
09178 0 -.579433386409178 -.815019601429556 .0456936654224844 31 623 805 0 624 6
22 625 0 +.047 0 3469446951953615e-33 1 0 0 0 0 -1 .0605402625992995 16 624 596
 0 ?124 626 621 623 0 0 1 30 625 804 0 621 623 627 0 +.047 -.01425302889239906 -
.0588385465743723 0 2831103932874885e-29 -1 16 621 595 0 ?628 624 618 625 0 0 1
 31 627 803 0 626 625 629 0 +-.0485 0 3469446951953615e-33 1 0 0 0 0 -1 .0605402
625992995 16 626 608 0 ?630 631 624 627 0 0 1 31 629 799 0 631 627 632 0 +-.0485
 0 3469446951953615e-33 -1 0 0 0 0 -1 .0535402625992995 16 631 619 0 ?154 633 62
6 629 0 0 1 30 632 798 0 633 629 385 0 +-.0485 -.01425302889239906 -.05883854657
43723 0 2831103932874885e-29 -1 16 633 627 0 ?634 605 631 632 0 0 1 30 385 797 0
 383 632 377 0 +-.0485 -.01425302889239906 -.0588385465743723 1 0 0 16 383 626 0
 ?157 376 384 385 0 0 1 17 157 0 635 185 634 155 151 383 0 636 +16 384 622 0 ?98
 383 605 377 605 605 1 17 98 0 637 101 154 96 638 384 0 639 +16 605 1229 0 ?602
 384 633 377 384 384 1 15 637 733 0 98 345 0 17 101 0 637 142 98 99 639 640 0 64
1 +17 154 0 637 98 148 152 642 631 0 638 +17 638 0 635 634 246 152 98 384 0 643
 -17 639 0 644 645 646 96 101 640 0 246 -15 644 1487 0 647 280 0 17 645 0 644 64
8 639 161 246 245 0 244 -17 646 0 644 639 647 99 92 649 0 0 -16 640 1325 0 ?101
 649 269 270 0 0 1 17 246 0 635 638 171 96 645 245 0 0 +15 635 1711 0 592 373 0
 17 171 0 635 246 164 161 255 253 0 645 -17 164 0 635 171 604 162 252 242 0 255
 -17 255 0 290 650 244 162 171 253 0 250 +15 290 1472 0 650 285 0 17 650 0 290 6
51 255 166 250 228 0 0 -17 244 0 290 255 651 161 648 241 0 0 +17 250 0 652 252 1
68 162 650 228 0 0 +15 652 1490 0 268 275 0 17 252 0 652 260 250 93 164 242 0 0
 +17 168 0 652 250 653 166 654 225 0 258 +17 653 0 652 168 268 84 89 269 0 654 +
17 654 0 293 432 258 84 168 225 0 0 -17 258 0 293 654 173 166 651 247 0 650 +15
 293 1476 0 654 289 0 17 173 0 293 258 432 165 655 239 0 651 +17 651 0 290 244 6
50 165 258 247 0 648 -17 648 0 644 655 645 165 244 241 0 0 -17 655 0 644 647 648
 81 173 239 0 0 -17 647 0 644 646 655 90 83 656 0 0 -17 83 0 347 86 612 81 647 6
56 0 432 +16 656 1324 0 ?83 617 649 657 0 0 1 16 617 1080 0 ?614 307 656 308 0 0
 1 16 649 1323 0 ?92 656 640 658 0 0 1 31 657 1507 0 656 658 308 0 --.0245 .0693
983365376622 -.03499880640693775 1 0 0 0 0 -1 .0498152004512679 38 658 1508 0 64
9 270 657 0 +263 276 659 660 661 30 308 1136 0 617 657 304 0 +.255308358535732 .
0493415006941217 -.035079049372013 -1 0 0 31 270 1509 0 640 262 658 0 +-.0245 0
 3469446951953615e-33 1 0 0 0 0 -1 .0535402625992995 40 2 659 0 1 2 469165330243
655e-20 .000720481787193293 ??-.0245 .02142092007793305 -.0535404625992995 -.024
5 .01992223726354955 -.0408013745167779 41 1 660 L?-.0245 .02142092007793305 -.0
535404625992995 41 1 661 L?-.0245 .01992223726354955 -.0408013745167779 17 92 0
 662 663 641 90 646 649 0 612 +15 662 533 0 641 346 0 17 663 0 662 641 92 140 61
2 416 0 0 -17 641 0 662 92 663 99 142 382 0 646 -17 612 0 347 83 664 90 663 416
 0 647 +17 664 0 347 612 665 140 148 353 0 663 -16 416 522 0 ?612 413 411 410 41
3 411 1 16 411 1253 0 ?608 416 409 410 416 413 1 17 665 0 347 664 136 146 666 36
0 0 0 +17 148 0 637 154 142 146 664 353 0 642 +17 142 0 637 148 101 140 641 382
 0 664 +17 642 0 667 666 643 146 154 631 0 665 -15 667 760 0 666 301 0 17 666 0
 667 668 642 134 665 360 0 429 -17 643 0 667 642 669 152 634 633 0 0 -17 669 0 6
67 643 668 149 630 626 0 634 -17 634 0 635 157 638 149 643 633 0 0 +17 668 0 667
 669 666 137 429 415 0 630 -17 630 0 670 332 151 137 669 626 0 0 +15 670 1949 0
 671 281 0 17 332 0 670 338 630 111 139 328 0 0 +17 151 0 670 630 636 149 157 38
3 0 669 -17 636 0 670 151 671 155 124 624 0 628 -17 671 0 670 636 121 122 672 30
7 0 0 -17 124 0 673 133 628 122 636 624 0 674 +17 628 0 673 124 596 155 185 621
 0 0 +15 673 2413 0 675 297 0 17 596 0 673 628 189 183 676 587 0 0 +17 185 0 635
 192 157 183 628 621 0 599 -17 192 0 635 592 185 182 599 597 0 589 -17 599 0 677
 676 589 183 192 597 0 596 +15 677 1862 0 676 678 0 17 676 0 677 679 599 187 596
 587 0 0 -17 589 0 677 599 679 182 680 586 0 606 +17 679 0 677 589 676 186 600 5
93 0 680 -17 680 0 212 213 606 186 589 586 0 0 -17 606 0 212 680 181 182 592 590
 0 0 -17 592 0 635 604 192 179 606 590 0 602 +17 604 0 635 164 592 93 602 605 0
 252 -17 213 0 212 60 680 46 194 584 0 509 -17 194 0 681 600 48 186 213 584 0 67
9 +15 681 2493 0 682 288 0 17 600 0 681 682 194 187 679 593 0 676 +17 48 0 681 1
94 682 46 510 513 0 213 +17 682 0 681 48 600 52 189 581 0 510 -17 189 0 673 596
 54 187 682 581 0 600 +17 54 0 673 189 675 52 65 517 0 682 +17 675 0 673 54 484
 63 51 210 0 0 -17 65 0 503 511 510 63 54 517 0 514 -17 514 0 683 51 217 63 511
 515 0 675 +15 683 2637 0 217 507 0 17 51 0 683 22 514 49 675 210 0 482 +17 217
 0 683 514 219 58 80 218 0 511 -17 219 0 683 217 22 78 202 684 0 197 +17 22 0 68
3 219 51 61 482 10 0 202 +17 202 0 196 45 197 61 219 684 0 479 -16 684 2779 0 ?2
19 210 0 685 0 0 1 16 210 2776 0 ?51 200 684 686 0 0 1 30 685 2660 0 684 0 686 0
 +.02263 .015 .00509077871897084 -.994768556409695 0 .1021543889344506 30 686 26
51 0 210 685 211 0 +.047 .015 0 0 0 -1 32 211 2650 0 200 686 477 0 +.16108001337
93505 .0471044961278677 -.00912687665785347 .1021543889344506 0 .994768556409695
 -.984961898968834 .1400688249728678 .101147327450746 .216653808296972 .055514 1
7 45 0 196 77 202 43 479 483 0 468 +17 482 0 478 480 479 49 22 10 0 484 -17 484
 0 673 675 434 49 480 485 0 0 +17 434 0 673 484 133 55 471 405 0 480 +17 133 0 6
73 434 124 131 674 435 0 687 +17 471 0 464 688 57 131 434 405 0 0 -17 688 0 464
 689 471 128 687 690 0 691 +17 689 0 464 539 688 114 407 404 0 692 -17 687 0 693
 674 691 131 688 690 0 471 -16 690 289 0 ?688 224 360 399 0 0 1 17 691 0 693 687
 672 128 418 408 0 0 -15 693 357 0 674 391 0 17 672 0 693 691 674 119 671 307 0
 418 +17 418 0 457 107 130 119 691 408 0 0 +17 107 0 457 130 418 105 121 317 0 6
94 -17 130 0 457 418 107 128 694 409 0 407 +17 694 0 453 104 407 105 130 409 0 6
95 -17 407 0 453 694 116 128 689 404 0 688 +15 453 1670 0 407 449 0 17 116 0 453
 407 104 114 615 618 0 689 -17 104 0 453 116 694 102 695 322 0 615 -17 615 0 298
 614 692 102 116 618 0 616 +17 692 0 298 615 42 114 539 619 0 0 -17 616 0 670 69
5 338 102 614 617 0 0 -17 695 0 670 121 616 105 104 322 0 0 +17 338 0 670 616 33
2 108 113 333 0 614 +17 113 0 347 136 110 111 338 333 0 696 -17 136 0 347 665 11
3 134 696 413 0 666 +17 696 0 697 139 429 111 136 413 0 332 -15 697 1029 0 139 2
71 0 17 139 0 697 429 696 137 332 328 0 668 -17 429 0 697 696 139 134 668 415 0
 0 +14 271 193 698 ?391 449 697 5 263 +346 456 391 449 21 81 1 698 3252 458 271
 699 0 505 700 701 14 391 354 700 ?301 271 693 5 310 -0 0 301 271 21 14 346 1298
 702 ?341 367 662 5 263 +456 271 341 367 21 81 1 702 3254 458 346 703 0 700 704
 705 80 255 1 458 706 707 9000 1 1 1 1 1 1 1 1 0 FFFFTFTFFFFFFF1 81 1 703 3117 7
08 346 0 702 709 710 711 81 1 700 3253 458 391 712 0 698 702 713 81 1 704 3255 4
58 345 714 0 702 715 716 82 255 1 705 267125632 14 345 1237 704 ?456 341 637 5 3
56 +367 367 456 341 21 81 1 714 3119 708 345 0 704 710 717 718 81 1 715 3256 458
 373 719 0 704 720 721 82 1 716 258802560 14 373 738 715 ?281 301 635 5 302 +0 0
 281 301 21 81 1 719 3126 708 373 0 715 722 723 724 81 1 720 3257 458 281 723 0
 715 725 726 82 1 721 15991689 14 281 722 720 ?275 373 670 5 368 +0 0 275 373 21
 81 1 723 3127 708 281 0 720 719 727 728 81 1 725 3258 458 678 729 0 720 730 731
 82 1 726 40305545 14 678 1859 725 ?732 288 677 5 733 +0 0 732 288 21 81 1 729 3
133 708 678 0 725 734 735 736 81 1 730 3259 458 732 735 0 725 737 738 82 1 731 8
59308937 14 732 1881 730 ?739 678 740 5 741 -0 0 739 678 21 81 1 735 3134 708 73
2 0 730 729 742 743 81 1 737 3260 458 280 744 0 730 745 746 82 1 738 865076105 1
4 280 1485 737 ?289 275 747 5 276 -0 0 289 275 21 81 1 744 3129 708 280 0 737 72
7 748 749 81 1 745 3261 458 739 742 0 737 750 751 82 1 746 226821005 14 739 2008
 745 ?752 732 753 5 754 -0 0 752 732 21 81 1 742 3135 708 739 0 745 735 755 756
 81 1 750 3262 458 752 755 0 745 757 758 82 1 751 919405455 14 752 2157 750 ?759
 739 760 5 761 -0 0 759 739 21 81 1 755 3136 708 752 0 750 742 762 763 81 1 757
 3263 458 759 762 0 750 764 765 82 1 758 923403151 14 759 2133 757 ?766 752 767
 5 768 -0 0 766 752 21 81 1 762 3137 708 759 0 757 755 769 770 81 1 764 3264 458
 766 769 0 757 771 772 82 1 765 927335311 14 766 2109 764 ?773 759 774 5 775 -0
 0 773 759 21 81 1 769 3138 708 766 0 764 762 776 777 81 1 771 3265 458 773 776
 0 764 778 779 82 1 772 931267471 14 773 2085 771 ?780 766 781 5 782 -0 0 780 76
6 21 81 1 776 3139 708 773 0 771 769 783 784 81 1 778 3266 458 780 783 0 771 785
 786 82 1 779 935199631 14 780 2287 778 ?787 773 788 5 789 -0 0 787 773 21 81 1
 783 3140 708 780 0 778 776 790 791 81 1 785 3267 458 787 790 0 778 792 793 82 1
 786 977994639 14 787 2327 785 ?537 780 794 5 795 +0 0 537 780 21 81 1 790 3141
 708 787 0 785 783 796 797 81 1 792 3268 458 214 798 0 785 799 800 82 1 793 9707
20143 14 214 2487 792 ?371 294 801 5 235 -0 0 371 294 21 81 1 798 3114 708 214 0
 792 802 803 804 81 1 799 3269 458 288 734 0 792 805 806 82 1 800 -133692518 14
 288 1835 799 ?678 285 681 5 283 +0 0 678 285 21 81 1 734 3132 708 288 0 799 807
 729 808 81 1 805 3270 458 537 796 0 799 809 810 82 1 806 878511002 14 537 2600
 805 ?203 787 534 5 811 +0 0 203 787 21 81 1 796 3142 708 537 0 805 790 812 813
 81 1 809 3271 458 203 812 0 805 814 815 82 1 810 -126090342 14 203 2604 809 ?50
7 537 196 5 816 +0 0 507 537 21 81 1 812 3143 708 203 0 809 796 817 818 81 1 814
 3272 458 507 817 0 809 819 820 82 1 815 -129236070 14 507 2635 814 ?348 203 683
 5 821 -0 0 348 203 21 81 1 817 3144 708 507 0 814 812 822 823 81 1 819 3273 458
 16 824 0 814 825 826 82 1 820 -139721830 14 16 2979 819 ?0 481 33 5 6 +0 0 0 48
1 21 81 1 824 3148 708 16 0 819 827 0 828 81 1 825 3274 458 301 722 0 819 0 829
 82 1 826 -1403518054 14 301 758 825 ?373 391 667 5 299 -0 0 373 391 21 81 1 722
 3125 708 301 0 825 712 719 830 82 1 829 6685556 80 1 708 0 831 8001 0 0 0 0 3 5
 0 0 0 FFFFTFTFFFFFFF2 81 1 712 3124 708 391 0 700 699 722 832 83 255 3 830 .752
941176470588 1 .752941176470588 81 1 699 3123 708 271 0 698 833 712 834 83 3 832
 .752941176470588 1 .752941176470588 81 1 833 3122 708 449 0 451 459 699 835 83
 3 834 .752941176470588 1 .752941176470588 81 1 451 3244 458 449 833 0 446 455 8
36 81 1 459 3121 708 452 0 455 717 833 837 83 3 835 .752941176470588 1 .75294117
6470588 81 1 717 3120 708 456 0 460 714 459 838 83 3 837 .752941176470588 1 .752
941176470588 81 1 460 3246 458 456 717 0 455 463 839 83 3 838 .752941176470588 1
 .752941176470588 82 1 839 48497536 81 1 446 3243 458 297 840 0 389 451 841 82 1
 836 -1159265404 81 1 840 3112 708 297 0 446 842 802 843 81 1 389 3242 458 371 8
03 0 370 446 844 82 1 841 -124910694 81 1 803 3115 708 371 0 389 798 709 845 81
 1 370 3241 458 367 709 0 344 389 846 82 1 844 879297417 81 1 709 3116 708 367 0
 370 803 703 847 81 1 344 3240 458 341 710 0 296 370 848 82 1 846 876086153 81 1
 710 3118 708 341 0 344 703 714 849 81 1 296 3239 458 294 802 0 292 344 850 82 1
 848 262013824 81 1 802 3113 708 294 0 296 840 798 851 81 1 292 3238 458 289 748
 0 287 296 852 82 1 850 -127335526 81 1 748 3130 708 289 0 292 744 807 853 81 1
 287 3237 458 285 807 0 279 292 854 82 1 852 239534976 81 1 807 3131 708 285 0 2
87 748 734 855 81 1 279 3236 458 275 727 0 0 287 856 82 1 854 239403904 81 1 727
 3128 708 275 0 279 723 744 857 82 1 856 237306767 83 3 857 .752941176470588 1 .
752941176470588 83 3 855 .752941176470588 1 .752941176470588 83 3 853 .752941176
470588 1 .752941176470588 83 3 851 .752941176470588 1 .752941176470588 83 3 849
 .752941176470588 1 .752941176470588 83 3 847 .752941176470588 1 .75294117647058
8 83 3 845 .752941176470588 1 .752941176470588 81 1 842 3111 708 222 0 466 465 8
40 858 83 3 843 .752941176470588 1 .752941176470588 81 1 466 3248 458 222 842 0
 463 500 859 81 1 465 3110 708 14 0 463 0 842 860 83 3 858 .752941176470588 1 .7
52941176470588 83 3 860 .752941176470588 1 .752941176470588 81 1 500 3249 458 48
1 827 0 466 502 861 82 1 859 -124058726 81 1 827 3147 708 481 0 500 504 824 862
 82 1 861 -1405484134 81 1 504 3146 708 501 0 502 822 827 863 83 3 862 .75294117
6470588 1 .752941176470588 81 1 822 3145 708 348 0 505 817 504 864 83 3 863 .752
941176470588 1 .752941176470588 81 1 505 3251 458 348 822 0 502 698 865 83 3 864
 .752941176470588 1 .752941176470588 82 1 865 300483480 79 255 15 831 SDL/TYSA_C
OLOUR83 3 828 .752941176470588 1 .752941176470588 15 33 2980 0 540 16 0 17 540 0
 33 35 34 38 37 487 0 0 -17 35 0 33 29 540 11 42 23 0 0 -17 34 0 33 540 29 32 36
 486 0 0 -17 36 0 534 68 535 25 34 486 0 28 +17 42 0 298 692 31 38 35 23 0 539 +
16 23 2867 0 ?42 10 30 19 0 0 1 16 30 2862 0 ?24 23 486 498 0 0 1 30 19 2869 0 2
3 498 7 0 -.01663 .0842026974021122 .01395602405097352 0 .579433386409178 .81501
9601429556 38 498 2864 0 30 489 19 0 +6 386 866 867 868 40 6 866 0 1 6 .00036199
787842587 .349319119257587 ??.02263 .0825970269829693 .0220524631671863 .0222975
665536225 .0845142828852612 .02135033292716375 .02130980938193405 .0861771329756
996 .020607848261765 .01981873468718495 .0873533129879529 .01997103340995905 .01
800980853431695 .0879658629236002 .01952675007293795 .01663 .0880408440755961 .0
1935468564939585 41 1 867 L?.02263 .0825970269829693 .0220524631671863 41 1 868
 L?.01663 .0880408440755961 .01935468564939585 17 539 0 464 37 689 38 692 619 0
 540 +83 3 823 .752941176470588 1 .752941176470588 50 821 2644 0 507 0 811 0 +0
 .015 0 0 -1 0 0 0 -1 50 811 2641 0 537 821 816 0 +.02263 .0890510559890882 .005
09077871897084 1 0 0 0 0 -1 50 816 2640 0 203 811 789 0 +.02263 .089051055989088
2 .00509077871897084 .1021543889344506 0 .994768556409695 .994768556409695 0 -.1
021543889344506 50 789 2342 0 780 816 795 0 +-.019 246519032881566e-49 369149155
6878645e-33 -1 0 0 0 0 1 51 795 2340 0 787 789 775 0 --.019 246519032881566e-49
 3691491556878645e-33 1 0 0 .0112 0 0 -1 51 775 2185 0 766 795 782 0 +-.017 .008
 1301042606982604e-33 -1 0 0 .0018415 0 0 1 51 782 2182 0 773 775 761 0 +-.017 0
 .008 -1 0 0 .0018415 0 0 1 51 761 2179 0 752 782 768 0 +-.017 -517689969051289e
-49 300315328161105e-32 -1 0 0 .0046 0 0 1 51 768 2176 0 759 761 754 0 +-.017 -1
89016590942494e-48 -.008 -1 0 0 .0018415 0 0 1 51 754 2021 0 739 768 741 0 +-.01
7 -.008 596311194867027e-32 -1 0 0 .0018415 0 0 1 51 741 1896 0 732 754 235 0 +.
04 0 3469446951953615e-33 1 0 0 .003175 0 0 -1 50 235 1895 0 214 741 733 869 +.0
4 .0628934295831743 .3410530669129705 1 0 0 0 0 -1 51 733 1892 0 678 235 283 0 +
.04 0 3469446951953615e-33 1 0 0 .01425302889239906 0 0 -1 141 869 231 869 869 2
35 50 283 1891 0 288 733 276 0 +.04 .036095632316405 .01425302889239906 0 -19223
63859173505e-31 1 0 -1 -1922363859173505e-31 83 3 818 .752941176470588 1 .752941
176470588 83 3 813 .752941176470588 1 .752941176470588 83 3 808 .752941176470588
 1 .752941176470588 83 3 804 .752941176470588 1 .752941176470588 15 801 1845 0 5
80 214 212 17 580 0 801 580 580 0 870 578 0 0 +17 870 0 740 870 870 0 580 578 0
 0 -15 740 1884 0 870 732 871 15 871 1885 0 583 732 0 17 583 0 871 583 583 0 872
 577 0 0 +17 872 0 447 872 872 0 583 577 0 0 -15 447 1849 0 872 297 673 83 3 797
 .752941176470588 1 .752941176470588 15 794 2330 0 547 787 873 17 547 0 794 547
 547 0 874 545 0 0 +15 873 2331 0 875 787 0 17 875 0 873 875 875 0 549 541 0 0 -
17 549 0 282 549 549 0 875 541 0 0 +15 282 2265 0 549 275 652 17 874 0 876 874 8
74 0 547 545 0 0 -15 876 2291 0 874 780 877 15 877 2292 0 878 780 879 17 878 0 8
77 878 878 0 880 436 0 0 -15 879 2293 0 881 780 882 17 881 0 879 881 881 0 555 5
53 0 0 -15 882 2294 0 883 780 0 17 883 0 882 883 883 0 561 559 0 0 -17 561 0 753
 561 561 0 883 559 0 0 +15 753 2260 0 561 739 884 15 884 2012 0 576 739 0 17 576
 0 884 576 576 0 885 572 0 0 +17 885 0 886 885 885 0 576 572 0 0 -15 886 1985 0
 885 280 644 17 555 0 767 555 555 0 881 553 0 0 +15 767 2250 0 555 759 887 15 88
7 2137 0 574 759 0 17 574 0 887 574 574 0 888 566 0 0 +17 888 0 889 888 888 0 57
4 566 0 0 -15 889 2035 0 888 280 890 15 890 2029 0 891 280 886 17 891 0 890 891
 891 0 571 569 0 0 -17 571 0 892 571 571 0 891 569 0 0 +15 892 2161 0 571 752 0
 17 880 0 781 880 880 0 878 436 0 0 +16 436 2276 0 ?880 550 545 433 0 0 1 15 781
 2239 0 880 773 893 15 893 2089 0 568 773 0 17 568 0 893 568 568 0 894 562 0 0 +
17 894 0 747 894 894 0 568 562 0 0 -15 747 2047 0 894 280 895 15 895 2041 0 896
 280 889 17 896 0 895 896 896 0 565 563 0 0 -17 565 0 897 565 565 0 896 563 0 0
 +15 897 2113 0 565 766 0 83 3 791 .752941176470588 1 .752941176470588 15 788 22
89 0 898 780 899 17 898 0 788 898 898 0 558 556 0 0 -15 899 2290 0 900 780 876 1
7 900 0 899 900 900 0 552 550 0 0 -17 552 0 774 552 552 0 900 550 0 0 +15 774 22
45 0 552 766 897 17 558 0 760 558 558 0 898 556 0 0 +15 760 2255 0 558 752 892 8
3 3 784 .752941176470588 1 .752941176470588 83 3 777 .752941176470588 1 .7529411
76470588 83 3 770 .752941176470588 1 .752941176470588 83 3 763 .752941176470588
 1 .752941176470588 83 3 756 .752941176470588 1 .752941176470588 83 3 749 .75294
1176470588 1 .752941176470588 83 3 743 .752941176470588 1 .752941176470588 83 3
 736 .752941176470588 1 .752941176470588 83 3 728 .752941176470588 1 .7529411764
70588 83 3 724 .752941176470588 1 .752941176470588 83 3 718 .752941176470588 1 .
752941176470588 82 1 713 -1097727116 83 3 711 .752941176470588 1 .75294117647058
8 79 14 707 SWEntUnchanged82 1 701 -1160051852 17 121 0 670 671 695 119 107 317
 0 672 +16 322 1068 0 ?695 328 317 318 0 0 1 16 317 1069 0 ?121 322 307 309 0 0
 1 16 307 1062 0 ?672 317 617 304 0 0 1 17 674 0 693 672 687 122 133 435 0 671 -
16 224 1733 0 ?127 435 690 440 0 0 1 16 360 593 0 ?665 690 353 355 0 0 1 30 399
 387 0 690 440 393 0 +.178672033831207 -.004031614393014315 -.01043852271752776
 -.978254211939102 .135392609074463 -.157122685285788 16 382 1223 0 ?142 361 376
 354 361 361 1 16 361 617 0 ?160 353 382 354 382 382 1 17 160 0 372 95 145 158 6
03 361 0 610 +17 95 0 372 602 160 93 260 256 0 604 -17 610 0 462 603 609 158 268
 261 0 260 -17 268 0 652 653 260 87 610 261 0 0 +17 260 0 652 268 252 158 95 256
 0 0 +17 86 0 347 89 83 84 432 430 0 653 -17 432 0 293 173 654 81 86 430 0 655 +
17 89 0 347 608 86 87 653 269 0 609 -16 269 1381 0 ?653 640 261 262 0 0 1 16 339
 2860 0 ?27 619 333 334 0 0 1 17 178 0 212 181 175 176 216 226 0 601 +82 1 506 -
1407450214 40 6 495 0 1 6 .000329304977160612 .3392214101765475 ??.01663 .083854
2578457938 .01346591582632874 .01855055911982485 .0836650902825097 .013744650803
17874 .02027166832712355 .0828851349089051 .01422818034032342 .0215937930456102
 .081603855372528 .01483847296201016 .02240024439041345 .0799425849199876 .01548
07125190751 .02263 .0782901073977642 .0159944348138733 41 1 496 L?.01663 .083854
2578457938 .01346591582632874 41 1 497 L?.02263 .0782901073977642 .0159944348138
733 82 1 467 -123337830 82 1 461 46662532 141 448 522 901 902 394 141 901 488 90
2 448 394 141 902 490 448 901 394 141 400 310 903 903 393 141 903 13 400 400 393
 67 13 922 0 1 904 3 0 -393 -.978254211939102 .135392609074463 -.157122685285788
 .00766463764091593 50 904 923 0 1 0 13 0 +.047 0 0 1 0 0 0 0 -1 141 396 362 387
 387 234 141 395 523 905 905 386 141 905 498 395 395 386 141 392 438 906 906 310
 141 906 304 392 392 310 40 4 363 0 1 4 .00316695726399355 .3536472276359135 ??2
25000000363631e-21 .01529289569276975 -.0513097170186312 -.01747798699559815 .01
80916405791792 -.0503909938417149 -.03299937485934175 .025930270532846 -.0468420
835285469 -.04291707517747285 .0346670961683204 -.0408013745167779 41 1 364 L?22
5000000363631e-21 .01529289569276975 -.0513097170186312 41 1 365 L?-.04291707517
747285 .0346670961683204 -.0408013745167779 141 350 523 907 907 342 141 907 522
 350 350 342 40 2 325 0 1 2 .000707538049476969 .2064623736464915 ??-.0441738704
2970145 .0493416428823338 -.035078849372013 -.04184611774076885 .045381829619699
 -.04007010027390435 41 1 326 L?-.04417387042970145 .0493416428823338 -.03507884
9372013 41 1 327 L?-.04184611774076885 .045381829619699 -.04007010027390435 40 5
 319 0 1 5 .00263663241345154 .3497633310225785 ??-.0418463846084517 .0453822048
719099 -.04006967527390435 -.03361338602255605 .0360520741698823 -.0486350834649
376 -.02184249448998745 .0279883573402965 -.0536821688178115 -.00811038499662584
 .02351334972290215 -.0557875055940005 2250000003150665e-22 .02283176907053775 -
.0560699002736921 41 1 320 L?-.0418463846084517 .0453822048719099 -.040069675273
90435 41 1 321 L?2250000003150665e-22 .02283176907053775 -.0560699002736921 40 2
 311 0 1 2 .00039393377909274 .01397707242701726 ??.0519435429544422 .0166162147
902196 -.0582153313280742 -.00305357746101362 .02292786357111525 -.0560306743459
016 41 1 312 L?.0519435429544422 .0166162147902196 -.0582153313280742 41 1 313 L
?-.00305357746101362 .02292786357111525 -.0560306743459016 141 303 423 303 303 2
99 141 284 658 284 284 276 141 274 354 908 909 263 141 908 658 910 274 263 141 9
09 423 274 911 263 141 911 323 909 910 263 141 910 259 911 908 263 40 2 236 0 1
 2 .0001027199717223692 .00969703387813844 ??.04 .00813388043697765 -.0333083346
7491625 .04 .01041821863988068 -.0539471291874735 41 1 237 L?.04 .00813388043697
765 -.03330833467491625 41 1 238 L?.04 .01041821863988068 -.0539471291874735 19
 15 40 0 1 0 9 5 S0 141 18 490 912 912 6 141 912 498 18 18 6 74 4 CI16 index_map
_offset0 0 1 dCCZ20 12 2 0 0 825 824 0 0 0 0 0 0 0 0 0 0 0 0 0 0 0 0 0 0 1 0 
