**ABCDEFGHIJKLMNOPQRSTUVWXYZabcdefghijklmnopqrstuvwxyz**************************
**PARASOLID !"#$%&'()*+,-./:;<=>?@[\]^_`{|}~0123456789**************************
**PART1;
MC=AMD64;
MC_MODEL=Intel64 Family 6 Model 26 Stepping 5, GenuineIntel;
MC_ID=unknown;
OS=Windows_NT;
OS_RELEASE=unknown;
FRU=Parasolid Version 28.0, build 224,  7-29-2016;
APPL=SOLIDWORKS 2016-2016286;
SITE=;
USER=unknown;
FORMAT=text;
GUISE=transmit;
KEY=8699-16-305 rA.01 Cocking Cam;
FILE=8699-16-305 rA.01 Cocking Cam.x_t;
DATE=Tue Jan 31 20:18:48 2017;
**PART2;
SCH=SCH_2800224_28002;
USFLD_SIZE=0;
**PART3;
**END_OF_HEADER*****************************************************************
T51 : TRANSMIT FILE created by modeller version 280022423 SCH_2800224_28002_1300
6200 0 12 30 CCCCCCCCCCCCCDI5 owner1040 0 CCCCCCCCCA13 boundary_mesh1006 0 A16 i
ndex_map_offset0 0 1 dA9 index_map82 0 A17 node_id_index_map82 0 A20 schema_embe
dding_map82 0 A5 child12 0 A14 lowest_node_id0 0 1 dZ1 429 2 3 0 0 0 0 1e3 1e-8
 0 4 0 1 0 1 1 5 6 7 8 9 10 11 0 0 0 0 0 0 0 81 255 2 2 262 12 1 0 0 0 0 13 0 70
 11 CI9 list_type0 0 1 uI10 notransmit0 0 1 lCCCDCCDI12 finger_index0 0 1 dI12 f
inger_block1012 0 CZ3 0 4 T1 0 0 3 20 1 14 14 13 255 5 76 0 1 0 15 0 0 16 0 67 2
55 6 72 0 17 18 0 19 +20 -1 0 0 .00644391899943154 38 255 7 210 0 21 22 0 0 +23
 24 25 26 26 29 255 8 58 0 27 28 0 0 -.02632548349992875 -.003667013125979455 19
 8 CCCCCCCA5 owner12 0 Z9 23 0 1 16 0 29 V0 16 255 10 63 0 ?30 0 31 32 0 0 1 18
 255 11 20 0 33 0 34 35 ?1 17 255 33 0 36 37 38 11 39 40 0 41 +18 34 17 0 38 11
 42 43 ?1 29 35 22 0 11 43 44 .02159 -.02632548349992875 -.003667013125979455 29
 43 19 0 34 45 35 .02159 -.0084312368938815 -.00281647330682036 29 44 60 0 46 35
 28 0 -.00617940617515592 .000700777065763977 18 46 53 0 47 48 0 44 ?1 29 28 59
 0 48 44 8 0 -.0084312368938815 -.00281647330682036 18 48 52 0 49 27 46 28 ?1 17
 49 0 50 51 30 48 47 52 0 53 +18 27 51 0 54 42 48 8 ?1 17 54 0 55 41 53 27 56 57
 0 58 +18 42 14 0 59 34 27 45 ?1 17 59 0 50 30 51 42 38 60 0 37 -29 45 16 0 42 0
 43 .02159 -.00617940617515592 .000700777065763977 15 255 50 66 0 49 61 0 17 30
 0 50 49 59 46 62 10 0 63 +17 51 0 50 59 49 34 53 31 0 39 -17 38 0 36 33 37 34 5
9 60 0 51 +16 60 8 0 ?38 40 64 65 0 0 1 17 37 0 36 38 33 42 66 64 0 62 +15 36 3
 0 37 15 67 17 66 0 68 58 62 11 37 64 0 0 -16 64 4 0 ?37 60 57 20 0 0 1 17 62 0
 68 66 63 42 30 10 0 0 -15 68 68 0 63 17 0 17 63 0 68 62 58 46 69 70 0 0 +17 58
 0 68 63 66 27 41 71 0 69 +17 69 0 72 56 47 27 63 70 0 0 -16 70 46 0 ?63 52 73 7
4 0 0 1 16 52 42 0 ?49 57 70 75 0 0 1 16 73 104 0 ?76 70 77 78 0 0 1 134 255 74
 57 0 70 79 75 0 +80 81 30 255 79 12 0 40 65 74 0 +.02159 -.02632548349992875 -.
003667013125979455 0 -.998872290216758 -.0474778668131734 31 255 75 56 0 52 74 8
2 0 +0 -.00855278837318837 -.0002591889833215815 -1 0 0 0 0 -1 .0025601714538941
15 136 255 80 3 54 3 27 6 FFF1 83 84 85 135 255 81 2 0 45 255 162 83 0 -.0263254
8349992875 -.003667013125979455 0 -.02588501640994855 -.00529183143138332 0 -.02
52937709802203 -.00685500985861185 0 -.0238451939849136 -.00980629411018198 0 -.
02298792656970905 -.0111943493778112 0 -.02105140100566475 -.0137523524342122 0
 -.0199722145165317 -.01492226404364578 0 -.01764241484433395 -.0170111362692066
5 0 -.01639187774408935 -.01793007605482335 0 -.01377418113200496 -.019495210829
7215 0 -.01240709895101752 -.0201414006679111 0 -.00961304301680638 -.0211506818
581234 0 -.00818614470800054 -.02151378343092085 0 -.0053288100875924 -.02195789
665749685 0 -.003898444365153805 -.022038932986476 0 -.001087949281893154 -.0219
3075894504925 0 .000292117032528461 -.0217415862291151 0 .002952832896155895 -.0
211147307327981 0 .00423342924609723 -.02067709662683955 0 .00665237105198453 -.
0195836453555955 0 .00779067499289227 -.01892788553276875 0 .00988997156551444 -
.0174355003933537 0 .01085093567282844 -.01659893844829195 0 .01256932106007836
 -.01478743590480664 0 .0133267275415238 -.01381256189597278 0 .0146212472227951
8 -.01177013078632692 0 .0151583594978757 -.01070264062975876 0 .016005257239532
45 -.00852186727257846 0 .01631505522360385 -.00740864857435838 0 .0167098316537
026 -.0051825201174866 0 .0167948350803545 -.004069669803894975 0 .0167515036458
0655 -.00188772278855217 0 .01662320475530485 -.000818678144435623 0 .0161728034
242135 .001236551532594276 0 .0158507460504129 .002222693849517275 0 .0150391926
2056075 .004078780417266965 0 .0145497485015278 .00494869279896394 0 .0134351525
1695272 .0065458728071125 0 .0128100570020662 .00727312041446994 0 .011459621105
8448 .00856619770795014 0 .01073433891035162 .00913201969506656 0 .0084643249203
2774 .0105713349527582 0 .00682631034463374 .01118277968876294 0 .00359680348317
033 .01172042795714446 0 .002006859472455375 .01164748097618024 0 -.000874358563
474903 .0109424993264994 0 -.00216461256267651 .01031182980309986 0 -.0042810932
64670225 .00869840573541426 0 -.00510697539238301 .00771726162806799 0 -.0062370
7693613607 .00564499605846387 0 -.00654165034000696 .00455542957813348 0 -.00667
904709626705 .002494871996674445 0 -.00651282232630776 .001525102007707585 0 -.0
0617940617515592 .000700777065763977 127 255 27 84 4 2 2 2 2 2 2 2 2 2 2 2 2 2 2
 2 2 2 2 2 2 2 2 2 2 2 4 128 255 27 85 0 .03125 .0625 .09375 .125 .15625 .1875 .
21875 .25 .28125 .3125 .34375 .375 .40625 .4375 .46875 .5 .53125 .5625 .59375 .6
25 .6875 .75 .8125 .875 .9375 1 30 82 55 0 57 75 86 0 +0 -.02632548349992875 -.0
03667013125979455 0 -.998872290216758 -.0474778668131734 16 57 38 0 ?54 64 52 82
 0 0 1 30 86 73 0 71 82 87 0 +.02159 -.02632548349992875 -.003667013125979455 -1
 0 0 16 71 61 0 ?58 31 40 86 0 0 1 30 87 74 0 31 86 32 0 +.02159 -.0084312368938
815 -.00281647330682036 -1 0 0 16 31 62 0 ?53 10 71 87 0 0 1 30 32 75 0 10 87 22
 0 +.02159 -.00617940617515592 .000700777065763977 -1 0 0 38 22 154 0 88 32 7 0
 +6 89 90 91 91 16 88 158 0 ?92 77 93 22 0 0 1 51 255 89 183 0 94 95 23 96 +.016
565 .0202970849372045 .000964750253643683 0 -.998872290216758 -.0474778668131734
 .003175 0 .0474778668131734 -.998872290216758 40 255 20 90 0 1 20 .000204045066
929474 .367235748044931 ??.016565 .0167506396740937 -.002382402018581895 .017615
41585429565 .01673972380515555 -.00220392520070823 .0185474518950013 .0166973824
921488 -.001689170865709995 .0192543950934493 .01660078857524235 -.0009003817195
66244 .0196576066523107 .01642959066123345 614951694587045e-19 .0197241663281676
 .016179640299376 .00108609047812445 .019449359883431 .0158655899401189 .0020826
74834637885 .018835000879669 .0155266901464851 .00296035962155518 .0179265912819
371 .015241816432521 .00359592552261163 .0168784988781517 .0151026080265264 .003
880900823862835 .0158724864313149 .0151323217284241 .003821315799253725 .0149721
445785325 .01529787929193275 .003476763196778075 .01419813811927286 .01556910533
067065 .00285867957328098 .01363103056390998 .0159044953960162 .0019707788076504
2 .01339257202692142 .0162305577482981 .00089937877768435 .01354004409615952 .01
647866940298565 -.000182336937049289 .0140319329704414 .0166323562761366 -.00112
5809876440634 .014798565060435 .0167120749765563 -.00184687329473994 .0157637994
5027995 .0167446015136391 -.00227982018592759 .016565 .0167506396740937 -.002382
402018581895 41 3 CI8 term_use0 0 1 cCZ1 91 H?.016565 .0167506396740937 -.002382
402018581895 14 255 94 165 97 ?98 99 100 5 89 -0 0 98 99 29 50 255 95 184 0 98 2
4 89 0 +.016565 .0152228137029034 .000723562690232762 0 -.998872290216758 -.0474
778668131734 0 .0474778668131734 -.998872290216758 51 23 120 0 99 89 101 102 -.0
2159 0 0 -1 0 0 .003 0 0 1 141 255 96 22 96 96 89 14 99 107 103 ?94 104 105 5 23
 +0 0 94 104 29 50 101 2 0 15 23 106 0 +.02159 .0163980040897592 .00020893669407
92725 1 0 0 0 0 -1 141 102 7 102 102 23 14 15 98 107 ?108 0 36 5 101 +0 0 108 0
 29 50 106 54 0 108 101 109 0 +0 .0163980040897592 .0002089366940792725 1 0 0 0
 0 -1 14 108 92 110 ?17 15 72 5 106 -0 0 17 15 29 50 109 70 0 104 106 18 0 +.021
59 -.02632548349992875 -.003667013125979455 0 .0474778668131734 -.99887229021675
8 0 .998872290216758 .0474778668131734 14 104 65 111 ?99 61 55 5 109 -0 0 99 61
 29 51 18 71 0 61 109 6 0 +.02159 -.00855278837318837 -.0002591889833215815 -1 0
 0 .002560171453894115 0 0 1 14 61 67 112 ?104 17 50 5 18 -0 0 104 17 29 81 1 11
2 426 113 61 114 0 111 115 116 14 17 69 115 ?61 108 117 5 6 -0 0 61 108 29 13 29
 24 0 0 0 0 0 0 9 15 81 1 115 427 113 17 118 0 112 119 120 15 117 152 0 92 17 68
 17 92 0 117 92 92 0 121 88 0 0 +17 121 0 122 121 121 0 92 88 0 0 -15 122 169 0
 121 94 0 80 255 1 113 123 124 9000 1 1 1 1 1 1 1 1 0 FFFFTFTFFFFFFF1 81 1 118 3
94 125 17 0 115 126 114 127 81 1 119 428 113 98 128 0 115 129 130 82 255 1 120 -
467336921 14 98 178 119 ?131 94 132 5 95 -0 0 131 94 29 81 1 128 399 125 98 0 11
9 133 134 135 81 1 129 429 113 131 134 0 119 0 136 82 1 130 -243924694 14 131 24
2 129 ?0 98 137 5 24 -0 0 0 98 29 81 1 134 400 125 131 0 129 128 0 138 82 1 136
 -46268118 80 1 125 0 139 8001 0 0 0 0 3 5 0 0 0 FFFFTFTFFFFFFF2 83 255 3 138 .5
01960784313726 .501960784313726 1 79 255 15 139 SDL/TYSA_COLOUR15 137 245 0 140
 131 141 51 24 251 0 131 0 95 142 +.016565 .0152228137029034 .000723562690232762
 0 .998872290216758 .0474778668131734 .0020193 0 -.0474778668131734 .99887229021
6758 141 142 7 142 142 24 17 140 0 137 140 140 0 143 21 0 0 +15 141 246 0 144 13
1 0 17 144 0 141 144 144 0 145 146 0 0 +17 145 0 132 145 145 0 144 146 0 0 -16 1
46 226 0 ?144 21 0 147 0 0 1 16 21 225 0 ?140 93 146 7 0 0 1 31 147 253 0 146 0
 148 0 +.016565 .0152228137029034 .000723562690232762 0 .998872290216758 .047477
8668131734 0 -.0474778668131734 .998872290216758 .0020193 31 148 186 0 93 147 78
 0 +.016565 .0152228137029034 .000723562690232762 0 -.998872290216758 -.04747786
68131734 0 .0474778668131734 -.998872290216758 .003175 16 93 162 0 ?149 88 21 14
8 0 0 1 31 78 124 0 73 148 150 0 +.02159 0 0 1 0 0 0 0 -1 .003 31 150 123 0 77 7
8 20 0 +0 0 0 1 0 0 0 0 -1 .003 16 77 101 0 ?151 73 88 150 0 0 1 134 20 5 0 64 1
50 65 152 +153 154 31 65 9 0 60 20 79 0 +.02159 -.00855278837318837 -.0002591889
833215815 -1 0 0 0 0 -1 .002560171453894115 141 152 6 152 152 20 136 153 3 54 3
 27 6 FFF1 155 156 157 135 154 2 0 45 162 155 .02159 -.02632548349992875 -.00366
7013125979455 .02159 -.02588501640994855 -.00529183143138332 .02159 -.0252937709
802203 -.00685500985861185 .02159 -.0238451939849136 -.00980629411018198 .02159
 -.02298792656970905 -.0111943493778112 .02159 -.02105140100566475 -.01375235243
42122 .02159 -.0199722145165317 -.01492226404364578 .02159 -.01764241484433395 -
.01701113626920665 .02159 -.01639187774408935 -.01793007605482335 .02159 -.01377
418113200496 -.0194952108297215 .02159 -.01240709895101752 -.0201414006679111 .0
2159 -.00961304301680638 -.0211506818581234 .02159 -.00818614470800054 -.0215137
8343092085 .02159 -.0053288100875924 -.02195789665749685 .02159 -.00389844436515
3805 -.022038932986476 .02159 -.001087949281893154 -.02193075894504925 .02159 .0
00292117032528461 -.0217415862291151 .02159 .002952832896155895 -.02111473073279
81 .02159 .00423342924609723 -.02067709662683955 .02159 .00665237105198453 -.019
5836453555955 .02159 .00779067499289227 -.01892788553276875 .02159 .009889971565
51444 -.0174355003933537 .02159 .01085093567282844 -.01659893844829195 .02159 .0
1256932106007836 -.01478743590480664 .02159 .0133267275415238 -.0138125618959727
8 .02159 .01462124722279518 -.01177013078632692 .02159 .0151583594978757 -.01070
264062975876 .02159 .01600525723953245 -.00852186727257846 .02159 .0163150552236
0385 -.00740864857435838 .02159 .0167098316537026 -.0051825201174866 .02159 .016
7948350803545 -.004069669803894975 .02159 .01675150364580655 -.00188772278855217
 .02159 .01662320475530485 -.000818678144435623 .02159 .0161728034242135 .001236
551532594276 .02159 .0158507460504129 .002222693849517275 .02159 .01503919262056
075 .004078780417266965 .02159 .0145497485015278 .00494869279896394 .02159 .0134
3515251695272 .0065458728071125 .02159 .0128100570020662 .00727312041446994 .021
59 .0114596211058448 .00856619770795014 .02159 .01073433891035162 .0091320196950
6656 .02159 .00846432492032774 .0105713349527582 .02159 .00682631034463374 .0111
8277968876294 .02159 .00359680348317033 .01172042795714446 .02159 .0020068594724
55375 .01164748097618024 .02159 -.000874358563474903 .0109424993264994 .02159 -.
00216461256267651 .01031182980309986 .02159 -.004281093264670225 .00869840573541
426 .02159 -.00510697539238301 .00771726162806799 .02159 -.00623707693613607 .00
564499605846387 .02159 -.00654165034000696 .00455542957813348 .02159 -.006679047
09626705 .002494871996674445 .02159 -.00651282232630776 .001525102007707585 .021
59 -.00617940617515592 .000700777065763977 127 27 156 4 2 2 2 2 2 2 2 2 2 2 2 2
 2 2 2 2 2 2 2 2 2 2 2 2 2 4 128 27 157 0 .03125 .0625 .09375 .125 .15625 .1875
 .21875 .25 .28125 .3125 .34375 .375 .40625 .4375 .46875 .5 .53125 .5625 .59375
 .625 .6875 .75 .8125 .875 .9375 1 17 151 0 158 151 151 0 159 77 0 0 +15 158 90
 0 151 108 0 17 159 0 160 159 159 0 151 77 0 0 -15 160 111 0 159 99 0 17 149 0 1
00 149 149 0 161 93 0 0 +15 100 168 0 149 94 122 17 161 0 162 161 161 0 149 93 0
 0 -15 162 180 0 161 98 0 15 132 216 0 145 98 162 17 143 0 105 143 143 0 140 21
 0 0 -15 105 209 0 143 99 163 15 163 110 0 76 99 160 17 76 0 163 76 76 0 164 73
 0 0 +17 164 0 67 164 164 0 76 73 0 0 -15 67 95 0 164 15 0 81 1 133 398 125 94 0
 97 165 128 166 83 3 135 .501960784313726 .501960784313726 1 81 1 97 421 113 94
 133 0 0 103 167 81 1 165 397 125 99 0 103 168 133 169 83 3 166 .501960784313726
 .501960784313726 1 81 1 103 422 113 99 165 0 97 107 170 81 1 168 396 125 104 0
 111 114 165 171 83 3 169 .501960784313726 .501960784313726 1 81 1 111 425 113 1
04 168 0 110 112 172 81 1 114 395 125 61 0 112 118 168 173 83 3 171 .50196078431
3726 .501960784313726 1 83 3 173 .501960784313726 .501960784313726 1 81 1 110 42
4 113 108 126 0 107 111 174 82 1 172 -467861232 81 1 126 393 125 108 0 110 175 1
18 176 81 1 107 423 113 15 175 0 103 110 177 82 1 174 -460979952 81 1 175 392 12
5 15 0 107 0 126 178 82 1 177 -460455664 83 3 178 .501960784313726 .501960784313
726 1 83 3 176 .501960784313726 .501960784313726 1 82 1 170 -462683862 82 1 167
 -241237721 83 3 127 .501960784313726 .501960784313726 1 79 14 124 SWEntUnchange
d82 1 116 -467599088 15 55 64 0 54 104 0 15 72 37 0 69 108 158 17 53 0 55 54 39
 48 51 31 0 56 +17 39 0 55 53 41 34 33 40 0 0 -17 56 0 72 47 69 48 54 57 0 0 -17
 47 0 72 69 56 46 49 52 0 30 -17 41 0 55 39 54 11 58 71 0 66 -16 40 11 0 ?33 71
 60 79 0 0 1 19 16 77 0 1 0 9 5 S0 40 22 25 0 1 22 .0001529837296548205 .3843667
159648715 ??.016565 .002120280382045385 .00212235979549027 .01598893462359135 .0
0219774838787177 .002042033795902305 .0154834435163484 .002384492485380135 .0018
20493226344355 .0150097710963764 .00264525335575093 .001415144757220424 .0146495
1070594162 .002897481148507465 .000777562212330232 .01454703149939276 .002992240
79873147 .0002156269983254845 .01460899378957552 .002978247219111365 -.000360615
4487198865 .01481908425713164 .00286821962976548 -.000879383963594962 .015192779
1567267 .002676111941643725 -.00135588527383103 .01577679658646655 .002440116253
966385 -.00174523140790242 .01630842439497055 .00232601728957047 -.0018946354711
70975 .0168754205669858 .00233247135406397 -.00188668422966619 .0173517510478421
 .002439660202852295 -.001745868865241235 .01793251889860185 .00267385063792963
 -.0013603392099191 .0183588061020033 .002893905336854675 -.000790766654155348 .
01855163900845055 .00299192886419956 -.000219912872678145 .01856870326074305 .00
2974259993940455 .0003921447289526225 .0184235503514752 .00285349279899617 .0009
26055530773949 .01812875442865865 .002650642545592385 .001405024588929148 .01764
42876454065 .002383432044669575 .001821881359595685 .01707580987633225 .00218137
6757295435 .002059513399502725 .016565 .002120280382045385 .00212235979549027 41
 1 26 H?.016565 .002120280382045385 .00212235979549027 141 19 22 19 19 6 74 4 CI
16 index_map_offset0 0 1 dCCZ20 14 3 0 0 129 2 134 0 0 0 0 0 0 0 0 0 0 0 0 0 0 0
 0 0 80 2 12 179 180 8004 0 0 0 0 3 5 0 0 0 FFTFFFFFFFFFFT2 3 83 1 13 1245.59606
3299264 79 16 180 SDL/TYSA_DENSITY1 0 
