**ABCDEFGHIJKLMNOPQRSTUVWXYZabcdefghijklmnopqrstuvwxyz**************************
**PARASOLID !"#$%&'()*+,-./:;<=>?@[\]^_`{|}~0123456789**************************
**PART1;
MC=AMD64;
MC_MODEL=Intel64 Family 6 Model 26 Stepping 5, GenuineIntel;
MC_ID=unknown;
OS=Windows_NT;
OS_RELEASE=unknown;
FRU=Parasolid Version 28.0, build 224,  7-29-2016;
APPL=SOLIDWORKS 2016-2016286;
SITE=;
USER=unknown;
FORMAT=text;
GUISE=transmit;
KEY=8699-18-327 rB Mech Wheel Shaft;
FILE=8699-18-327 rB Mech Wheel Shaft.x_t;
DATE=Wed Oct 10 18:55:44 2018;
**PART2;
SCH=SCH_2800224_28002;
USFLD_SIZE=0;
**PART3;
**END_OF_HEADER*****************************************************************
T51 : TRANSMIT FILE created by modeller version 280022423 SCH_2800224_28002_1300
6200 0 12 30 CCCCCCCCCCCCCDI5 owner1040 0 CCCCCCCCCA13 boundary_mesh1006 0 A16 i
ndex_map_offset0 0 1 dA9 index_map82 0 A17 node_id_index_map82 0 A20 schema_embe
dding_map82 0 A5 child12 0 A14 lowest_node_id0 0 1 dZ1 422 2 3 0 0 0 0 1e3 1e-8
 0 4 0 1 0 1 1 5 6 7 0 8 9 0 0 0 0 0 0 0 0 81 255 2 2 352 10 1 0 0 0 0 11 0 70 1
1 CI9 list_type0 0 1 uI10 notransmit0 0 1 lCCCDCCDI12 finger_index0 0 1 dI12 fin
ger_block1012 0 CZ3 0 4 T1 0 0 3 20 1 12 12 13 255 5 77 0 1 0 13 0 0 14 0 52 255
 6 301 0 15 16 0 0 +.058602 1332898908900802e-34 0 -1 -186172557772877e-32 0 .00
26 .707106781186551 .707106781186544 186172557772877e-32 -1 0 31 255 7 271 0 9 1
7 0 0 -.058202 1325452006589886e-34 0 1 186172557772877e-32 0 -186172557772877e-
32 1 0 .003 19 8 CCCCCCCA5 owner12 0 Z8 81 0 1 14 0 18 V0 16 255 9 268 0 ?19 0 2
0 7 0 0 1 17 255 19 0 21 19 19 0 22 9 0 0 +16 20 262 0 ?23 9 24 17 0 0 1 17 23 0
 25 23 23 0 26 20 0 0 +16 24 256 0 ?27 20 28 29 0 0 1 31 17 265 0 20 29 7 0 +.05
8602 1332898908900802e-34 0 1 186172557772879e-32 0 -186172557772879e-32 1 0 .00
26 31 29 259 0 24 30 17 0 +-.002 204655974285599e-34 0 -1 -186172557772879e-32 0
 186172557772879e-32 -1 0 .0026 31 30 253 0 28 31 29 0 --.0016 212102876596514e-
34 0 -1 -186172557772879e-32 0 186172557772879e-32 -1 0 .003 16 28 250 0 ?32 24
 33 30 0 0 1 31 31 163 0 33 34 30 0 +-8e-4 2269966812183445e-35 0 1 186172557772
879e-32 0 -186172557772879e-32 1 0 .003 16 33 130 0 ?35 28 36 31 0 0 1 31 34 162
 0 36 37 31 0 +-8e-4 2269966812183445e-35 0 1 186172557772879e-32 0 -18617255777
2879e-32 1 0 .002667 16 36 125 0 ?38 33 39 34 0 0 1 31 37 161 0 39 40 34 0 +-867
361737988404e-33 241890485840175e-34 0 1 186172557772879e-32 0 -186172557772879e
-32 1 0 .002667 16 39 120 0 ?41 36 42 37 0 0 1 31 40 160 0 42 43 37 0 +-86736173
7988404e-33 241890485840175e-34 0 1 186172557772879e-32 0 -186172557772879e-32 1
 0 .003 16 42 115 0 ?44 39 45 40 0 0 1 31 43 159 0 45 46 40 0 +.056602 129566439
7346226e-34 0 1 186172557772879e-32 0 -186172557772879e-32 1 0 .003 16 45 110 0
 ?47 42 48 43 0 0 1 31 46 158 0 48 49 43 0 +.056602 1295664397346226e-34 0 1 186
172557772879e-32 0 -186172557772879e-32 1 0 .002667 16 48 105 0 ?50 45 51 46 0 0
 1 31 49 157 0 51 52 46 0 +.057402 1310558201968056e-34 0 1 186172557772879e-32
 0 -186172557772879e-32 1 0 .002667 16 51 100 0 ?53 48 54 49 0 0 1 31 52 156 0 5
4 0 49 0 +.057402 1310558201968056e-34 0 1 186172557772879e-32 0 -18617255777287
9e-32 1 0 .003 16 54 95 0 ?55 51 0 52 0 0 1 17 55 0 56 55 55 0 57 54 0 0 +15 255
 56 217 0 55 58 0 17 57 0 59 57 57 0 55 54 0 0 -15 59 102 0 57 60 0 14 255 60 10
3 61 ?58 62 63 5 64 +0 0 58 62 18 81 1 61 410 65 60 66 0 0 67 68 14 58 98 67 ?69
 60 21 5 70 +0 0 69 60 18 14 62 108 71 ?60 72 73 5 74 +0 0 60 72 18 15 63 216 0
 53 60 59 50 255 64 146 0 60 70 74 0 +.057402 .003 0 -1 -186172557772879e-32 0 1
86172557772879e-32 -1 0 13 18 80 0 0 0 0 0 0 8 13 14 13 141 75 ?76 0 77 5 78 +0
 0 76 0 18 81 1 75 413 65 13 79 0 71 80 81 14 76 138 80 ?82 13 83 5 84 +0 0 82 1
3 18 15 77 257 0 27 13 0 50 78 154 0 13 84 16 0 +-.002 204655974285599e-34 0 -1
 -186172557772879e-32 0 186172557772879e-32 -1 0 51 255 84 153 0 76 85 78 0 +-.0
02 204655974285599e-34 0 1 186172557772879e-32 0 .003 -186172557772879e-32 1 0 5
2 16 288 0 86 78 6 0 +-.0016 212102876596514e-34 0 1 186172557772879e-32 0 .003
 .70710678118655 .707106781186546 -186172557772879e-32 1 0 14 86 281 87 ?15 69 8
8 5 16 +0 0 15 69 18 81 1 87 415 65 86 89 0 80 90 91 14 15 294 90 ?0 86 92 5 6 +
0 0 0 86 18 14 69 93 93 ?86 58 25 5 94 +0 0 86 58 18 15 88 282 0 95 86 96 17 95
 0 88 95 95 0 27 24 0 0 -15 96 283 0 97 86 0 17 97 0 96 97 97 0 32 28 0 0 -17 32
 0 83 32 32 0 97 28 0 0 +15 83 251 0 32 76 98 15 98 137 0 99 76 0 17 99 0 98 99
 99 0 35 33 0 0 -17 35 0 100 35 35 0 99 33 0 0 +15 100 210 0 35 82 101 14 82 133
 102 ?103 76 100 5 85 +0 0 103 76 18 15 101 132 0 104 82 0 17 104 0 101 104 104
 0 38 36 0 0 -17 38 0 105 38 38 0 104 36 0 0 +15 105 211 0 38 103 106 14 103 128
 107 ?108 82 105 5 109 +0 0 108 82 18 15 106 127 0 110 103 0 17 110 0 106 110 11
0 0 41 39 0 0 -17 41 0 111 41 41 0 110 39 0 0 +15 111 212 0 41 108 112 14 108 12
3 113 ?114 103 111 5 115 +0 0 114 103 18 15 112 122 0 116 108 0 17 116 0 112 116
 116 0 44 42 0 0 -17 44 0 117 44 44 0 116 42 0 0 +15 117 213 0 44 114 118 14 114
 118 119 ?72 108 117 5 120 +0 0 72 108 18 15 118 117 0 121 114 0 17 121 0 118 12
1 121 0 47 45 0 0 -17 47 0 122 47 47 0 121 45 0 0 +15 122 214 0 47 72 123 14 72
 113 124 ?62 114 122 5 125 +0 0 62 114 18 15 123 112 0 126 72 0 17 126 0 123 126
 126 0 50 48 0 0 -17 50 0 73 50 50 0 126 48 0 0 +15 73 215 0 50 62 127 15 127 10
7 0 128 62 0 17 128 0 127 128 128 0 53 51 0 0 -17 53 0 63 53 53 0 128 51 0 0 +81
 1 124 422 65 72 129 0 119 0 130 50 125 148 0 72 74 120 0 +.056602 .003 0 1 1861
72557772879e-32 0 -186172557772879e-32 1 0 51 74 147 0 62 64 125 0 +-.002 204655
974285599e-34 0 1 186172557772879e-32 0 .002667 -186172557772879e-32 1 0 51 120
 149 0 114 125 115 0 +-.002 204655974285599e-34 0 1 186172557772879e-32 0 .003 -
186172557772879e-32 1 0 50 115 150 0 108 120 109 0 +-976091932545646e-33 .003 0
 -1 -186172557772879e-32 0 186172557772879e-32 -1 0 51 109 151 0 103 115 85 0 +-
.002 204655974285599e-34 0 1 186172557772879e-32 0 .002667 -186172557772879e-32
 1 0 50 85 152 0 82 109 84 0 +-8e-4 .003 0 1 186172557772879e-32 0 -186172557772
879e-32 1 0 80 255 1 65 131 132 9000 1 1 1 1 1 1 1 1 0 FFFFTFTFFFFFFF1 81 1 129
 375 133 72 0 124 134 135 136 81 1 119 421 65 114 134 0 113 124 137 82 255 1 130
 -369491834 81 1 134 374 133 114 0 119 138 129 139 81 1 113 420 65 108 138 0 107
 119 140 82 1 137 -368902010 81 1 138 373 133 108 0 113 141 134 142 81 1 107 419
 65 103 141 0 102 113 143 82 1 140 -368312186 81 1 141 372 133 103 0 107 144 138
 145 81 1 102 418 65 82 144 0 93 107 146 82 1 143 -367722362 81 1 144 371 133 82
 0 102 147 141 148 81 1 93 417 65 69 149 0 90 102 150 82 1 146 -367132538 81 1 1
49 379 133 69 0 93 151 89 152 81 1 90 416 65 15 153 0 87 93 154 82 1 150 -371851
129 81 1 153 381 133 15 0 90 89 0 155 82 1 154 -353632121 80 1 133 0 156 8001 0
 0 0 0 3 5 0 0 0 FFFFTFTFFFFFFF2 81 1 89 380 133 86 0 87 149 153 157 83 255 3 15
5 .647058823529412 .619607843137255 .588235294117647 83 3 157 .647058823529412 .
619607843137255 .588235294117647 79 255 15 156 SDL/TYSA_COLOUR81 1 151 378 133 5
8 0 67 66 149 158 83 3 152 .647058823529412 .619607843137255 .588235294117647 81
 1 67 411 65 58 151 0 61 71 159 81 1 66 377 133 60 0 61 135 151 160 83 3 158 .64
7058823529412 .619607843137255 .588235294117647 81 1 135 376 133 62 0 71 129 66
 161 83 3 160 .647058823529412 .619607843137255 .588235294117647 81 1 71 412 65
 62 135 0 67 75 162 83 3 161 .647058823529412 .619607843137255 .588235294117647
 82 1 162 -370081658 82 1 159 -371261305 81 1 147 370 133 76 0 80 79 144 163 83
 3 148 .647058823529412 .619607843137255 .588235294117647 81 1 80 414 65 76 147
 0 75 87 164 81 1 79 369 133 13 0 75 0 147 165 83 3 163 .647058823529412 .619607
843137255 .588235294117647 83 3 165 .647058823529412 .619607843137255 .588235294
117647 82 1 164 -366542713 83 3 145 .647058823529412 .619607843137255 .588235294
117647 83 3 142 .647058823529412 .619607843137255 .588235294117647 83 3 139 .647
058823529412 .619607843137255 .588235294117647 83 3 136 .647058823529412 .619607
843137255 .588235294117647 79 14 132 SWEntUnchanged17 27 0 77 27 27 0 95 24 0 0
 +15 25 263 0 23 69 0 50 94 144 0 69 0 70 0 +.058602 519903319015441e-53 0 1 186
172557772879e-32 0 -186172557772879e-32 1 0 51 70 145 0 58 94 64 0 +-.002 204655
974285599e-34 0 1 186172557772879e-32 0 .003 -186172557772879e-32 1 0 15 92 295
 0 22 15 166 17 22 0 92 22 22 0 19 9 0 0 -15 166 296 0 26 15 0 17 26 0 166 26 26
 0 23 20 0 0 -82 1 91 -354877305 82 1 81 -366215033 15 21 269 0 19 58 56 82 1 68
 -370671482 19 14 76 0 1 0 8 5 S0 74 4 CI16 index_map_offset0 0 1 dCCZ20 12 3 0
 0 124 2 153 0 0 0 0 0 0 0 0 0 0 0 0 0 0 0 0 0 80 2 10 167 168 8004 0 0 0 0 3 5
 0 0 0 FFTFFFFFFFFFFT2 3 83 1 11 79e2 79 16 168 SDL/TYSA_DENSITY1 0 
