**ABCDEFGHIJKLMNOPQRSTUVWXYZabcdefghijklmnopqrstuvwxyz**************************
**PARASOLID !"#$%&'()*+,-./:;<=>?@[\]^_`{|}~0123456789**************************
**PART1;
MC=AMD64;
MC_MODEL=Intel64 Family 6 Model 26 Stepping 5, GenuineIntel;
MC_ID=unknown;
OS=Windows_NT;
OS_RELEASE=unknown;
FRU=Parasolid Version 28.0, build 224,  7-29-2016;
APPL=SOLIDWORKS 2016-2016286;
SITE=;
USER=unknown;
FORMAT=text;
GUISE=transmit;
KEY=8699-18-328 rB Mech Wheel Hub;
FILE=8699-18-328 rB Mech Wheel Hub.x_t;
DATE=Mon Oct 08 19:19:20 2018;
**PART2;
SCH=SCH_2800224_28002;
USFLD_SIZE=0;
**PART3;
**END_OF_HEADER*****************************************************************
T51 : TRANSMIT FILE created by modeller version 280022423 SCH_2800224_28002_1300
6200 0 12 30 CCCCCCCCCCCCCDI5 owner1040 0 CCCCCCCCCA13 boundary_mesh1006 0 A16 i
ndex_map_offset0 0 1 dA9 index_map82 0 A17 node_id_index_map82 0 A20 schema_embe
dding_map82 0 A5 child12 0 A14 lowest_node_id0 0 1 dZ1 1016 2 3 0 0 0 0 1e3 1e-8
 0 4 0 1 0 1 1 5 6 7 0 8 9 0 0 0 0 0 0 0 0 81 255 2 2 774 10 1 0 0 0 0 11 0 70 1
1 CI9 list_type0 0 1 uI10 notransmit0 0 1 lCCCDCCDI12 finger_index0 0 1 dI12 fin
ger_block1012 0 CZ3 0 4 T1 0 0 3 20 1 12 12 13 255 5 53 0 1 0 13 0 0 14 0 52 255
 6 746 0 15 16 0 0 +.00875 0 0 -1 0 0 .004 .70710678118655 .707106781186546 0 0
 1 31 255 7 660 0 9 17 0 0 +.00875 0 0 -1 0 0 0 0 1 .004 19 8 CCCCCCCA5 owner12
 0 Z8 57 0 1 14 0 18 V0 16 255 9 657 0 ?19 0 20 7 0 0 1 17 255 19 0 21 19 19 0 2
2 9 0 0 +16 20 651 0 ?23 9 24 17 0 0 1 17 23 0 25 23 23 0 26 20 0 0 +16 24 645 0
 ?27 20 28 29 0 0 1 31 17 654 0 20 29 7 0 +.00905 0 0 -1 0 0 0 0 1 .0033 31 29 6
48 0 24 30 17 0 -.00905 0 0 -1 0 0 0 0 1 .0037 31 30 642 0 28 31 29 0 -171262074
5880655e-33 0 0 -1 0 0 0 0 1 .0139621 16 28 639 0 ?32 24 33 30 0 0 1 31 31 636 0
 33 34 30 0 +-.0022 0 0 1 0 0 0 0 -1 .0142621 16 33 633 0 ?35 28 36 31 0 0 1 31
 34 630 0 36 37 31 0 +-.0002999999999999965 0 0 -1 0 0 0 0 1 .0142621 16 36 627
 0 ?38 33 39 34 0 0 1 31 37 624 0 39 40 34 0 --.0025 0 0 1 0 0 0 0 -1 .0139621 1
6 39 621 0 ?41 36 42 37 0 0 1 31 40 618 0 42 43 37 0 +-.0092 0 0 1 0 0 0 0 -1 .0
115 16 42 615 0 ?44 39 45 40 0 0 1 31 43 612 0 45 46 40 0 +-.0095 0 0 1 0 0 0 0
 -1 .0033 16 45 609 0 ?47 42 48 43 0 0 1 31 46 606 0 48 49 43 0 --.0095 0 0 1 0
 0 0 0 -1 .0112 16 48 603 0 ?50 45 51 46 0 0 1 31 49 600 0 51 52 46 0 --.0092 0
 0 1 0 0 0 0 -1 .003 16 51 597 0 ?53 48 54 49 0 0 1 31 52 594 0 54 55 49 0 -.008
75 0 0 -1 0 0 0 0 1 .003 16 54 591 0 ?56 51 57 52 0 0 1 38 255 55 479 0 57 58 52
 0 +59 60 61 62 62 16 57 477 0 ?63 54 64 55 0 0 1 31 58 113 0 64 65 55 0 +-.0025
 0 0 -1 0 0 0 0 1 .0115 51 255 59 105 0 13 66 67 68 -0 0 0 -1 0 0 .0115 0 0 1 51
 60 555 0 69 0 70 71 +-.006 .00813172798364529 .00813172798364532 0 .70710678118
6547 .707106781186549 .0017272 0 -.707106781186549 .707106781186547 40 255 20 61
 0 1 20 988933351843111e-19 .340784859240993 ??-.006 .00681817458415801 .0092608
0424908883 -.00656804871140305 .00689614393919265 .00920289078333197 -.007072002
26337527 .00711753683875756 .0090327553575268 -.00745914020598352 .0074519242891
2889 .00875892826715066 -.0076833061813883 .00785353692531409 .00840071174143763
 -.00771664406871733 .0082654304951198 .00799579006292335 -.00755958081586879 .0
0863961913155621 .00758992630146354 -.00722967063844534 .00894402426576653 .0072
2872256580507 -.00675847524092235 .00915461346117587 .00696010433660715 -.006200
26277993334 .00925381407790366 .00682765882360799 -.00562448573265062 .009235974
01961295 .00685177231882631 -.00509365337817675 .00910464636587358 .007025340885
13753 -.00466026418994679 .0088659321417261 .00732429158747166 -.004374354605111
245 .00853386481430756 .00770864134145074 -.004272841689600915 .0081402091563444
8 .00812323795607179 -.004364548670359225 .00772947871662881 .00851499611093172
 -.00463656849849897 .00734733168619756 .00884684786197871 -.00506312428259455 .
00704070566538689 .00909276986035548 -.00559843224605946 .00685665491130348 .009
23234983237192 -.006 .00681817458415801 .00926080424908883 41 3 CI8 term_use0 0
 1 cCZ1 62 H?-.006 .00681817458415801 .00926080424908883 14 255 69 516 72 ?73 74
 75 5 60 -0 0 73 74 18 51 70 370 0 74 60 76 0 +0 .008 0 1 0 0 .00189865 0 0 -1 1
41 255 71 55 77 77 60 141 77 78 71 71 60 38 78 556 0 79 0 80 0 +81 60 82 83 83 1
6 79 503 0 ?84 85 0 78 0 0 1 31 80 372 0 85 78 86 0 +-192079727212268e-33 .008 0
 1 0 0 0 0 -1 .00189865 51 81 99 0 87 88 89 90 +0 0 0 -1 0 0 .003 0 0 1 40 21 82
 0 1 21 .000120713650369514 .383467173123382 ??-.006 .000513156291537535 .002955
78595646834 -.00548482400621685 .000606591395895953 .00293803452641813 -.0050302
8565658376 .000854428975834731 .002875752271189925 -.00462797771641529 .00124548
228959465 .002729244193234835 -.004346566636706245 .00173861115073843 .002444837
676928265 -.004274309924644455 .002171762675230405 .00206964897566618 -.00437028
09474794 .002486895181170335 .001677901176431965 -.00460354974819157 .0027145826
9852167 .001277122066557 -.0049937718393887 .00286739088616102 .0008820824825155
1 -.00554832395890244 .00294244618143016 .000584816611757108 -.00602936438746117
 .00295573371926163 .000513457087612802 -.00650741251461405 .002938615648741195
 .00060376988081005 -.00693997404053153 .00288207639130865 .000832847930093667 -
.0073476393234294 .0027429043257502 .001215103230092338 -.00764118640179171 .002
4675057781733 .001706286973132415 -.00772681218386262 .002095282735681835 .00214
7042211404715 -.00764026447522896 .00170394257723472 .00246912528914324 -.007416
31687215871 .00130381667196186 .002701862706710745 -.00703736444509927 .00090670
5215319308 .00285970027319521 -.00649161815414292 .000598167141404796 .002939761
226859015 -.006 .000513156291537534 .00295578595646834 41 1 83 H?-.006 .00051315
6291537535 .00295578595646834 14 87 64 91 ?92 93 94 5 81 -0 0 92 93 18 51 88 238
 0 92 95 81 0 +0 0 .008 1 0 0 .00189865 0 0 -1 51 89 101 0 96 81 97 0 -0 0 0 -1
 0 0 .004 0 0 1 141 90 78 90 90 81 14 96 74 98 ?93 99 21 5 89 -0 0 93 99 18 50 2
55 97 102 0 99 89 100 0 +1712620745880655e-33 .0142621 0 -1 0 0 0 0 1 14 99 79 1
01 ?96 102 103 5 97 -0 0 96 102 18 51 100 103 0 102 97 66 0 -0 0 0 -1 0 0 .01426
21 0 0 1 14 102 84 104 ?99 105 106 5 100 -0 0 99 105 18 50 66 104 0 105 100 59 0
 +-.0025 .0142621 0 1 0 0 0 0 -1 14 105 89 107 ?102 108 109 5 66 -0 0 102 108 18
 81 1 107 1003 110 105 111 0 104 112 113 14 108 97 112 ?105 13 114 5 67 -0 0 105
 13 18 15 255 109 622 0 41 105 115 13 18 56 0 0 0 0 0 0 8 13 14 13 399 116 ?108
 0 117 5 59 -0 0 108 0 18 81 1 116 1005 110 13 118 0 112 119 120 15 117 616 0 44
 13 121 17 44 0 117 44 44 0 122 42 0 0 +15 121 474 0 63 13 123 17 63 0 121 63 63
 0 124 57 0 0 +15 123 93 0 125 13 0 17 125 0 123 125 125 0 126 64 0 0 +17 126 0
 115 126 126 0 125 64 0 0 -16 64 86 0 ?125 57 127 58 0 0 1 16 127 71 0 ?128 64 1
29 65 0 0 1 17 128 0 130 128 128 0 131 127 0 0 +16 129 220 0 ?132 127 133 134 0
 0 1 31 65 110 0 127 134 58 0 +823156277796097e-33 0 0 -1 0 0 0 0 1 .004 31 134
 239 0 129 135 65 0 +-.0095 0 .008 1 0 0 0 0 -1 .00189865 31 135 240 0 133 136 1
34 0 +-192079727212268e-33 0 .008 1 0 0 0 0 -1 .00189865 16 133 219 0 ?137 129 1
38 135 0 0 1 31 136 283 0 138 139 135 0 +-.0095 0 -.008 1 0 0 0 0 -1 .00189865 1
6 138 264 0 ?140 133 141 136 0 0 1 31 139 284 0 141 142 136 0 +-192079727212268e
-33 0 -.008 1 0 0 0 0 -1 .00189865 16 141 263 0 ?143 138 144 139 0 0 1 31 142 32
7 0 144 145 139 0 +-.0095 -.008 0 1 0 0 0 0 -1 .00189865 16 144 308 0 ?146 141 1
47 142 0 0 1 31 145 328 0 147 86 142 0 +-192079727212268e-33 -.008 0 1 0 0 0 0 -
1 .00189865 16 147 307 0 ?148 144 149 145 0 0 1 31 86 371 0 149 80 145 0 +-.0095
 .008 0 1 0 0 0 0 -1 .00189865 16 149 352 0 ?150 147 85 86 0 0 1 17 150 0 151 15
0 150 0 152 149 0 0 +16 85 351 0 ?153 149 79 80 0 0 1 17 153 0 154 153 153 0 155
 85 0 0 +15 154 365 0 153 74 0 17 155 0 156 155 155 0 153 85 0 0 -15 156 331 0 1
55 99 157 15 157 287 0 158 99 159 17 158 0 157 158 158 0 148 147 0 0 -15 159 243
 0 160 99 161 17 160 0 159 160 160 0 143 141 0 0 -15 161 209 0 162 99 130 17 162
 0 161 162 162 0 137 133 0 0 -15 130 78 0 128 99 0 17 137 0 163 137 137 0 162 13
3 0 0 +15 163 233 0 137 92 0 14 92 229 119 ?164 87 165 5 88 -0 0 164 87 18 81 1
 119 1006 110 92 166 0 116 167 168 14 164 273 167 ?169 92 170 5 95 -0 0 169 92 1
8 15 165 232 0 171 92 163 17 171 0 165 171 171 0 132 129 0 0 -17 132 0 172 132 1
32 0 171 129 0 0 +15 172 199 0 132 108 0 81 1 167 1007 110 164 173 0 119 174 175
 14 169 317 174 ?74 164 176 5 76 -0 0 74 164 18 15 170 276 0 177 164 178 51 95 2
82 0 164 76 88 0 +0 0 -.008 1 0 0 .00189865 0 0 -1 51 76 326 0 169 70 95 0 +0 -.
008 0 1 0 0 .00189865 0 0 -1 17 177 0 170 177 177 0 140 138 0 0 -15 178 277 0 14
3 164 0 17 143 0 178 143 143 0 160 141 0 0 +17 140 0 179 140 140 0 177 138 0 0 +
15 179 253 0 140 108 172 81 1 174 1008 110 169 180 0 167 181 182 14 74 361 181 ?
69 169 183 5 70 -0 0 69 169 18 15 176 320 0 184 169 185 17 184 0 176 184 184 0 1
46 144 0 0 -15 185 321 0 148 169 0 17 148 0 185 148 148 0 158 147 0 0 +17 146 0
 186 146 146 0 184 144 0 0 +15 186 297 0 146 108 179 81 1 181 1009 110 74 187 0
 174 188 189 15 183 364 0 152 74 154 17 152 0 183 152 152 0 150 149 0 0 -80 255
 1 110 190 191 9000 1 1 1 1 1 1 1 1 0 FFFFTFTFFFFFFF1 81 1 187 950 192 74 0 181
 180 193 194 81 1 188 1010 110 73 195 0 181 196 197 82 255 1 189 -1962475327 14
 73 674 188 ?198 69 199 5 200 +0 0 198 69 18 81 1 195 952 192 73 0 188 193 201 2
02 81 1 196 1011 110 198 201 0 188 203 204 82 1 197 -1839202106 14 198 687 196 ?
205 73 206 5 207 +0 0 205 73 18 81 1 201 953 192 198 0 196 195 208 209 81 1 203
 1012 110 205 208 0 196 210 211 82 1 204 -1837956922 14 205 700 203 ?212 198 213
 5 214 +0 0 212 198 18 81 1 208 954 192 205 0 203 201 215 216 81 1 210 1013 110
 212 215 0 203 217 218 82 1 211 -1836711738 14 212 713 210 ?219 205 220 5 221 +0
 0 219 205 18 81 1 215 955 192 212 0 210 208 222 223 81 1 217 1014 110 219 222 0
 210 224 225 82 1 218 -1835466554 14 219 726 217 ?15 212 226 5 16 +0 0 15 212 18
 81 1 222 956 192 219 0 217 215 227 228 81 1 224 1015 110 15 227 0 217 229 230 8
2 1 225 -1834221370 14 15 739 224 ?0 219 231 5 6 +0 0 0 219 18 81 1 227 957 192
 15 0 224 222 0 232 81 1 229 1016 110 93 233 0 224 0 234 82 1 230 -1832976186 14
 93 69 229 ?87 96 25 5 235 -0 0 87 96 18 81 1 233 945 192 93 0 229 236 237 238 8
2 1 234 -1444085562 80 1 192 0 239 8001 0 0 0 0 3 5 0 0 0 FFFFTFTFFFFFFF2 81 1 2
36 944 192 96 0 98 240 233 241 81 1 237 946 192 87 0 91 233 166 242 83 255 3 238
 .898039215686275 .917647058823529 .929411764705882 81 1 91 999 110 87 237 0 72
 98 243 81 1 166 947 192 92 0 119 237 173 244 83 3 242 .898039215686275 .9176470
58823529 .929411764705882 81 1 173 948 192 164 0 167 166 180 245 83 3 244 .89803
9215686275 .917647058823529 .929411764705882 81 1 180 949 192 169 0 174 173 187
 246 83 3 245 .898039215686275 .917647058823529 .929411764705882 83 3 246 .89803
9215686275 .917647058823529 .929411764705882 81 1 72 998 110 69 193 0 0 91 247 8
1 1 98 1000 110 96 236 0 91 101 248 82 1 243 -1444675386 81 1 101 1001 110 99 24
0 0 98 104 249 82 1 248 -1443495738 81 1 240 943 192 99 0 101 250 236 251 81 1 1
04 1002 110 102 250 0 101 107 252 82 1 249 -1442905914 81 1 250 942 192 102 0 10
4 111 240 253 82 1 252 -1442316090 81 1 111 941 192 105 0 107 254 250 255 83 3 2
53 .898039215686275 .917647058823529 .929411764705882 81 1 254 940 192 108 0 112
 118 111 256 83 3 255 .898039215686275 .917647058823529 .929411764705882 81 1 11
2 1004 110 108 254 0 107 116 257 81 1 118 939 192 13 0 116 0 254 258 83 3 256 .8
98039215686275 .917647058823529 .929411764705882 83 3 258 .898039215686275 .9176
47058823529 .929411764705882 82 1 257 -1440808762 83 3 251 .898039215686275 .917
647058823529 .929411764705882 81 1 193 951 192 69 0 72 187 195 259 82 1 247 -186
4892220 83 3 259 .898039215686275 .917647058823529 .929411764705882 83 3 241 .89
8039215686275 .917647058823529 .929411764705882 79 255 15 239 SDL/TYSA_COLOUR15
 25 652 0 23 93 260 50 235 577 0 93 67 200 0 +.00905 .003 0 -1 0 0 0 0 1 50 67 1
06 0 108 59 235 0 +-.0095 .003 0 1 0 0 0 0 -1 52 200 681 0 73 235 207 0 --.0092
 0 0 -1 0 0 .003 .707106781186542 .707106781186553 0 0 1 52 207 694 0 198 200 21
4 0 +-.0095 0 0 1 0 0 .0112 .707106781186543 .707106781186552 0 0 -1 52 214 707
 0 205 207 221 0 +-.0025 0 0 1 0 0 .0139621 .707106781186546 .70710678118655 0 0
 -1 52 221 720 0 212 214 16 0 +-.0002999999999999965 0 0 -1 0 0 .0142621 .707106
781186552 .707106781186543 0 0 1 52 16 733 0 219 221 6 0 -.00905 0 0 1 0 0 .0033
 .707106781186547 .707106781186548 0 0 -1 15 260 646 0 27 93 0 17 27 0 260 27 27
 0 261 24 0 0 +17 261 0 231 261 261 0 27 24 0 0 -15 231 740 0 261 15 262 15 262
 741 0 22 15 0 17 22 0 262 22 22 0 19 9 0 0 -83 3 232 .898039215686275 .91764705
8823529 .929411764705882 83 3 228 .898039215686275 .917647058823529 .92941176470
5882 15 226 727 0 263 219 264 17 263 0 226 263 263 0 56 54 0 0 -15 264 728 0 26
 219 0 17 26 0 264 26 26 0 23 20 0 0 -17 56 0 265 56 56 0 263 54 0 0 +15 265 592
 0 56 87 266 15 266 494 0 84 87 0 17 84 0 266 84 84 0 267 79 0 0 +17 267 0 268 2
67 267 0 84 79 0 0 -15 268 520 0 267 69 0 83 3 223 .898039215686275 .91764705882
3529 .929411764705882 15 220 714 0 269 212 270 17 269 0 220 269 269 0 32 28 0 0
 -15 270 715 0 271 212 0 17 271 0 270 271 271 0 38 36 0 0 -17 38 0 272 38 38 0 2
71 36 0 0 +15 272 628 0 38 102 0 17 32 0 103 32 32 0 269 28 0 0 +15 103 640 0 32
 99 156 83 3 216 .898039215686275 .917647058823529 .929411764705882 15 213 701 0
 273 205 274 17 273 0 213 273 273 0 35 33 0 0 -15 274 702 0 275 205 0 17 275 0 2
74 275 275 0 41 39 0 0 -17 41 0 109 41 41 0 275 39 0 0 +17 35 0 106 35 35 0 273
 33 0 0 +15 106 634 0 35 102 272 83 3 209 .898039215686275 .917647058823529 .929
411764705882 15 206 688 0 122 198 276 17 122 0 206 122 122 0 44 42 0 0 -15 276 6
89 0 277 198 0 17 277 0 276 277 277 0 50 48 0 0 -17 50 0 278 50 50 0 277 48 0 0
 +15 278 604 0 50 108 151 15 151 341 0 150 108 186 83 3 202 .898039215686275 .91
7647058823529 .929411764705882 15 199 675 0 279 73 280 17 279 0 199 279 279 0 47
 45 0 0 -15 280 676 0 281 73 0 17 281 0 280 281 281 0 53 51 0 0 -17 53 0 94 53 5
3 0 281 51 0 0 +15 94 598 0 53 87 265 17 47 0 114 47 47 0 279 45 0 0 +15 114 610
 0 47 108 278 83 3 194 .898039215686275 .917647058823529 .929411764705882 79 14
 191 SWEntUnchanged82 1 182 -1946353471 82 1 175 -1930297151 82 1 168 -191424083
1 17 131 0 282 131 131 0 128 127 0 0 -15 282 151 0 131 96 0 15 115 148 0 126 105
 0 17 124 0 75 124 124 0 63 57 0 0 -15 75 519 0 124 69 268 82 1 120 -1891499834
 82 1 113 -1441726266 15 21 658 0 19 96 282 141 68 55 68 68 59 19 14 52 0 1 0 8
 5 S0 74 4 CI16 index_map_offset0 0 1 dCCZ20 12 3 0 0 229 2 227 0 0 0 0 0 0 0 0
 0 0 0 0 0 0 0 0 0 80 2 10 283 284 8004 0 0 0 0 3 5 0 0 0 FFTFFFFFFFFFFT2 3 83 1
 11 27e2 79 16 284 SDL/TYSA_DENSITY1 0 
