**ABCDEFGHIJKLMNOPQRSTUVWXYZabcdefghijklmnopqrstuvwxyz**************************
**PARASOLID !"#$%&'()*+,-./:;<=>?@[\]^_`{|}~0123456789**************************
**PART1;
MC=AMD64;
MC_MODEL=Intel64 Family 6 Model 26 Stepping 5, GenuineIntel;
MC_ID=unknown;
OS=Windows_NT;
OS_RELEASE=unknown;
FRU=Parasolid Version 28.0, build 224,  7-29-2016;
APPL=SOLIDWORKS 2016-2016286;
SITE=;
USER=unknown;
FORMAT=text;
GUISE=transmit;
KEY=8699-18-349 rA.01 Frame Support Wheels;
FILE=8699-18-349 rA.01 Frame Support Wheels.x_t;
DATE=Wed Oct 10 18:54:46 2018;
**PART2;
SCH=SCH_2800224_28002;
USFLD_SIZE=0;
**PART3;
**END_OF_HEADER*****************************************************************
T51 : TRANSMIT FILE created by modeller version 280022423 SCH_2800224_28002_1300
6200 0 12 30 CCCCCCCCCCCCCDI5 owner1040 0 CCCCCCCCCA13 boundary_mesh1006 0 A16 i
ndex_map_offset0 0 1 dA9 index_map82 0 A17 node_id_index_map82 0 A20 schema_embe
dding_map82 0 A5 child12 0 A14 lowest_node_id0 0 1 dZ1 1608 0 2 0 0 0 0 1e3 1e-8
 0 3 0 1 0 1 1 4 5 6 7 8 9 10 0 0 0 0 0 0 0 70 11 CI9 list_type0 0 1 uI10 notran
smit0 0 1 lCCCDCCDI12 finger_index0 0 1 dI12 finger_block1012 0 CZ2 0 4 T1 0 0 2
 20 1 11 11 13 255 4 94 0 1 0 12 0 0 13 0 50 255 5 1260 0 14 15 0 0 --.028 .0135
 .013 0 -.707106781186548 -.707106781186548 1 0 0 30 255 6 1071 0 9 16 0 0 +-.02
8 .0135 -.039 -1 0 0 29 255 7 1053 0 10 17 0 -.022 .0135 .013 19 8 CCCCCCCA5 own
er12 0 Z8 28 0 1 13 0 18 V0 16 255 9 1069 0 ?19 0 20 6 0 0 1 18 255 10 1051 0 21
 0 22 7 ?1 17 255 21 0 23 24 25 10 26 27 0 28 -18 22 1048 0 29 10 30 17 ?1 17 29
 0 31 32 33 22 34 35 0 36 +18 30 1025 0 37 22 38 39 ?1 29 17 1050 0 22 39 7 -.02
2 .0135 -.039 29 39 1027 0 30 40 17 -.006 .0135 .013 29 40 1024 0 38 41 39 -.006
 .0135 -.039 18 38 1022 0 42 30 43 40 ?1 29 41 1001 0 43 44 40 -.022 .0125 .014
 18 43 999 0 26 38 45 41 ?1 29 44 998 0 45 46 41 -.006 .0125 .014 18 45 996 0 47
 43 48 44 ?1 29 46 985 0 48 49 44 -.006 -.0125 .014 18 48 983 0 50 45 51 46 ?1 2
9 49 962 0 51 52 46 0 .0135 .013 18 51 960 0 53 48 54 49 ?1 29 52 959 0 54 55 49
 0 .0135 -.039 18 54 957 0 56 51 57 52 ?1 29 55 956 0 57 58 52 0 -.0125 .014 18
 57 954 0 59 54 60 55 ?1 29 58 953 0 60 61 55 0 .0125 .014 18 60 951 0 62 57 63
 58 ?1 29 61 940 0 63 64 58 0 -.0135 -.039 18 63 938 0 65 60 66 61 ?1 29 64 937
 0 66 67 61 0 -.0135 .013 18 66 935 0 68 63 69 64 ?1 29 67 934 0 69 70 64 -.006
 -.0135 .013 18 69 932 0 71 66 72 67 ?1 29 70 931 0 72 73 67 -.006 -.0135 -.039
 18 72 929 0 74 69 75 70 ?1 29 73 908 0 75 76 70 -.028 .0135 .013 18 75 906 0 77
 72 78 73 ?1 29 76 905 0 78 79 73 -.028 .0135 -.039 18 78 903 0 19 75 80 76 ?1 2
9 79 902 0 80 81 76 -.028 -.0125 .014 18 80 900 0 82 78 83 79 ?1 29 81 899 0 83
 84 79 -.028 .0125 .014 18 83 897 0 85 80 86 81 ?1 29 84 876 0 86 87 81 -.006 -.
0125 -.04 18 86 874 0 88 83 89 84 ?1 29 87 873 0 89 90 84 0 .0125 -.04 18 89 871
 0 91 86 92 87 ?1 29 90 870 0 92 93 87 0 -.0125 -.04 18 92 868 0 94 89 95 90 ?1
 29 93 867 0 95 96 90 -.006 .0125 -.04 18 95 865 0 97 92 98 93 ?1 29 96 864 0 98
 99 93 -.022 .0125 -.04 18 98 862 0 34 95 100 96 ?1 29 99 861 0 100 101 96 -.028
 .0125 -.04 18 100 859 0 102 98 103 99 ?1 29 101 858 0 103 104 99 -.028 -.0125 -
.04 18 103 856 0 105 100 106 101 ?1 29 104 845 0 106 107 101 -.022 -.0125 -.04 1
8 106 843 0 108 103 109 104 ?1 29 107 842 0 109 110 104 -.022 -.0125 .014 18 109
 840 0 111 106 112 107 ?1 29 110 829 0 112 113 107 -.028 -.0135 -.039 18 112 827
 0 114 109 115 110 ?1 29 113 826 0 115 116 110 -.028 -.0135 .013 18 115 824 0 11
7 112 118 113 ?1 29 116 823 0 118 119 113 -.022 -.0135 .013 18 118 821 0 120 115
 121 116 ?1 29 119 820 0 121 122 116 -.022 -.0135 -.039 18 121 818 0 123 118 124
 119 ?1 29 122 415 0 124 125 119 -.006 .0055 -.04 18 124 413 0 126 121 127 122 ?
1 29 125 564 0 128 129 122 -.006 .0055 .014 18 128 497 0 130 127 131 125 ?1 29 1
29 565 0 131 132 125 -.022 .0055 .014 18 131 491 0 133 128 134 129 ?1 29 132 569
 0 127 135 129 -.022 .0055 -.04 18 127 496 0 136 124 128 132 ?1 29 135 752 0 137
 138 132 -.022 -.0055 .014 18 137 685 0 139 140 141 135 ?1 29 138 753 0 141 142
 135 -.006 -.0055 .014 18 141 683 0 143 137 0 138 ?1 29 142 756 0 134 144 138 -.
022 -.0055 -.04 18 134 680 0 145 131 140 142 ?1 29 144 757 0 140 0 142 -.006 -.0
055 -.04 18 140 684 0 146 134 137 144 ?1 17 146 0 147 148 88 140 149 150 0 151 +
15 255 147 630 0 152 153 0 17 148 0 147 152 146 134 154 155 0 0 +17 88 0 147 146
 156 86 157 158 0 149 +17 149 0 159 74 151 86 146 150 0 160 -16 150 875 0 ?146 1
55 161 162 0 0 1 17 151 0 159 149 143 140 163 164 0 154 -15 159 702 0 149 165 16
6 17 143 0 159 151 50 141 167 168 0 163 +17 163 0 169 170 154 141 151 164 0 171
 +16 164 658 0 ?163 172 173 174 0 0 1 17 154 0 169 163 145 140 148 155 0 0 -15 1
69 715 0 170 175 0 17 145 0 169 154 170 134 139 172 0 176 -16 155 660 0 ?148 177
 150 178 0 0 1 16 177 819 0 ?179 173 155 180 0 0 1 30 178 748 0 155 162 181 0 +-
.022 -.0055 -.04 -1 0 0 30 162 749 0 150 182 178 0 +-.006 -.0135 -.04 -216840434
497101e-30 1 0 30 181 747 0 183 178 184 0 +-.022 -.0135 .014 0 -1 0 16 183 668 0
 ?185 168 0 181 0 0 1 30 184 745 0 168 181 186 0 +-.006 -.0135 .014 -21684043449
7101e-30 1 0 16 168 984 0 ?143 187 183 184 0 0 1 30 186 744 0 187 184 188 0 +-.0
22 -.0055 .014 -1 0 0 16 187 677 0 ?170 161 168 186 0 0 1 30 188 743 0 172 186 1
74 0 +-.022 -.0055 -.04 0 0 1 16 172 663 0 ?139 189 164 188 0 0 1 30 174 742 0 1
64 188 190 0 +-.006 -.0055 -.04 0 0 1 30 190 741 0 173 174 180 0 +-.006 -.0135 -
.04 0 0 1 16 173 930 0 ?191 164 177 190 0 0 1 30 180 740 0 177 190 192 0 +-.022
 -.0135 -.04 0 0 1 31 255 192 739 0 193 180 194 0 --.006 -.008 -.032 1 216840434
497101e-30 0 -216840434497101e-30 1 0 .001352549999999984 16 193 659 0 ?195 196
 189 192 0 0 1 31 194 738 0 197 192 198 0 --.022 -.008 -.032 -1 0 0 0 0 1 .00135
2549999999984 16 197 653 0 ?199 200 196 194 0 0 1 30 198 561 0 201 194 202 0 +-.
022 .0135 -.04 0 -1 0 16 201 863 0 ?136 203 204 198 0 0 1 30 202 560 0 203 198 2
05 0 +-.022 .0055 -.04 1 0 0 16 203 474 0 ?206 207 201 202 0 0 1 30 205 559 0 20
7 202 208 0 +-.006 .0135 -.04 -216840434497101e-30 1 0 16 207 465 0 ?209 210 203
 205 0 0 1 30 208 557 0 200 205 211 0 +-.022 .0135 .014 0 -1 0 16 200 1000 0 ?13
3 212 197 208 0 0 1 30 211 556 0 212 208 213 0 +-.022 .0055 .014 1 0 0 16 212 48
1 0 ?214 204 200 211 0 0 1 30 213 555 0 204 211 215 0 +-.006 .0135 .014 -2168404
34497101e-30 1 0 16 204 484 0 ?216 201 212 213 0 0 1 30 215 553 0 217 213 218 0
 +-.022 .0135 -.04 0 0 1 16 217 1049 0 ?32 219 220 215 0 0 1 30 218 552 0 220 21
5 221 0 +-.006 .0135 -.04 0 0 1 16 220 1023 0 ?222 217 223 218 0 0 1 30 221 551
 0 223 218 224 0 +-.006 .0055 -.04 0 0 1 16 223 477 0 ?130 220 210 221 0 0 1 30
 224 550 0 210 221 225 0 +-.022 .0055 -.04 0 0 1 16 210 462 0 ?226 223 207 224 0
 0 1 31 225 549 0 227 224 228 0 --.006 .008 -.032 1 216840434497101e-30 0 -21684
0434497101e-30 1 0 .001352549999999984 16 227 469 0 ?229 230 219 225 0 0 1 31 22
8 548 0 231 225 232 0 --.022 .008 -.032 -1 0 0 0 0 1 .001352549999999984 16 231
 463 0 ?233 234 230 228 0 0 1 31 232 364 0 234 228 235 0 +138966183209846e-32 .0
08 .008 1 0 0 0 0 -1 .001352549999999986 16 234 343 0 ?236 237 231 232 0 0 1 31
 235 363 0 237 232 238 0 +-.028 .008 .008 1 0 0 0 0 -1 .001352549999999984 16 23
7 344 0 ?239 240 234 235 0 0 1 31 238 318 0 240 235 241 0 +138966183209846e-32 -
.008 .008 1 0 0 0 0 -1 .001352549999999986 16 240 297 0 ?242 243 237 238 0 0 1 3
1 241 317 0 243 238 244 0 +-.028 -.008 .008 1 0 0 0 0 -1 .001352549999999984 16
 243 298 0 ?245 246 240 241 0 0 1 31 244 272 0 246 241 247 0 +138966183209846e-3
2 -.008 -.032 1 0 0 0 0 -1 .001352549999999986 16 246 251 0 ?248 249 243 244 0 0
 1 31 247 271 0 249 244 250 0 +-.028 -.008 -.032 1 0 0 0 0 -1 .00135254999999998
4 16 249 252 0 ?251 252 246 247 0 0 1 31 250 226 0 252 247 253 0 +13896618320984
6e-32 .008 -.032 1 0 0 0 0 -1 .001352549999999986 16 252 205 0 ?254 255 249 250
 0 0 1 31 253 225 0 255 250 256 0 +-.028 .008 -.032 1 0 0 0 0 -1 .00135254999999
9984 16 255 206 0 ?257 258 252 253 0 0 1 31 256 143 0 259 253 260 0 +-.028 0 0 1
 0 0 0 0 -1 .004 16 259 120 0 ?261 262 258 256 0 0 1 31 260 142 0 258 256 263 0
 +0 0 0 1 0 0 0 0 -1 .004 16 258 123 0 ?264 259 255 260 0 0 1 30 263 5 0 265 260
 266 0 +-.028 .0135 .014 0 -1 -1284980352575412e-31 16 265 898 0 ?267 268 269 26
3 0 0 1 30 266 8 0 268 263 270 0 +-.028 -.0135 .014 0 0 -1 16 268 825 0 ?271 272
 265 266 0 0 1 30 270 11 0 272 266 273 0 +-.028 .0135 -.04 0 1 -2569960705150825
e-31 16 272 857 0 ?274 275 268 270 0 0 1 30 273 14 0 275 270 276 0 +-.028 .0135
 .014 0 0 1 16 275 904 0 ?277 278 272 273 0 0 1 30 276 69 0 262 273 279 0 +0 .01
35 .014 0 -1 -1284980352575412e-31 16 262 952 0 ?280 281 259 276 0 0 1 30 279 68
 0 281 276 282 0 +0 -.0135 .014 0 0 -1 16 281 936 0 ?283 284 262 279 0 0 1 30 28
2 67 0 284 279 285 0 +0 .0135 -.04 0 1 -2569960705150825e-31 16 284 869 0 ?286 2
69 281 282 0 0 1 30 285 66 0 269 282 287 0 +0 .0135 .014 0 0 1 16 269 958 0 ?288
 265 284 285 0 0 1 31 287 388 0 219 285 289 0 --.006 .008 .008 1 216840434497101
e-30 0 -216840434497101e-30 1 0 .001352549999999984 16 219 464 0 ?290 227 217 28
7 0 0 1 31 289 394 0 230 287 291 0 --.022 .008 .008 -1 0 0 0 0 1 .00135254999999
9984 16 230 458 0 ?292 231 227 289 0 0 1 31 291 580 0 189 289 293 0 --.006 -.008
 .008 1 216840434497101e-30 0 -216840434497101e-30 1 0 .001352549999999984 16 18
9 654 0 ?294 193 172 291 0 0 1 31 293 586 0 196 291 295 0 --.022 -.008 .008 -1 0
 0 0 0 1 .001352549999999984 16 196 648 0 ?296 197 193 293 0 0 1 30 295 832 0 27
8 293 297 0 +-.028 -.0135 .013 -1 0 0 16 278 830 0 ?117 298 275 295 0 0 1 30 297
 837 0 298 295 299 0 +-.028 -.0135 -.039 1 0 0 16 298 835 0 ?300 301 278 297 0 0
 1 30 299 848 0 301 297 302 0 --.022 -.0125 .014 0 .707106781186545 .70710678118
655 16 301 846 0 ?120 303 298 299 0 0 1 30 302 853 0 303 299 304 0 --.022 -.0135
 -.039 0 -.707106781186545 .70710678118655 16 303 851 0 ?108 305 301 302 0 0 1 3
0 304 879 0 305 302 306 0 +-.028 .0125 -.04 1 0 0 16 305 877 0 ?307 308 303 304
 0 0 1 30 306 884 0 308 304 309 0 +-.028 .0125 -.04 1 0 0 16 308 882 0 ?310 158
 305 306 0 0 1 30 309 889 0 158 306 311 0 +-.028 -.0125 -.04 -1 0 0 16 158 887 0
 ?88 312 308 309 0 0 1 30 311 894 0 312 309 313 0 +-.028 -.0125 -.04 -1 0 0 16 3
12 892 0 ?105 314 158 311 0 0 1 30 313 911 0 314 311 315 0 --.028 .0135 .013 0 -
.707106781186548 .707106781186548 16 314 909 0 ?77 316 312 313 0 0 1 30 315 916
 0 316 313 317 0 --.028 .0125 -.04 0 .707106781186545 .70710678118655 16 316 914
 0 ?102 318 314 315 0 0 1 30 317 921 0 318 315 319 0 --.028 -.0125 .014 0 -.7071
06781186545 -.70710678118655 16 318 919 0 ?82 320 316 317 0 0 1 30 319 926 0 320
 317 321 0 --.028 -.0135 -.039 0 .707106781186545 -.70710678118655 16 320 924 0
 ?114 322 318 319 0 0 1 30 321 943 0 322 319 323 0 +-.028 -.0135 .013 -1 0 0 16
 322 941 0 ?71 324 320 321 0 0 1 30 323 948 0 324 321 325 0 +-.028 -.0135 -.039
 1 0 0 16 324 946 0 ?326 327 322 323 0 0 1 30 325 965 0 327 323 328 0 -0 .01325
 .01325 0 .707106781186548 -.707106781186548 16 327 963 0 ?62 329 324 325 0 0 1
 30 328 970 0 329 325 330 0 -0 .02625 -.02625 0 -.707106781186545 -.707106781186
55 16 329 968 0 ?56 331 327 328 0 0 1 30 330 975 0 331 328 332 0 -0 -.01325 .013
25 0 .707106781186545 .70710678118655 16 331 973 0 ?68 333 329 330 0 0 1 30 332
 980 0 333 330 334 0 -0 -.02625 -.02625 0 -.707106781186545 .70710678118655 16 3
33 978 0 ?94 335 331 332 0 0 1 30 334 988 0 335 332 336 0 --.006 -.0125 .014 153
329341668337e-30 -.707106781186545 -.70710678118655 16 335 986 0 ?50 337 333 334
 0 0 1 30 336 993 0 337 334 338 0 --.006 -.0135 -.039 -153329341668337e-30 .7071
06781186545 -.70710678118655 16 337 991 0 ?74 339 335 336 0 0 1 30 338 1004 0 33
9 336 340 0 +-.028 .0125 .014 -1 0 0 16 339 1002 0 ?85 341 337 338 0 0 1 30 340
 1009 0 341 338 342 0 +-.028 .0125 .014 -1 0 0 16 341 1007 0 ?47 343 339 340 0 0
 1 30 342 1014 0 343 340 344 0 +-.028 -.0125 .014 1 0 0 16 343 1012 0 ?345 346 3
41 342 0 0 1 30 344 1019 0 346 342 347 0 +-.028 -.0125 .014 1 0 0 16 346 1017 0
 ?348 349 343 344 0 0 1 30 347 1030 0 349 344 350 0 +-.028 .0135 .013 1 0 0 16 3
49 1028 0 ?351 352 346 347 0 0 1 30 350 1035 0 352 347 353 0 +-.028 .0135 -.039
 -1 0 0 16 352 1033 0 ?42 354 349 350 0 0 1 30 353 1040 0 354 350 355 0 --.006 .
0135 .013 1533293416683375e-31 -.707106781186548 .707106781186548 16 354 1038 0
 ?37 356 352 353 0 0 1 30 355 1045 0 356 353 357 0 --.006 .0125 -.04 -1533293416
68337e-30 .707106781186545 .70710678118655 16 356 1043 0 ?97 27 354 355 0 0 1 30
 357 1056 0 27 355 358 0 --.022 .0135 .013 0 .707106781186548 -.707106781186548
 16 27 1054 0 ?26 35 356 357 0 0 1 30 358 1061 0 35 357 16 0 --.022 .0125 -.04 0
 -.707106781186545 -.70710678118655 16 35 1059 0 ?29 20 27 358 0 0 1 30 16 1066
 0 20 358 6 0 +-.028 .0135 .013 1 0 0 16 20 1064 0 ?28 9 35 16 0 0 1 17 28 0 359
 36 277 10 24 20 0 32 +15 359 439 0 36 360 0 17 36 0 359 19 28 22 32 217 0 361 -
17 277 0 359 28 19 75 362 275 0 24 +17 24 0 23 363 21 75 28 20 0 0 -17 32 0 31 2
6 29 10 36 217 0 0 +15 31 502 0 33 364 365 17 26 0 31 133 32 43 21 27 0 366 +17
 133 0 31 367 26 131 366 200 0 226 +17 366 0 368 85 369 43 133 200 0 25 -15 368
 643 0 167 370 0 17 85 0 368 267 366 83 25 339 0 371 +17 369 0 368 366 372 131 2
14 212 0 0 -17 25 0 23 21 363 43 85 339 0 0 -15 23 1249 0 363 14 0 17 363 0 23 2
5 24 83 77 314 0 0 -17 77 0 373 362 371 75 363 314 0 277 +15 373 3 0 374 375 0 1
7 362 0 373 102 77 78 277 275 0 376 -17 371 0 373 77 82 83 267 265 0 363 -17 82
 0 373 371 377 80 378 318 0 267 +17 267 0 368 345 85 80 371 265 0 379 +17 345 0
 368 380 267 109 379 343 0 185 +17 379 0 381 378 111 80 345 343 0 0 -15 381 1165
 0 378 382 0 17 378 0 381 383 379 115 82 318 0 0 -17 111 0 381 379 383 109 120 3
01 0 345 -17 383 0 381 111 378 118 117 278 0 0 -17 120 0 384 385 185 118 111 301
 0 179 +15 384 692 0 385 386 387 17 385 0 384 108 120 121 179 177 0 0 -17 185 0
 384 120 139 109 380 183 0 0 +17 179 0 388 117 300 118 385 177 0 383 +15 388 617
 0 271 12 0 17 117 0 388 271 179 115 383 278 0 377 +17 300 0 388 179 271 121 389
 298 0 385 +17 271 0 388 300 117 112 377 268 0 389 +17 389 0 390 391 123 112 300
 298 0 0 -15 390 1102 0 391 392 0 17 391 0 390 393 389 103 114 320 0 0 -17 123 0
 390 389 393 121 108 303 0 300 -17 393 0 390 123 391 106 105 312 0 0 -17 108 0 3
84 176 385 106 123 303 0 152 +17 176 0 384 139 108 134 152 161 0 148 -17 152 0 1
47 105 148 106 176 161 0 393 +17 105 0 147 274 152 103 393 312 0 374 +16 161 649
 0 ?152 150 187 182 0 0 1 30 182 751 0 161 0 162 0 +-.022 -.0135 -.04 0 -1 0 17
 274 0 147 307 105 100 374 272 0 394 +17 374 0 373 114 102 103 274 272 0 391 -17
 114 0 373 377 374 112 391 320 0 271 +17 102 0 373 374 362 100 376 316 0 274 +17
 376 0 395 361 394 78 102 316 0 0 -15 395 1207 0 376 396 0 17 361 0 395 34 376 2
2 19 9 0 0 -17 394 0 395 376 34 100 307 305 0 0 -17 34 0 395 394 361 98 29 35 0
 307 -17 307 0 147 136 274 98 394 305 0 33 +17 136 0 147 206 307 127 33 201 0 36
7 +17 33 0 31 29 367 98 136 201 0 0 -17 367 0 31 33 133 127 226 210 0 397 -17 22
6 0 398 214 397 131 367 210 0 369 +17 397 0 398 226 399 127 206 203 0 0 -15 398
 533 0 214 400 0 17 399 0 398 397 214 124 130 223 0 206 -17 206 0 147 209 136 12
4 397 203 0 0 +17 209 0 147 310 206 95 126 207 0 401 +17 310 0 147 156 209 89 40
1 308 0 286 +17 126 0 402 130 97 124 209 207 0 399 -17 401 0 403 404 91 95 310 3
08 0 0 -15 403 1186 0 404 405 0 17 404 0 403 406 401 38 97 356 0 0 -17 91 0 403
 401 406 89 56 329 0 310 -17 406 0 403 91 404 54 42 352 0 0 -17 56 0 407 288 286
 54 91 329 0 408 +15 407 44 0 283 409 0 17 288 0 407 62 56 51 408 269 0 0 +17 28
6 0 407 56 94 89 156 284 0 0 +17 408 0 410 42 351 54 288 269 0 406 -15 410 434 0
 408 411 0 17 42 0 410 222 408 38 406 352 0 412 +17 351 0 410 408 222 51 413 349
 0 288 +17 222 0 410 351 42 30 412 220 0 413 +17 413 0 414 415 53 30 351 349 0 0
 -15 414 1228 0 415 416 0 17 415 0 414 417 413 45 37 354 0 0 -17 53 0 414 413 41
7 51 62 327 0 351 -17 417 0 414 53 415 60 47 341 0 0 -17 62 0 407 280 288 60 53
 327 0 418 +17 280 0 407 68 62 57 418 262 0 0 +17 418 0 368 47 348 60 280 262 0
 417 -17 47 0 368 372 418 45 417 341 0 216 +17 348 0 368 418 167 57 419 346 0 28
0 +17 167 0 368 348 171 48 143 168 0 419 -17 419 0 420 421 59 48 348 346 0 0 -15
 420 1144 0 421 422 0 17 421 0 420 423 419 69 50 335 0 0 -17 59 0 420 419 423 57
 68 331 0 348 -17 423 0 420 59 421 66 71 322 0 0 -17 68 0 407 283 280 66 59 331
 0 424 +17 283 0 407 94 68 63 424 281 0 0 +17 424 0 425 71 326 66 283 281 0 423
 -15 425 612 0 426 427 0 17 71 0 425 426 424 69 423 322 0 191 +17 326 0 425 424
 426 63 428 324 0 283 +17 426 0 425 326 71 72 191 173 0 428 -17 428 0 429 160 65
 72 326 324 0 0 -15 429 1123 0 160 430 0 17 160 0 429 157 428 86 74 337 0 0 -17
 65 0 429 428 157 63 94 333 0 326 -17 157 0 429 65 160 92 88 158 0 0 -17 94 0 40
7 286 283 92 65 333 0 156 +17 156 0 147 88 310 92 286 284 0 157 -17 74 0 159 191
 149 72 160 337 0 426 +17 191 0 159 50 74 69 426 173 0 421 +17 50 0 159 143 191
 48 421 335 0 167 +14 255 430 1122 431 ?422 392 429 4 432 +0 0 422 392 18 81 255
 1 431 1578 433 430 434 0 0 435 436 14 422 1143 435 ?382 430 420 4 437 +0 0 382
 430 18 14 392 1101 438 ?430 175 390 4 439 +0 0 430 175 18 50 432 1134 0 430 439
 437 0 --.028 -.0135 -.039 0 .70710678118655 .707106781186545 1 0 0 13 18 29 0 0
 0 0 0 0 8 12 14 12 614 440 ?441 0 388 4 442 +427 427 441 0 18 81 1 440 1581 433
 12 443 0 438 444 445 14 441 592 444 ?446 12 447 4 448 -449 449 446 12 18 50 442
 88 0 427 450 451 0 +-.028 -.0135 .014 0 -1 0 0 0 -1 14 427 83 452 ?375 153 425
 4 442 +12 12 375 153 18 81 1 452 1583 433 427 453 0 444 454 455 14 375 1 454 ?4
09 427 456 4 457 -0 0 409 427 18 14 153 81 458 ?427 411 147 4 450 +0 0 427 411 1
8 81 1 458 1585 433 153 459 0 454 460 461 14 411 79 460 ?153 370 410 4 462 +360
 360 153 370 18 50 450 87 0 153 462 442 0 +-.028 .0135 -.04 0 -2569960705150825e
-31 -1 0 1 -2569960705150825e-31 50 462 86 0 411 463 450 0 +-.028 .0135 .014 0 1
 0 0 0 1 50 463 65 0 409 457 462 0 +0 0 0 1 0 0 0 0 -1 14 409 43 464 ?465 375 46
6 4 463 +0 0 465 375 18 50 457 2 0 375 467 463 0 +-.028 0 0 1 0 0 0 0 -1 51 255
 467 139 0 465 468 457 0 +-.028 0 0 1 0 0 .004 0 0 -1 14 465 126 469 ?470 409 47
1 4 467 -0 0 470 409 18 51 468 224 0 470 448 467 0 +0 .008 -.032 1 0 0 .00135254
9999999984 0 0 -1 14 470 215 472 ?449 465 473 4 468 -474 474 449 465 18 51 448 2
70 0 449 475 468 0 +0 -.008 -.032 1 0 0 .001352549999999984 0 0 -1 14 449 261 47
6 ?477 470 478 4 448 -441 441 477 470 18 51 475 316 0 477 479 448 0 +0 -.008 .00
8 1 0 0 .001352549999999984 0 0 -1 14 477 307 480 ?481 449 482 4 475 -446 446 48
1 449 18 51 479 362 0 481 483 475 0 +0 .008 .008 1 0 0 .001352549999999984 0 0 -
1 14 481 353 484 ?364 477 485 4 479 -486 486 364 477 18 50 483 542 0 364 487 479
 0 +-.022 .0135 -.04 -1 0 0 0 0 1 14 364 498 488 ?489 481 490 4 483 -0 0 489 481
 18 50 487 543 0 400 491 483 0 +-.022 .0055 -.04 0 -1 0 0 0 -1 14 400 530 492 ?3
86 489 398 4 487 -0 0 386 489 18 50 491 544 0 489 493 487 0 +-.006 .0135 -.04 1
 216840434497101e-30 0 -216840434497101e-30 1 0 14 489 508 494 ?400 364 495 4 49
1 -0 0 400 364 18 50 493 732 0 386 496 491 0 +-.022 -.0135 -.04 -1 0 0 0 0 1 14
 386 688 497 ?165 400 498 4 493 -0 0 165 400 18 50 496 734 0 165 499 493 0 +-.00
6 -.0135 -.04 1 216840434497101e-30 0 -216840434497101e-30 1 0 14 165 698 500 ?1
75 386 501 4 496 -0 0 175 386 18 50 499 735 0 175 0 496 0 +-.022 -.0055 -.04 0 1
 0 0 0 1 14 175 712 502 ?392 165 169 4 499 -0 0 392 165 18 81 1 502 1598 433 175
 503 0 500 504 505 80 255 1 433 506 507 9000 1 1 1 1 1 1 1 1 0 FFFFTFTFFFFFFF1 8
1 1 503 1505 508 175 0 502 509 510 511 81 1 500 1597 433 165 509 0 497 502 512 8
1 1 504 1599 433 382 513 0 502 514 515 82 255 1 505 2142306443 14 382 1164 504 ?
405 422 381 4 516 +0 0 405 422 18 81 1 513 1509 508 382 0 504 517 518 519 81 1 5
14 1600 433 405 518 0 504 520 521 82 1 515 -2109341556 14 405 1185 514 ?396 382
 403 4 522 +0 0 396 382 18 81 1 518 1510 508 405 0 514 513 523 524 81 1 520 1601
 433 396 523 0 514 525 526 82 1 521 -2107375476 14 396 1206 520 ?416 405 395 4 5
27 +0 0 416 405 18 81 1 523 1511 508 396 0 520 518 528 529 81 1 525 1602 433 416
 528 0 520 530 531 82 1 526 -2105409396 14 416 1227 525 ?14 396 414 4 15 +0 0 14
 396 18 81 1 528 1512 508 416 0 525 523 532 533 81 1 530 1603 433 14 532 0 525 5
34 535 82 1 531 -2103443316 14 14 1248 530 ?0 416 23 4 5 +0 0 0 416 18 81 1 532
 1513 508 14 0 530 528 0 536 81 1 534 1604 433 370 537 0 530 538 539 82 1 535 -2
101477236 14 370 85 534 ?411 486 368 4 451 +0 0 411 486 18 81 1 537 1489 508 370
 0 534 540 541 542 81 1 538 1605 433 360 543 0 534 544 545 82 1 539 2013855884 1
4 360 436 538 ?474 446 359 4 462 +411 411 474 446 18 81 1 543 1486 508 360 0 538
 546 547 548 81 1 544 1606 433 446 546 0 538 549 550 82 1 545 -2142240628 14 446
 581 544 ?360 441 551 4 475 -477 477 360 441 18 81 1 546 1485 508 446 0 544 552
 543 553 81 1 549 1607 433 474 547 0 544 554 555 82 1 550 -2139357045 14 474 400
 549 ?486 360 556 4 468 -470 470 486 360 18 81 1 547 1487 508 474 0 549 543 540
 557 81 1 554 1608 433 486 540 0 549 0 558 82 1 555 -2145779573 14 486 389 554 ?
370 474 559 4 479 -481 481 370 474 18 81 1 540 1488 508 486 0 554 547 537 560 82
 1 558 2145976459 80 1 508 0 561 8001 0 0 0 0 3 5 0 0 0 FFFFTFTFFFFFFF2 83 255 3
 560 .898039215686275 .917647058823529 .929411764705882 79 255 15 561 SDL/TYSA_C
OLOUR15 559 392 0 292 486 562 17 292 0 559 292 292 0 563 230 0 0 +15 562 356 0 5
64 486 0 17 564 0 562 564 564 0 239 237 0 0 -17 239 0 456 239 239 0 564 237 0 0
 +15 456 332 0 239 375 565 15 565 286 0 245 375 566 17 245 0 565 245 245 0 567 2
43 0 0 +15 566 240 0 251 375 568 17 251 0 566 251 251 0 569 249 0 0 +15 568 194
 0 257 375 570 17 257 0 568 257 257 0 571 255 0 0 +15 570 114 0 261 375 373 17 2
61 0 570 261 261 0 572 259 0 0 +17 572 0 471 572 572 0 261 259 0 0 -15 471 129 0
 572 465 573 15 573 130 0 264 465 0 17 264 0 573 264 264 0 574 258 0 0 +17 574 0
 575 574 574 0 264 258 0 0 -15 575 109 0 574 409 407 17 571 0 576 571 571 0 257
 255 0 0 -15 576 218 0 571 474 0 17 569 0 577 569 569 0 251 249 0 0 -15 577 264
 0 569 441 0 17 567 0 578 567 567 0 245 243 0 0 -15 578 310 0 567 446 0 17 563 0
 490 563 563 0 292 230 0 0 -15 490 501 0 563 364 31 83 3 557 .898039215686275 .9
17647058823529 .929411764705882 15 556 403 0 233 474 576 17 233 0 556 233 233 0
 579 231 0 0 +17 579 0 365 579 579 0 233 231 0 0 -15 365 503 0 579 364 0 81 1 55
2 1484 508 441 0 444 443 546 580 83 3 553 .898039215686275 .917647058823529 .929
411764705882 81 1 444 1582 433 441 552 0 440 452 581 81 1 443 1483 508 12 0 440
 0 552 582 83 3 580 .898039215686275 .917647058823529 .929411764705882 83 3 582
 .898039215686275 .917647058823529 .929411764705882 82 1 581 -2136145781 15 551
 584 0 296 446 578 17 296 0 551 296 296 0 583 196 0 0 +17 583 0 498 583 583 0 29
6 196 0 0 -15 498 691 0 583 386 384 83 3 548 .898039215686275 .917647058823529 .
929411764705882 81 1 541 1490 508 411 0 460 537 459 584 83 3 542 .89803921568627
5 .917647058823529 .929411764705882 81 1 460 1586 433 411 541 0 458 464 585 81 1
 459 1491 508 153 0 458 541 453 586 83 3 584 .898039215686275 .917647058823529 .
929411764705882 81 1 453 1492 508 427 0 452 459 587 588 83 3 586 .89803921568627
5 .917647058823529 .929411764705882 81 1 587 1493 508 375 0 454 453 589 590 83 3
 588 .898039215686275 .917647058823529 .929411764705882 81 1 454 1584 433 375 58
7 0 452 458 591 81 1 589 1494 508 409 0 464 587 592 593 83 3 590 .89803921568627
5 .917647058823529 .929411764705882 81 1 464 1587 433 409 589 0 460 469 594 81 1
 592 1495 508 465 0 469 589 595 596 83 3 593 .898039215686275 .917647058823529 .
929411764705882 81 1 469 1588 433 465 592 0 464 472 597 81 1 595 1496 508 470 0
 472 592 598 599 83 3 596 .898039215686275 .917647058823529 .929411764705882 81
 1 472 1589 433 470 595 0 469 476 600 81 1 598 1497 508 449 0 476 595 601 602 83
 3 599 .898039215686275 .917647058823529 .929411764705882 81 1 476 1590 433 449
 598 0 472 480 603 81 1 601 1498 508 477 0 480 598 604 605 83 3 602 .89803921568
6275 .917647058823529 .929411764705882 81 1 480 1591 433 477 601 0 476 484 606 8
1 1 604 1499 508 481 0 484 601 607 608 83 3 605 .898039215686275 .91764705882352
9 .929411764705882 81 1 484 1592 433 481 604 0 480 488 609 81 1 607 1500 508 364
 0 488 604 610 611 83 3 608 .898039215686275 .917647058823529 .929411764705882 8
1 1 488 1593 433 364 607 0 484 492 612 81 1 610 1501 508 489 0 494 607 613 614 8
3 3 611 .898039215686275 .917647058823529 .929411764705882 81 1 494 1595 433 489
 610 0 492 497 615 81 1 613 1502 508 400 0 492 610 616 617 83 3 614 .89803921568
6275 .917647058823529 .929411764705882 81 1 492 1594 433 400 613 0 488 494 618 8
1 1 616 1503 508 386 0 497 613 509 619 83 3 617 .898039215686275 .91764705882352
9 .929411764705882 81 1 497 1596 433 386 616 0 494 500 620 81 1 509 1504 508 165
 0 500 616 503 621 83 3 619 .898039215686275 .917647058823529 .929411764705882 8
3 3 621 .898039215686275 .917647058823529 .929411764705882 82 1 620 -2136670068
 82 1 618 2131361931 82 1 615 -2147417972 82 1 612 -2146303860 82 1 609 20358104
43 82 1 606 2051735691 82 1 603 2067595403 82 1 600 2083455115 82 1 597 20185744
71 82 1 594 2012545164 82 1 591 2006909068 82 1 585 2013462668 50 451 89 0 370 4
42 439 0 +-.028 .0135 .014 0 -1284980352575412e-31 1 0 -1 -1284980352575412e-31
 50 439 1113 0 392 451 432 0 --.028 -.0135 -.039 0 .70710678118655 .707106781186
545 1 0 0 83 3 536 .898039215686275 .917647058823529 .929411764705882 83 3 533 .
898039215686275 .917647058823529 .929411764705882 50 15 1239 0 416 527 5 0 --.02
8 .0135 .013 0 -.707106781186548 -.707106781186548 1 0 0 50 527 1218 0 396 522 1
5 0 --.028 .0125 -.04 0 -.70710678118655 .707106781186545 1 0 0 50 522 1197 0 40
5 516 527 0 --.028 .0125 -.04 0 -.70710678118655 .707106781186545 1 0 0 50 516 1
176 0 382 437 522 0 --.028 -.0125 .014 0 .70710678118655 -.707106781186545 1 0 0
 50 437 1155 0 422 432 516 0 --.028 -.0125 .014 0 .70710678118655 -.707106781186
545 1 0 0 83 3 529 .898039215686275 .917647058823529 .929411764705882 83 3 524 .
898039215686275 .917647058823529 .929411764705882 81 1 517 1508 508 422 0 435 43
4 513 622 83 3 519 .898039215686275 .917647058823529 .929411764705882 81 1 435 1
579 433 422 517 0 431 438 623 81 1 434 1507 508 430 0 431 510 517 624 83 3 622 .
898039215686275 .917647058823529 .929411764705882 81 1 510 1506 508 392 0 438 50
3 434 625 83 3 624 .898039215686275 .917647058823529 .929411764705882 81 1 438 1
580 433 392 510 0 435 440 626 83 3 625 .898039215686275 .917647058823529 .929411
764705882 82 1 626 -2115239796 82 1 623 -2111307636 82 1 512 -2137784180 83 3 51
1 .898039215686275 .917647058823529 .929411764705882 79 14 507 SWEntUnchanged15
 501 701 0 627 165 159 17 627 0 501 627 627 0 294 189 0 0 -17 294 0 482 294 294
 0 627 189 0 0 +15 482 578 0 294 477 628 15 628 311 0 242 477 0 17 242 0 628 242
 242 0 629 240 0 0 +17 629 0 630 629 629 0 242 240 0 0 -15 630 276 0 629 409 631
 15 631 230 0 632 409 633 17 632 0 631 632 632 0 248 246 0 0 -15 633 184 0 634 4
09 575 17 634 0 633 634 634 0 254 252 0 0 -17 254 0 635 254 254 0 634 252 0 0 +1
5 635 219 0 254 470 0 17 248 0 636 248 248 0 632 246 0 0 +15 636 265 0 248 449 0
 15 495 511 0 637 489 402 17 637 0 495 637 637 0 290 219 0 0 -15 402 512 0 412 4
89 638 17 412 0 402 97 37 38 222 220 0 404 -15 638 513 0 639 489 0 17 639 0 638
 639 639 0 229 227 0 0 -17 229 0 473 229 229 0 639 227 0 0 +15 473 398 0 229 470
 635 17 97 0 402 126 412 95 404 356 0 209 +17 37 0 402 412 216 30 415 354 0 222
 +17 216 0 402 37 130 45 372 204 0 415 +17 130 0 402 216 126 128 399 223 0 214 +
17 372 0 368 369 47 128 216 204 0 0 -17 214 0 398 399 226 128 369 212 0 372 +17
 290 0 485 290 290 0 637 219 0 0 +15 485 386 0 290 481 640 15 640 357 0 236 481
 0 17 236 0 640 236 236 0 641 234 0 0 +17 641 0 466 641 641 0 236 234 0 0 -15 46
6 322 0 641 409 630 15 478 590 0 195 449 636 17 195 0 478 195 195 0 642 193 0 0
 +17 642 0 166 642 642 0 195 193 0 0 -15 166 703 0 642 165 0 82 1 461 2013593740
 82 1 455 2013724812 15 447 595 0 199 441 577 17 199 0 447 199 199 0 643 197 0 0
 +17 643 0 387 643 643 0 199 197 0 0 -15 387 693 0 643 386 0 82 1 445 -213391755
6 82 1 436 -2113273716 17 171 0 368 167 380 141 170 187 0 0 -17 380 0 368 171 34
5 137 185 183 0 0 -17 170 0 169 145 163 137 171 187 0 380 +17 19 0 359 277 36 78
 361 9 0 362 +17 377 0 373 82 114 115 271 268 0 378 -17 139 0 384 185 176 137 14
5 172 0 170 +19 13 95 0 1 0 8 4 S0 74 4 CI16 index_map_offset0 0 1 dCCZ20 11 2 0
 0 554 532 0 0 0 0 0 0 0 0 0 0 0 0 0 0 0 0 0 0 1 0 
